<svg xmlns="http://www.w3.org/2000/svg" xmlns:xlink="http://www.w3.org/1999/xlink" width="500" zoomAndPan="magnify" viewBox="0 0 375 374.999991" height="500" preserveAspectRatio="xMidYMid meet" version="1.0"><defs><filter x="0%" y="0%" width="100%" height="100%" id="id1"><feColorMatrix values="0 0 0 0 1 0 0 0 0 1 0 0 0 0 1 0 0 0 1 0" color-interpolation-filters="sRGB"/></filter><g/><mask id="id2"><g filter="url(#id1)"><rect x="-37.5" width="450" fill="#000000" y="-37.499999" height="449.999989" fill-opacity="0.498"/></g></mask><clipPath id="id3"><path d="M 0.203125 0.601562 L 117.953125 0.601562 L 117.953125 146.058594 L 0.203125 146.058594 Z M 0.203125 0.601562 " clip-rule="nonzero"/></clipPath><clipPath id="id4"><rect x="0" width="151" y="0" height="147"/></clipPath><mask id="id5"><g filter="url(#id1)"><rect x="-37.5" width="450" fill="#000000" y="-37.499999" height="449.999989" fill-opacity="0.498"/></g></mask><clipPath id="id6"><path d="M 31.820312 0.601562 L 150.519531 0.601562 L 150.519531 146.058594 L 31.820312 146.058594 Z M 31.820312 0.601562 " clip-rule="nonzero"/></clipPath><clipPath id="id7"><rect x="0" width="151" y="0" height="147"/></clipPath><mask id="id8"><g filter="url(#id1)"><rect x="-37.5" width="450" fill="#000000" y="-37.499999" height="449.999989" fill-opacity="0.498"/></g></mask><clipPath id="id9"><path d="M 0.359375 0.199219 L 170.695312 0.199219 L 170.695312 170.617188 L 0.359375 170.617188 Z M 0.359375 0.199219 " clip-rule="nonzero"/></clipPath><clipPath id="id10"><rect x="0" width="171" y="0" height="171"/></clipPath></defs><rect x="-37.5" width="450" fill="#ffffff" y="-37.499999" height="449.999989" fill-opacity="1"/><rect x="-37.5" width="450" fill="#def4ff" y="-37.499999" height="449.999989" fill-opacity="1"/><rect x="-37.5" width="450" fill="#ffffff" y="-37.499999" height="449.999989" fill-opacity="1"/><rect x="-37.5" width="450" fill="#def4ff" y="-37.499999" height="449.999989" fill-opacity="1"/><g mask="url(#id2)"><g transform="matrix(1, 0, 0, 1, 16, 75)"><g clip-path="url(#id4)"><g clip-path="url(#id3)"><path fill="#d9d9d9" d="M 124.53125 78.453125 L 124.53125 143.140625 C 124.53125 144.753906 123.226562 146.058594 121.613281 146.058594 L 28.488281 146.058594 C 26.90625 146.058594 25.601562 144.753906 25.601562 143.140625 L 25.601562 78.453125 L 3.09375 78.453125 C 1.511719 78.453125 0.207031 77.148438 0.207031 75.570312 C 0.207031 74.679688 0.585938 73.925781 1.167969 73.375 L 70.855469 1.722656 C 71.992188 0.558594 73.8125 0.558594 74.945312 1.65625 L 149.035156 73.480469 C 150.167969 74.578125 150.203125 76.429688 149.066406 77.5625 C 148.519531 78.144531 147.761719 78.453125 147.007812 78.453125 Z M 60.238281 95.875 L 89.757812 95.875 C 91.371094 95.875 92.679688 97.179688 92.679688 98.792969 L 92.679688 99.03125 L 92.746094 140.226562 L 118.691406 140.226562 L 118.691406 75.570312 C 118.691406 73.960938 119.996094 72.65625 121.613281 72.65625 L 139.859375 72.65625 L 72.988281 7.828125 L 9.964844 72.65625 L 28.488281 72.65625 C 30.101562 72.65625 31.40625 73.960938 31.40625 75.570312 L 31.40625 140.226562 L 57.351562 140.226562 L 57.351562 98.792969 C 57.351562 97.179688 58.65625 95.910156 60.238281 95.910156 Z M 86.871094 101.707031 L 63.160156 101.707031 L 63.125 140.226562 L 86.972656 140.226562 Z M 86.871094 101.707031 " fill-opacity="1" fill-rule="nonzero"/></g></g></g></g><g mask="url(#id5)"><g transform="matrix(1, 0, 0, 1, 215, 75)"><g clip-path="url(#id7)"><g clip-path="url(#id6)"><path fill="#d9d9d9" d="M 125.03125 78.453125 L 125.03125 143.140625 C 125.03125 144.753906 123.726562 146.058594 122.113281 146.058594 L 28.988281 146.058594 C 27.40625 146.058594 26.101562 144.753906 26.101562 143.140625 L 26.101562 78.453125 L 3.59375 78.453125 C 2.011719 78.453125 0.707031 77.148438 0.707031 75.570312 C 0.707031 74.679688 1.085938 73.925781 1.667969 73.375 L 71.355469 1.722656 C 72.492188 0.558594 74.3125 0.558594 75.445312 1.65625 L 149.535156 73.480469 C 150.667969 74.578125 150.703125 76.429688 149.566406 77.5625 C 149.019531 78.144531 148.261719 78.453125 147.507812 78.453125 Z M 60.738281 95.875 L 90.257812 95.875 C 91.871094 95.875 93.179688 97.179688 93.179688 98.792969 L 93.179688 99.03125 L 93.246094 140.226562 L 119.191406 140.226562 L 119.191406 75.570312 C 119.191406 73.960938 120.496094 72.65625 122.113281 72.65625 L 140.359375 72.65625 L 73.488281 7.828125 L 10.464844 72.65625 L 28.988281 72.65625 C 30.601562 72.65625 31.90625 73.960938 31.90625 75.570312 L 31.90625 140.226562 L 57.851562 140.226562 L 57.851562 98.792969 C 57.851562 97.179688 59.15625 95.910156 60.738281 95.910156 Z M 87.371094 101.707031 L 63.660156 101.707031 L 63.625 140.226562 L 87.472656 140.226562 Z M 87.371094 101.707031 " fill-opacity="1" fill-rule="nonzero"/></g></g></g></g><g mask="url(#id8)"><g transform="matrix(1, 0, 0, 1, 105, 43)"><g clip-path="url(#id10)"><g clip-path="url(#id9)"><path fill="#d9d9d9" d="M 169.203125 102.707031 L 91.679688 38.847656 C 96.929688 34.226562 101.902344 29.324219 106.597656 24.144531 C 107.242188 23.300781 107.78125 22.398438 108.21875 21.429688 C 108.65625 20.464844 108.980469 19.460938 109.191406 18.421875 C 109.402344 17.378906 109.492188 16.332031 109.464844 15.269531 C 109.4375 14.207031 109.292969 13.164062 109.027344 12.136719 C 108.734375 10.980469 108.316406 9.871094 107.769531 8.808594 C 107.226562 7.75 106.570312 6.761719 105.800781 5.847656 C 105.03125 4.9375 104.171875 4.121094 103.21875 3.402344 C 102.265625 2.6875 101.242188 2.085938 100.152344 1.597656 C 98.953125 1.089844 97.703125 0.757812 96.410156 0.601562 C 95.113281 0.441406 93.824219 0.464844 92.535156 0.671875 C 91.246094 0.875 90.011719 1.253906 88.832031 1.808594 C 87.648438 2.359375 86.566406 3.0625 85.582031 3.921875 C 84.597656 3.066406 83.515625 2.363281 82.332031 1.8125 C 81.152344 1.261719 79.917969 0.882812 78.628906 0.679688 C 77.34375 0.472656 76.050781 0.449219 74.757812 0.605469 C 73.464844 0.761719 72.214844 1.09375 71.015625 1.597656 C 69.925781 2.085938 68.902344 2.6875 67.949219 3.402344 C 66.996094 4.121094 66.136719 4.9375 65.367188 5.847656 C 64.597656 6.761719 63.941406 7.75 63.394531 8.808594 C 62.851562 9.871094 62.433594 10.980469 62.140625 12.136719 C 61.875 13.164062 61.726562 14.207031 61.699219 15.269531 C 61.671875 16.332031 61.765625 17.378906 61.976562 18.421875 C 62.183594 19.460938 62.507812 20.464844 62.945312 21.429688 C 63.386719 22.398438 63.925781 23.300781 64.570312 24.144531 C 69.265625 29.324219 74.238281 34.226562 79.488281 38.847656 L 1.964844 102.707031 C 1.761719 102.871094 1.574219 103.058594 1.410156 103.261719 C 1.242188 103.464844 1.097656 103.679688 0.972656 103.914062 C 0.847656 104.144531 0.75 104.386719 0.671875 104.636719 C 0.597656 104.886719 0.546875 105.144531 0.519531 105.40625 C 0.492188 105.667969 0.492188 105.929688 0.519531 106.191406 C 0.546875 106.453125 0.597656 106.707031 0.671875 106.960938 C 0.75 107.210938 0.847656 107.453125 0.972656 107.683594 C 1.097656 107.917969 1.242188 108.132812 1.40625 108.335938 C 1.574219 108.539062 1.757812 108.726562 1.960938 108.890625 C 2.164062 109.058594 2.382812 109.203125 2.613281 109.328125 C 2.847656 109.453125 3.085938 109.550781 3.339844 109.628906 C 3.589844 109.707031 3.847656 109.757812 4.109375 109.78125 C 4.371094 109.808594 4.632812 109.808594 4.894531 109.78125 C 5.152344 109.757812 5.410156 109.707031 5.664062 109.628906 C 5.914062 109.554688 6.15625 109.453125 6.386719 109.332031 C 6.617188 109.207031 6.835938 109.0625 7.039062 108.894531 L 21.78125 96.746094 L 21.78125 166.59375 C 21.777344 166.859375 21.800781 167.117188 21.851562 167.378906 C 21.902344 167.636719 21.976562 167.886719 22.074219 168.132812 C 22.175781 168.375 22.296875 168.609375 22.441406 168.828125 C 22.585938 169.046875 22.753906 169.25 22.9375 169.4375 C 23.125 169.625 23.324219 169.792969 23.542969 169.9375 C 23.761719 170.085938 23.992188 170.210938 24.238281 170.3125 C 24.480469 170.414062 24.730469 170.488281 24.988281 170.539062 C 25.246094 170.59375 25.507812 170.617188 25.773438 170.617188 L 64.53125 170.617188 C 65.058594 170.617188 65.566406 170.515625 66.054688 170.3125 C 66.542969 170.109375 66.972656 169.820312 67.34375 169.449219 C 67.71875 169.074219 68.007812 168.644531 68.210938 168.15625 C 68.410156 167.667969 68.511719 167.160156 68.515625 166.632812 L 68.515625 132.820312 C 68.515625 132.261719 68.542969 131.703125 68.597656 131.148438 C 68.652344 130.589844 68.734375 130.039062 68.84375 129.488281 C 68.953125 128.941406 69.085938 128.398438 69.25 127.863281 C 69.410156 127.328125 69.601562 126.804688 69.8125 126.289062 C 70.027344 125.769531 70.265625 125.265625 70.53125 124.773438 C 70.792969 124.28125 71.082031 123.800781 71.390625 123.335938 C 71.703125 122.871094 72.035156 122.421875 72.390625 121.992188 C 72.742188 121.558594 73.117188 121.144531 73.515625 120.75 C 73.910156 120.355469 74.324219 119.980469 74.753906 119.625 C 75.1875 119.269531 75.636719 118.9375 76.101562 118.628906 C 76.566406 118.316406 77.042969 118.03125 77.539062 117.765625 C 78.03125 117.503906 78.535156 117.265625 79.050781 117.050781 C 79.566406 116.835938 80.09375 116.648438 80.628906 116.484375 C 81.164062 116.324219 81.707031 116.1875 82.253906 116.078125 C 82.800781 115.96875 83.355469 115.886719 83.910156 115.832031 C 84.46875 115.777344 85.023438 115.75 85.582031 115.75 C 86.144531 115.75 86.699219 115.777344 87.257812 115.832031 C 87.8125 115.886719 88.367188 115.96875 88.914062 116.078125 C 89.460938 116.1875 90.003906 116.324219 90.539062 116.484375 C 91.074219 116.648438 91.597656 116.835938 92.117188 117.050781 C 92.632812 117.265625 93.136719 117.503906 93.628906 117.765625 C 94.121094 118.03125 94.601562 118.316406 95.066406 118.628906 C 95.53125 118.9375 95.980469 119.269531 96.410156 119.625 C 96.84375 119.980469 97.257812 120.355469 97.652344 120.75 C 98.046875 121.144531 98.421875 121.558594 98.777344 121.992188 C 99.132812 122.421875 99.464844 122.871094 99.777344 123.335938 C 100.085938 123.800781 100.375 124.28125 100.636719 124.773438 C 100.902344 125.265625 101.140625 125.769531 101.351562 126.289062 C 101.566406 126.804688 101.753906 127.328125 101.917969 127.863281 C 102.078125 128.398438 102.214844 128.941406 102.324219 129.488281 C 102.433594 130.039062 102.515625 130.589844 102.570312 131.148438 C 102.625 131.703125 102.652344 132.261719 102.652344 132.820312 L 102.652344 166.59375 C 102.652344 167.121094 102.753906 167.628906 102.957031 168.117188 C 103.160156 168.605469 103.449219 169.035156 103.820312 169.410156 C 104.195312 169.78125 104.625 170.070312 105.113281 170.273438 C 105.601562 170.476562 106.109375 170.578125 106.636719 170.578125 L 145.394531 170.578125 C 145.65625 170.578125 145.917969 170.554688 146.171875 170.503906 C 146.429688 170.453125 146.679688 170.375 146.921875 170.277344 C 147.164062 170.175781 147.394531 170.054688 147.609375 169.90625 C 147.828125 169.761719 148.03125 169.597656 148.214844 169.414062 C 148.402344 169.226562 148.566406 169.027344 148.710938 168.808594 C 148.859375 168.589844 148.980469 168.363281 149.082031 168.121094 C 149.183594 167.878906 149.257812 167.628906 149.308594 167.371094 C 149.359375 167.117188 149.386719 166.855469 149.386719 166.59375 L 149.386719 96.714844 L 164.128906 108.863281 C 164.332031 109.03125 164.546875 109.175781 164.78125 109.300781 C 165.011719 109.421875 165.253906 109.523438 165.503906 109.597656 C 165.757812 109.675781 166.011719 109.726562 166.273438 109.75 C 166.535156 109.777344 166.796875 109.777344 167.058594 109.75 C 167.320312 109.722656 167.574219 109.671875 167.828125 109.597656 C 168.078125 109.519531 168.320312 109.417969 168.550781 109.296875 C 168.785156 109.171875 169 109.027344 169.203125 108.859375 C 169.40625 108.691406 169.589844 108.507812 169.757812 108.304688 C 169.925781 108.101562 170.070312 107.882812 170.191406 107.652344 C 170.316406 107.421875 170.417969 107.179688 170.492188 106.929688 C 170.570312 106.675781 170.621094 106.421875 170.644531 106.160156 C 170.671875 105.898438 170.671875 105.636719 170.644531 105.375 C 170.621094 105.113281 170.570312 104.855469 170.492188 104.605469 C 170.417969 104.355469 170.316406 104.113281 170.191406 103.882812 C 170.070312 103.648438 169.925781 103.433594 169.757812 103.230469 C 169.589844 103.027344 169.40625 102.839844 169.203125 102.675781 Z M 70.882812 19.269531 C 70.324219 18.523438 69.953125 17.691406 69.777344 16.773438 C 69.601562 15.855469 69.632812 14.945312 69.875 14.039062 C 70.183594 12.878906 70.726562 11.84375 71.507812 10.933594 C 72.289062 10.023438 73.230469 9.328125 74.332031 8.847656 C 78.378906 6.992188 81.722656 11.574219 82.496094 11.945312 C 82.683594 12.167969 82.894531 12.371094 83.125 12.550781 C 83.359375 12.730469 83.605469 12.878906 83.871094 13.003906 C 84.136719 13.128906 84.414062 13.222656 84.699219 13.285156 C 84.984375 13.351562 85.273438 13.382812 85.566406 13.382812 C 85.859375 13.382812 86.152344 13.351562 86.4375 13.285156 C 86.722656 13.222656 87 13.128906 87.265625 13.003906 C 87.53125 12.878906 87.777344 12.730469 88.011719 12.550781 C 88.242188 12.371094 88.453125 12.167969 88.640625 11.945312 C 88.6875 11.898438 92.839844 7.03125 96.820312 8.847656 C 97.917969 9.328125 98.863281 10.023438 99.644531 10.933594 C 100.425781 11.84375 100.96875 12.878906 101.273438 14.039062 C 101.515625 14.941406 101.550781 15.851562 101.375 16.769531 C 101.199219 17.6875 100.832031 18.519531 100.277344 19.269531 C 95.621094 24.300781 90.726562 29.085938 85.582031 33.617188 C 80.4375 29.085938 75.535156 24.304688 70.882812 19.269531 Z M 141.402344 162.601562 L 110.628906 162.601562 L 110.628906 132.820312 C 110.628906 132 110.589844 131.183594 110.507812 130.367188 C 110.425781 129.550781 110.308594 128.738281 110.148438 127.933594 C 109.988281 127.132812 109.785156 126.335938 109.546875 125.550781 C 109.308594 124.765625 109.035156 123.996094 108.71875 123.238281 C 108.40625 122.480469 108.054688 121.742188 107.667969 121.019531 C 107.28125 120.292969 106.859375 119.59375 106.40625 118.910156 C 105.949219 118.230469 105.460938 117.570312 104.941406 116.9375 C 104.421875 116.304688 103.871094 115.695312 103.289062 115.117188 C 102.710938 114.539062 102.101562 113.988281 101.46875 113.46875 C 100.835938 112.949219 100.175781 112.460938 99.496094 112.003906 C 98.8125 111.546875 98.109375 111.128906 97.386719 110.742188 C 96.664062 110.355469 95.921875 110.003906 95.164062 109.691406 C 94.40625 109.378906 93.636719 109.101562 92.851562 108.863281 C 92.066406 108.625 91.273438 108.425781 90.46875 108.265625 C 89.664062 108.105469 88.855469 107.988281 88.039062 107.90625 C 87.222656 107.824219 86.402344 107.785156 85.582031 107.785156 C 84.761719 107.785156 83.945312 107.824219 83.128906 107.90625 C 82.3125 107.988281 81.503906 108.105469 80.699219 108.265625 C 79.894531 108.425781 79.101562 108.625 78.316406 108.863281 C 77.53125 109.101562 76.757812 109.378906 76 109.691406 C 75.242188 110.003906 74.503906 110.355469 73.78125 110.742188 C 73.058594 111.128906 72.355469 111.546875 71.671875 112.003906 C 70.992188 112.460938 70.332031 112.949219 69.699219 113.46875 C 69.0625 113.988281 68.457031 114.539062 67.878906 115.117188 C 67.296875 115.695312 66.746094 116.304688 66.226562 116.9375 C 65.707031 117.570312 65.21875 118.230469 64.761719 118.910156 C 64.308594 119.59375 63.886719 120.292969 63.5 121.019531 C 63.113281 121.742188 62.761719 122.480469 62.445312 123.238281 C 62.132812 123.996094 61.855469 124.765625 61.617188 125.550781 C 61.378906 126.335938 61.179688 127.132812 61.019531 127.933594 C 60.859375 128.738281 60.738281 129.550781 60.660156 130.367188 C 60.578125 131.183594 60.539062 132 60.539062 132.820312 L 60.539062 162.601562 L 29.757812 162.601562 L 29.757812 90.148438 L 85.582031 44.15625 L 141.410156 90.148438 Z M 141.402344 162.601562 " fill-opacity="1" fill-rule="nonzero"/></g></g></g></g><g fill="#094c60" fill-opacity="1"><g transform="translate(49.766475, 220.770953)"><g><path d="M 2.6875 -5.421875 C 1.769531 -6.546875 1.3125 -7.554688 1.3125 -8.453125 C 1.3125 -9.347656 2.066406 -10.535156 3.578125 -12.015625 C 4.460938 -12.859375 5.394531 -13.28125 6.375 -13.28125 C 7.363281 -13.28125 8.734375 -12.398438 10.484375 -10.640625 C 10.972656 -10.046875 11.675781 -9.472656 12.59375 -8.921875 C 13.507812 -8.378906 14.351562 -8.109375 15.125 -8.109375 C 18.394531 -8.109375 20.03125 -9.445312 20.03125 -12.125 C 20.03125 -12.925781 19.582031 -13.597656 18.6875 -14.140625 C 17.789062 -14.691406 16.671875 -15.085938 15.328125 -15.328125 C 13.992188 -15.578125 12.554688 -15.972656 11.015625 -16.515625 C 9.472656 -17.066406 8.03125 -17.707031 6.6875 -18.4375 C 5.351562 -19.175781 4.238281 -20.34375 3.34375 -21.9375 C 2.445312 -23.539062 2 -25.46875 2 -27.71875 C 2 -30.8125 3.148438 -33.507812 5.453125 -35.8125 C 7.753906 -38.113281 10.890625 -39.265625 14.859375 -39.265625 C 16.972656 -39.265625 18.894531 -38.988281 20.625 -38.4375 C 22.363281 -37.894531 23.570312 -37.34375 24.25 -36.78125 L 25.5625 -35.78125 C 26.644531 -34.757812 27.1875 -33.898438 27.1875 -33.203125 C 27.1875 -32.503906 26.769531 -31.535156 25.9375 -30.296875 C 24.738281 -28.546875 23.503906 -27.671875 22.234375 -27.671875 C 21.503906 -27.671875 20.59375 -28.019531 19.5 -28.71875 C 19.394531 -28.789062 19.191406 -28.96875 18.890625 -29.25 C 18.597656 -29.53125 18.328125 -29.757812 18.078125 -29.9375 C 17.335938 -30.394531 16.394531 -30.625 15.25 -30.625 C 14.113281 -30.625 13.164062 -30.347656 12.40625 -29.796875 C 11.65625 -29.253906 11.28125 -28.5 11.28125 -27.53125 C 11.28125 -26.570312 11.726562 -25.789062 12.625 -25.1875 C 13.519531 -24.59375 14.632812 -24.1875 15.96875 -23.96875 C 17.300781 -23.757812 18.757812 -23.4375 20.34375 -23 C 21.925781 -22.5625 23.382812 -22.023438 24.71875 -21.390625 C 26.050781 -20.765625 27.164062 -19.671875 28.0625 -18.109375 C 28.957031 -16.546875 29.40625 -14.617188 29.40625 -12.328125 C 29.40625 -10.046875 28.945312 -8.035156 28.03125 -6.296875 C 27.125 -4.554688 25.929688 -3.210938 24.453125 -2.265625 C 21.609375 -0.398438 18.570312 0.53125 15.34375 0.53125 C 13.6875 0.53125 12.117188 0.328125 10.640625 -0.078125 C 9.171875 -0.484375 7.976562 -0.984375 7.0625 -1.578125 C 5.195312 -2.703125 3.894531 -3.789062 3.15625 -4.84375 Z M 2.6875 -5.421875 "/></g></g></g><g fill="#094c60" fill-opacity="1"><g transform="translate(81.280829, 220.770953)"><g><path d="M 1.3125 -13.859375 C 1.3125 -18.078125 2.785156 -21.554688 5.734375 -24.296875 C 8.691406 -27.035156 12.066406 -28.40625 15.859375 -28.40625 C 19.660156 -28.40625 23.015625 -27.039062 25.921875 -24.3125 C 28.835938 -21.59375 30.296875 -18.125 30.296875 -13.90625 C 30.296875 -11 29.539062 -8.410156 28.03125 -6.140625 C 26.519531 -3.867188 24.6875 -2.195312 22.53125 -1.125 C 20.375 -0.0625 18.132812 0.46875 15.8125 0.46875 C 13.488281 0.46875 11.238281 -0.0976562 9.0625 -1.234375 C 6.882812 -2.378906 5.046875 -4.066406 3.546875 -6.296875 C 2.054688 -8.523438 1.3125 -11.046875 1.3125 -13.859375 Z M 12.328125 -10.09375 C 13.453125 -9.226562 14.59375 -8.796875 15.75 -8.796875 C 16.914062 -8.796875 18.078125 -9.234375 19.234375 -10.109375 C 20.390625 -10.992188 20.96875 -12.296875 20.96875 -14.015625 C 20.96875 -15.734375 20.421875 -17.015625 19.328125 -17.859375 C 18.242188 -18.703125 17.066406 -19.125 15.796875 -19.125 C 14.535156 -19.125 13.359375 -18.6875 12.265625 -17.8125 C 11.179688 -16.9375 10.640625 -15.644531 10.640625 -13.9375 C 10.640625 -12.238281 11.203125 -10.957031 12.328125 -10.09375 Z M 12.328125 -10.09375 "/></g></g></g><g fill="#094c60" fill-opacity="1"><g transform="translate(113.691073, 220.770953)"><g><path d="M 11.171875 -24.078125 C 12.828125 -26.578125 14.8125 -27.828125 17.125 -27.828125 C 20.707031 -27.828125 23.378906 -26.296875 25.140625 -23.234375 C 25.523438 -23.765625 25.988281 -24.316406 26.53125 -24.890625 C 27.082031 -25.472656 27.953125 -26.109375 29.140625 -26.796875 C 30.335938 -27.484375 31.566406 -27.828125 32.828125 -27.828125 C 35.640625 -27.828125 37.992188 -26.742188 39.890625 -24.578125 C 41.796875 -22.421875 42.75 -18.847656 42.75 -13.859375 L 42.75 -4.640625 C 42.75 -3.828125 42.71875 -3.21875 42.65625 -2.8125 C 42.601562 -2.414062 42.4375 -1.953125 42.15625 -1.421875 C 41.707031 -0.472656 40.359375 0 38.109375 0 C 35.890625 0 34.535156 -0.488281 34.046875 -1.46875 C 33.796875 -2 33.644531 -2.46875 33.59375 -2.875 C 33.539062 -3.28125 33.515625 -3.882812 33.515625 -4.6875 L 33.515625 -13.90625 C 33.515625 -16.96875 32.425781 -18.5 30.25 -18.5 C 29.019531 -18.5 28.1875 -18.09375 27.75 -17.28125 C 27.3125 -16.476562 27.09375 -15.335938 27.09375 -13.859375 L 27.09375 -4.640625 C 27.09375 -3.796875 27.066406 -3.179688 27.015625 -2.796875 C 26.960938 -2.410156 26.796875 -1.953125 26.515625 -1.421875 C 26.015625 -0.472656 24.644531 0 22.40625 0 C 20.1875 0 18.832031 -0.488281 18.34375 -1.46875 C 18.09375 -2 17.941406 -2.46875 17.890625 -2.875 C 17.835938 -3.28125 17.8125 -3.882812 17.8125 -4.6875 L 17.8125 -13.90625 C 17.8125 -16.96875 16.722656 -18.5 14.546875 -18.5 C 12.441406 -18.5 11.390625 -16.96875 11.390625 -13.90625 L 11.390625 -4.578125 C 11.390625 -3.773438 11.359375 -3.171875 11.296875 -2.765625 C 11.242188 -2.359375 11.078125 -1.894531 10.796875 -1.375 C 10.273438 -0.457031 8.90625 0 6.6875 0 C 4.476562 0 3.128906 -0.472656 2.640625 -1.421875 C 2.390625 -1.953125 2.238281 -2.410156 2.1875 -2.796875 C 2.132812 -3.179688 2.109375 -3.796875 2.109375 -4.640625 L 2.109375 -23.1875 C 2.109375 -24 2.132812 -24.601562 2.1875 -25 C 2.238281 -25.40625 2.40625 -25.859375 2.6875 -26.359375 C 3.21875 -27.304688 4.460938 -27.78125 6.421875 -27.78125 C 8.390625 -27.78125 9.671875 -27.460938 10.265625 -26.828125 C 10.867188 -26.191406 11.171875 -25.273438 11.171875 -24.078125 Z M 11.171875 -24.078125 "/></g></g></g><g fill="#094c60" fill-opacity="1"><g transform="translate(159.328815, 220.770953)"><g><path d="M 28.875 -17.203125 C 28.875 -15.046875 28.335938 -13.445312 27.265625 -12.40625 C 26.203125 -11.375 25.019531 -10.859375 23.71875 -10.859375 L 11.21875 -10.859375 C 11.21875 -9.867188 11.796875 -9.039062 12.953125 -8.375 C 14.117188 -7.707031 15.28125 -7.375 16.4375 -7.375 C 18.476562 -7.375 20.078125 -7.585938 21.234375 -8.015625 L 21.8125 -8.21875 C 22.65625 -8.601562 23.359375 -8.796875 23.921875 -8.796875 C 25.046875 -8.796875 26.015625 -8.007812 26.828125 -6.4375 C 27.285156 -5.476562 27.515625 -4.664062 27.515625 -4 C 27.515625 -0.875 23.769531 0.6875 16.28125 0.6875 C 13.6875 0.6875 11.378906 0.238281 9.359375 -0.65625 C 7.335938 -1.550781 5.765625 -2.738281 4.640625 -4.21875 C 2.421875 -7.0625 1.3125 -10.238281 1.3125 -13.75 C 1.3125 -18.175781 2.742188 -21.71875 5.609375 -24.375 C 8.472656 -27.03125 12.050781 -28.359375 16.34375 -28.359375 C 21.21875 -28.359375 24.800781 -26.632812 27.09375 -23.1875 C 28.28125 -21.363281 28.875 -19.367188 28.875 -17.203125 Z M 17.765625 -15.65625 C 19.097656 -15.65625 19.765625 -16.21875 19.765625 -17.34375 C 19.765625 -18.144531 19.457031 -18.789062 18.84375 -19.28125 C 18.226562 -19.78125 17.347656 -20.03125 16.203125 -20.03125 C 15.066406 -20.03125 13.9375 -19.5625 12.8125 -18.625 C 11.6875 -17.695312 11.125 -16.707031 11.125 -15.65625 Z M 17.765625 -15.65625 "/></g></g></g><g fill="#094c60" fill-opacity="1"><g transform="translate(190.316186, 220.770953)"><g><path d="M 18.234375 -18.453125 L 14.8125 -18.65625 L 14.8125 -11.390625 C 14.8125 -10.429688 14.957031 -9.742188 15.25 -9.328125 C 15.550781 -8.910156 16.113281 -8.703125 16.9375 -8.703125 C 17.769531 -8.703125 18.40625 -8.671875 18.84375 -8.609375 C 19.28125 -8.554688 19.742188 -8.390625 20.234375 -8.109375 C 21.046875 -7.660156 21.453125 -6.484375 21.453125 -4.578125 C 21.453125 -2.367188 20.957031 -1.019531 19.96875 -0.53125 C 19.445312 -0.28125 18.984375 -0.128906 18.578125 -0.078125 C 18.171875 -0.0234375 17.582031 0 16.8125 0 C 13.15625 0 10.378906 -0.820312 8.484375 -2.46875 C 6.585938 -4.125 5.640625 -6.921875 5.640625 -10.859375 L 5.640625 -18.65625 C 4.972656 -18.550781 4.25 -18.5 3.46875 -18.5 C 2.695312 -18.5 2.054688 -18.796875 1.546875 -19.390625 C 1.046875 -19.992188 0.796875 -21.015625 0.796875 -22.453125 C 0.796875 -23.890625 0.878906 -24.929688 1.046875 -25.578125 C 1.222656 -26.234375 1.472656 -26.703125 1.796875 -26.984375 C 2.359375 -27.441406 3.0625 -27.671875 3.90625 -27.671875 L 5.640625 -27.453125 L 5.640625 -32.890625 C 5.640625 -33.691406 5.664062 -34.285156 5.71875 -34.671875 C 5.769531 -35.066406 5.9375 -35.488281 6.21875 -35.9375 C 6.675781 -36.820312 8.03125 -37.265625 10.28125 -37.265625 C 12.664062 -37.265625 14.085938 -36.613281 14.546875 -35.3125 C 14.722656 -34.75 14.8125 -33.851562 14.8125 -32.625 L 14.8125 -27.453125 C 16.351562 -27.597656 17.519531 -27.671875 18.3125 -27.671875 C 19.101562 -27.671875 19.703125 -27.644531 20.109375 -27.59375 C 20.515625 -27.539062 20.976562 -27.375 21.5 -27.09375 C 22.414062 -26.632812 22.875 -25.28125 22.875 -23.03125 C 22.875 -20.820312 22.398438 -19.46875 21.453125 -18.96875 C 20.921875 -18.726562 20.453125 -18.582031 20.046875 -18.53125 C 19.648438 -18.476562 19.046875 -18.453125 18.234375 -18.453125 Z M 18.234375 -18.453125 "/></g></g></g><g fill="#094c60" fill-opacity="1"><g transform="translate(214.768867, 220.770953)"><g><path d="M 17.5 -27.671875 C 21.007812 -27.671875 23.929688 -26.332031 26.265625 -23.65625 C 28.609375 -20.988281 29.78125 -17.722656 29.78125 -13.859375 L 29.78125 -4.578125 C 29.78125 -3.773438 29.753906 -3.171875 29.703125 -2.765625 C 29.648438 -2.359375 29.484375 -1.894531 29.203125 -1.375 C 28.742188 -0.457031 27.390625 0 25.140625 0 C 22.992188 0 21.660156 -0.457031 21.140625 -1.375 C 20.859375 -1.894531 20.6875 -2.363281 20.625 -2.78125 C 20.570312 -3.207031 20.546875 -3.84375 20.546875 -4.6875 L 20.546875 -13.90625 C 20.546875 -15.351562 20.140625 -16.476562 19.328125 -17.28125 C 18.523438 -18.09375 17.5 -18.5 16.25 -18.5 C 15.007812 -18.5 13.914062 -18.117188 12.96875 -17.359375 C 12.019531 -16.609375 11.472656 -15.757812 11.328125 -14.8125 L 11.328125 -4.578125 C 11.328125 -3.773438 11.300781 -3.171875 11.25 -2.765625 C 11.195312 -2.359375 11.03125 -1.894531 10.75 -1.375 C 10.289062 -0.457031 8.9375 0 6.6875 0 C 4.476562 0 3.128906 -0.472656 2.640625 -1.421875 C 2.390625 -1.953125 2.238281 -2.410156 2.1875 -2.796875 C 2.132812 -3.179688 2.109375 -3.796875 2.109375 -4.640625 L 2.109375 -36.15625 C 2.109375 -36.957031 2.132812 -37.5625 2.1875 -37.96875 C 2.238281 -38.375 2.390625 -38.820312 2.640625 -39.3125 C 3.128906 -40.257812 4.5 -40.734375 6.75 -40.734375 C 8.957031 -40.734375 10.289062 -40.257812 10.75 -39.3125 C 11.03125 -38.789062 11.195312 -38.328125 11.25 -37.921875 C 11.300781 -37.515625 11.328125 -36.910156 11.328125 -36.109375 L 11.328125 -24.453125 C 13.085938 -26.597656 15.144531 -27.671875 17.5 -27.671875 Z M 17.5 -27.671875 "/></g></g></g><g fill="#094c60" fill-opacity="1"><g transform="translate(247.442617, 220.770953)"><g><path d="M 2.109375 -23.140625 C 2.109375 -23.941406 2.132812 -24.546875 2.1875 -24.953125 C 2.238281 -25.359375 2.390625 -25.828125 2.640625 -26.359375 C 3.128906 -27.265625 4.5 -27.71875 6.75 -27.71875 C 8.4375 -27.71875 9.628906 -27.421875 10.328125 -26.828125 C 10.921875 -26.335938 11.238281 -25.582031 11.28125 -24.5625 C 11.3125 -24.207031 11.328125 -23.695312 11.328125 -23.03125 L 11.328125 -4.578125 C 11.328125 -3.773438 11.300781 -3.171875 11.25 -2.765625 C 11.195312 -2.359375 11.03125 -1.894531 10.75 -1.375 C 10.289062 -0.457031 8.9375 0 6.6875 0 C 4.476562 0 3.128906 -0.472656 2.640625 -1.421875 C 2.390625 -1.953125 2.238281 -2.410156 2.1875 -2.796875 C 2.132812 -3.179688 2.109375 -3.796875 2.109375 -4.640625 Z M 10.765625 -32.90625 C 10.503906 -32.40625 10.039062 -32.046875 9.375 -31.828125 C 8.707031 -31.617188 7.820312 -31.515625 6.71875 -31.515625 C 5.613281 -31.515625 4.726562 -31.617188 4.0625 -31.828125 C 3.394531 -32.046875 2.925781 -32.414062 2.65625 -32.9375 C 2.394531 -33.46875 2.238281 -33.929688 2.1875 -34.328125 C 2.132812 -34.734375 2.109375 -35.335938 2.109375 -36.140625 C 2.109375 -36.953125 2.132812 -37.5625 2.1875 -37.96875 C 2.238281 -38.375 2.390625 -38.820312 2.640625 -39.3125 C 3.128906 -40.257812 4.5 -40.734375 6.75 -40.734375 C 8.957031 -40.734375 10.289062 -40.257812 10.75 -39.3125 C 11.03125 -38.789062 11.195312 -38.328125 11.25 -37.921875 C 11.300781 -37.515625 11.328125 -36.90625 11.328125 -36.09375 C 11.328125 -35.289062 11.300781 -34.6875 11.25 -34.28125 C 11.195312 -33.875 11.035156 -33.414062 10.765625 -32.90625 Z M 10.765625 -32.90625 "/></g></g></g><g fill="#094c60" fill-opacity="1"><g transform="translate(261.67165, 220.770953)"><g><path d="M 17.546875 -27.78125 C 21.066406 -27.78125 23.992188 -26.4375 26.328125 -23.75 C 28.660156 -21.0625 29.828125 -17.78125 29.828125 -13.90625 L 29.828125 -4.640625 C 29.828125 -3.828125 29.800781 -3.21875 29.75 -2.8125 C 29.695312 -2.414062 29.546875 -1.96875 29.296875 -1.46875 C 28.804688 -0.519531 27.4375 -0.046875 25.1875 -0.046875 C 22.695312 -0.046875 21.257812 -0.695312 20.875 -2 C 20.65625 -2.601562 20.546875 -3.5 20.546875 -4.6875 L 20.546875 -13.96875 C 20.546875 -15.40625 20.132812 -16.523438 19.3125 -17.328125 C 18.488281 -18.140625 17.378906 -18.546875 15.984375 -18.546875 C 14.597656 -18.546875 13.472656 -18.125 12.609375 -17.28125 C 11.753906 -16.4375 11.328125 -15.332031 11.328125 -13.96875 L 11.328125 -4.640625 C 11.328125 -3.828125 11.300781 -3.21875 11.25 -2.8125 C 11.195312 -2.414062 11.03125 -1.96875 10.75 -1.46875 C 10.289062 -0.519531 8.9375 -0.046875 6.6875 -0.046875 C 4.476562 -0.046875 3.128906 -0.519531 2.640625 -1.46875 C 2.390625 -2 2.238281 -2.46875 2.1875 -2.875 C 2.132812 -3.28125 2.109375 -3.882812 2.109375 -4.6875 L 2.109375 -23.34375 C 2.109375 -24.113281 2.132812 -24.703125 2.1875 -25.109375 C 2.238281 -25.515625 2.40625 -25.960938 2.6875 -26.453125 C 3.175781 -27.335938 4.53125 -27.78125 6.75 -27.78125 C 8.882812 -27.78125 10.203125 -27.375 10.703125 -26.5625 C 11.046875 -25.96875 11.21875 -25.25 11.21875 -24.40625 C 11.363281 -24.644531 11.679688 -24.992188 12.171875 -25.453125 C 12.660156 -25.910156 13.132812 -26.28125 13.59375 -26.5625 C 14.789062 -27.375 16.109375 -27.78125 17.546875 -27.78125 Z M 17.546875 -27.78125 "/></g></g></g><g fill="#094c60" fill-opacity="1"><g transform="translate(294.398089, 220.770953)"><g><path d="M 19.71875 -3.484375 C 18.375 -1.722656 16.242188 -0.84375 13.328125 -0.84375 C 10.410156 -0.84375 7.675781 -2.1875 5.125 -4.875 C 2.582031 -7.5625 1.3125 -10.695312 1.3125 -14.28125 C 1.3125 -17.863281 2.59375 -21.007812 5.15625 -23.71875 C 7.726562 -26.425781 10.539062 -27.78125 13.59375 -27.78125 C 14.789062 -27.78125 15.878906 -27.554688 16.859375 -27.109375 C 17.847656 -26.671875 18.523438 -26.265625 18.890625 -25.890625 C 19.265625 -25.523438 19.554688 -25.1875 19.765625 -24.875 C 19.867188 -25.863281 20.226562 -26.609375 20.84375 -27.109375 C 21.457031 -27.617188 22.445312 -27.875 23.8125 -27.875 C 25.1875 -27.875 26.191406 -27.769531 26.828125 -27.5625 C 27.460938 -27.351562 27.910156 -26.992188 28.171875 -26.484375 C 28.429688 -25.972656 28.585938 -25.523438 28.640625 -25.140625 C 28.691406 -24.753906 28.71875 -24.15625 28.71875 -23.34375 L 28.71875 -1.53125 C 28.71875 2.507812 27.3125 5.769531 24.5 8.25 C 21.695312 10.726562 18.535156 11.96875 15.015625 11.96875 C 12.347656 11.96875 9.800781 11.316406 7.375 10.015625 C 4.945312 8.710938 3.734375 7.535156 3.734375 6.484375 C 3.734375 5.109375 4.265625 3.894531 5.328125 2.84375 C 5.992188 2.101562 6.507812 1.59375 6.875 1.3125 C 7.25 1.03125 7.679688 0.890625 8.171875 0.890625 C 8.660156 0.890625 9.171875 1.101562 9.703125 1.53125 C 11.390625 2.832031 13.210938 3.484375 15.171875 3.484375 C 16.515625 3.484375 17.609375 2.953125 18.453125 1.890625 C 19.296875 0.835938 19.71875 -0.421875 19.71875 -1.890625 Z M 10.328125 -14.25 C 10.328125 -13.113281 10.773438 -12.085938 11.671875 -11.171875 C 12.566406 -10.253906 13.65625 -9.796875 14.9375 -9.796875 C 16.21875 -9.796875 17.28125 -10.257812 18.125 -11.1875 C 18.96875 -12.125 19.390625 -13.144531 19.390625 -14.25 C 19.390625 -15.363281 18.984375 -16.398438 18.171875 -17.359375 C 17.367188 -18.328125 16.28125 -18.8125 14.90625 -18.8125 C 13.539062 -18.8125 12.4375 -18.335938 11.59375 -17.390625 C 10.75 -16.441406 10.328125 -15.394531 10.328125 -14.25 Z M 10.328125 -14.25 "/></g></g></g><g fill="#094c60" fill-opacity="1"><g transform="translate(60.254755, 266.52095)"><g><path d="M 29.625 -20.71875 C 31.695312 -18.25 32.734375 -15.488281 32.734375 -12.4375 C 32.660156 -8.925781 31.453125 -5.984375 29.109375 -3.609375 C 26.773438 -1.234375 23.941406 -0.046875 20.609375 -0.046875 L 6.75 -0.046875 C 4.289062 -0.046875 2.847656 -0.71875 2.421875 -2.0625 C 2.210938 -2.65625 2.109375 -3.566406 2.109375 -4.796875 L 2.109375 -34.046875 C 2.109375 -34.890625 2.132812 -35.503906 2.1875 -35.890625 C 2.238281 -36.273438 2.40625 -36.734375 2.6875 -37.265625 C 3.175781 -38.210938 4.546875 -38.6875 6.796875 -38.6875 L 20.078125 -38.6875 C 23.304688 -38.6875 26.015625 -37.5625 28.203125 -35.3125 C 30.484375 -33.03125 31.625 -30.289062 31.625 -27.09375 C 31.625 -24.769531 30.957031 -22.644531 29.625 -20.71875 Z M 23.40625 -12.96875 C 23.40625 -13.8125 23.304688 -14.476562 23.109375 -14.96875 C 22.921875 -15.457031 22.597656 -15.804688 22.140625 -16.015625 C 21.429688 -16.296875 20.441406 -16.4375 19.171875 -16.4375 C 17.910156 -16.4375 16.960938 -16.679688 16.328125 -17.171875 C 15.703125 -17.671875 15.390625 -18.679688 15.390625 -20.203125 C 15.390625 -21.734375 15.710938 -22.742188 16.359375 -23.234375 C 17.015625 -23.734375 18.097656 -23.984375 19.609375 -23.984375 C 21.015625 -23.984375 21.859375 -24.351562 22.140625 -25.09375 C 22.242188 -25.476562 22.296875 -26.109375 22.296875 -26.984375 C 22.296875 -27.859375 22.003906 -28.472656 21.421875 -28.828125 C 20.835938 -29.179688 19.96875 -29.359375 18.8125 -29.359375 L 11.4375 -29.359375 L 11.4375 -9.375 L 20.078125 -9.375 C 22.296875 -9.375 23.40625 -10.570312 23.40625 -12.96875 Z M 23.40625 -12.96875 "/></g></g></g><g fill="#094c60" fill-opacity="1"><g transform="translate(95.089167, 266.52095)"><g><path d="M 1.3125 -13.859375 C 1.3125 -18.078125 2.785156 -21.554688 5.734375 -24.296875 C 8.691406 -27.035156 12.066406 -28.40625 15.859375 -28.40625 C 19.660156 -28.40625 23.015625 -27.039062 25.921875 -24.3125 C 28.835938 -21.59375 30.296875 -18.125 30.296875 -13.90625 C 30.296875 -11 29.539062 -8.410156 28.03125 -6.140625 C 26.519531 -3.867188 24.6875 -2.195312 22.53125 -1.125 C 20.375 -0.0625 18.132812 0.46875 15.8125 0.46875 C 13.488281 0.46875 11.238281 -0.0976562 9.0625 -1.234375 C 6.882812 -2.378906 5.046875 -4.066406 3.546875 -6.296875 C 2.054688 -8.523438 1.3125 -11.046875 1.3125 -13.859375 Z M 12.328125 -10.09375 C 13.453125 -9.226562 14.59375 -8.796875 15.75 -8.796875 C 16.914062 -8.796875 18.078125 -9.234375 19.234375 -10.109375 C 20.390625 -10.992188 20.96875 -12.296875 20.96875 -14.015625 C 20.96875 -15.734375 20.421875 -17.015625 19.328125 -17.859375 C 18.242188 -18.703125 17.066406 -19.125 15.796875 -19.125 C 14.535156 -19.125 13.359375 -18.6875 12.265625 -17.8125 C 11.179688 -16.9375 10.640625 -15.644531 10.640625 -13.9375 C 10.640625 -12.238281 11.203125 -10.957031 12.328125 -10.09375 Z M 12.328125 -10.09375 "/></g></g></g><g fill="#094c60" fill-opacity="1"><g transform="translate(127.49941, 266.52095)"><g><path d="M 20.96875 -27.453125 C 21.644531 -27.242188 22.203125 -26.882812 22.640625 -26.375 C 23.078125 -25.863281 23.296875 -25.046875 23.296875 -23.921875 C 23.296875 -22.796875 22.960938 -21.566406 22.296875 -20.234375 C 21.628906 -18.898438 20.660156 -18.234375 19.390625 -18.234375 C 18.765625 -18.234375 18.160156 -18.375 17.578125 -18.65625 C 16.992188 -18.9375 16.226562 -19.078125 15.28125 -19.078125 C 14.332031 -19.078125 13.445312 -18.742188 12.625 -18.078125 C 11.800781 -17.410156 11.390625 -16.601562 11.390625 -15.65625 L 11.390625 -4.578125 C 11.390625 -3.773438 11.359375 -3.171875 11.296875 -2.765625 C 11.242188 -2.359375 11.078125 -1.894531 10.796875 -1.375 C 10.273438 -0.457031 8.90625 0 6.6875 0 C 5 0 3.789062 -0.296875 3.0625 -0.890625 C 2.5 -1.390625 2.179688 -2.144531 2.109375 -3.15625 C 2.109375 -3.507812 2.109375 -4.019531 2.109375 -4.6875 L 2.109375 -23.1875 C 2.109375 -24 2.132812 -24.601562 2.1875 -25 C 2.238281 -25.40625 2.390625 -25.859375 2.640625 -26.359375 C 3.128906 -27.304688 4.5 -27.78125 6.75 -27.78125 C 8.851562 -27.78125 10.171875 -27.375 10.703125 -26.5625 C 11.085938 -26 11.28125 -25.421875 11.28125 -24.828125 C 11.457031 -25.066406 11.710938 -25.363281 12.046875 -25.71875 C 12.378906 -26.070312 13.085938 -26.546875 14.171875 -27.140625 C 15.265625 -27.734375 16.222656 -28.03125 17.046875 -28.03125 C 17.867188 -28.03125 18.5625 -27.988281 19.125 -27.90625 C 19.6875 -27.820312 20.300781 -27.671875 20.96875 -27.453125 Z M 20.96875 -27.453125 "/></g></g></g><g fill="#094c60" fill-opacity="1"><g transform="translate(152.373675, 266.52095)"><g><path d="M 20.96875 -27.453125 C 21.644531 -27.242188 22.203125 -26.882812 22.640625 -26.375 C 23.078125 -25.863281 23.296875 -25.046875 23.296875 -23.921875 C 23.296875 -22.796875 22.960938 -21.566406 22.296875 -20.234375 C 21.628906 -18.898438 20.660156 -18.234375 19.390625 -18.234375 C 18.765625 -18.234375 18.160156 -18.375 17.578125 -18.65625 C 16.992188 -18.9375 16.226562 -19.078125 15.28125 -19.078125 C 14.332031 -19.078125 13.445312 -18.742188 12.625 -18.078125 C 11.800781 -17.410156 11.390625 -16.601562 11.390625 -15.65625 L 11.390625 -4.578125 C 11.390625 -3.773438 11.359375 -3.171875 11.296875 -2.765625 C 11.242188 -2.359375 11.078125 -1.894531 10.796875 -1.375 C 10.273438 -0.457031 8.90625 0 6.6875 0 C 5 0 3.789062 -0.296875 3.0625 -0.890625 C 2.5 -1.390625 2.179688 -2.144531 2.109375 -3.15625 C 2.109375 -3.507812 2.109375 -4.019531 2.109375 -4.6875 L 2.109375 -23.1875 C 2.109375 -24 2.132812 -24.601562 2.1875 -25 C 2.238281 -25.40625 2.390625 -25.859375 2.640625 -26.359375 C 3.128906 -27.304688 4.5 -27.78125 6.75 -27.78125 C 8.851562 -27.78125 10.171875 -27.375 10.703125 -26.5625 C 11.085938 -26 11.28125 -25.421875 11.28125 -24.828125 C 11.457031 -25.066406 11.710938 -25.363281 12.046875 -25.71875 C 12.378906 -26.070312 13.085938 -26.546875 14.171875 -27.140625 C 15.265625 -27.734375 16.222656 -28.03125 17.046875 -28.03125 C 17.867188 -28.03125 18.5625 -27.988281 19.125 -27.90625 C 19.6875 -27.820312 20.300781 -27.671875 20.96875 -27.453125 Z M 20.96875 -27.453125 "/></g></g></g><g fill="#094c60" fill-opacity="1"><g transform="translate(177.247939, 266.52095)"><g><path d="M 1.3125 -13.859375 C 1.3125 -18.078125 2.785156 -21.554688 5.734375 -24.296875 C 8.691406 -27.035156 12.066406 -28.40625 15.859375 -28.40625 C 19.660156 -28.40625 23.015625 -27.039062 25.921875 -24.3125 C 28.835938 -21.59375 30.296875 -18.125 30.296875 -13.90625 C 30.296875 -11 29.539062 -8.410156 28.03125 -6.140625 C 26.519531 -3.867188 24.6875 -2.195312 22.53125 -1.125 C 20.375 -0.0625 18.132812 0.46875 15.8125 0.46875 C 13.488281 0.46875 11.238281 -0.0976562 9.0625 -1.234375 C 6.882812 -2.378906 5.046875 -4.066406 3.546875 -6.296875 C 2.054688 -8.523438 1.3125 -11.046875 1.3125 -13.859375 Z M 12.328125 -10.09375 C 13.453125 -9.226562 14.59375 -8.796875 15.75 -8.796875 C 16.914062 -8.796875 18.078125 -9.234375 19.234375 -10.109375 C 20.390625 -10.992188 20.96875 -12.296875 20.96875 -14.015625 C 20.96875 -15.734375 20.421875 -17.015625 19.328125 -17.859375 C 18.242188 -18.703125 17.066406 -19.125 15.796875 -19.125 C 14.535156 -19.125 13.359375 -18.6875 12.265625 -17.8125 C 11.179688 -16.9375 10.640625 -15.644531 10.640625 -13.9375 C 10.640625 -12.238281 11.203125 -10.957031 12.328125 -10.09375 Z M 12.328125 -10.09375 "/></g></g></g><g fill="#094c60" fill-opacity="1"><g transform="translate(209.658189, 266.52095)"><g><path d="M 37.625 -27.5625 C 39.875 -26.582031 41 -25.367188 41 -23.921875 C 41 -23.328125 40.71875 -22.367188 40.15625 -21.046875 C 39.59375 -19.734375 39.117188 -18.585938 38.734375 -17.609375 L 32.9375 -3.484375 C 32.414062 -1.929688 31.535156 -0.835938 30.296875 -0.203125 C 29.773438 0.0351562 29.109375 0.15625 28.296875 0.15625 C 27.492188 0.15625 26.710938 -0.148438 25.953125 -0.765625 C 25.203125 -1.378906 24.703125 -2.003906 24.453125 -2.640625 L 24.03125 -3.53125 C 23.75 -4.226562 22.710938 -6.96875 20.921875 -11.75 C 20.566406 -10.90625 20.046875 -9.523438 19.359375 -7.609375 C 18.679688 -5.703125 18.242188 -4.507812 18.046875 -4.03125 C 17.859375 -3.550781 17.738281 -3.234375 17.6875 -3.078125 C 17.632812 -2.921875 17.484375 -2.628906 17.234375 -2.203125 C 16.984375 -1.785156 16.703125 -1.421875 16.390625 -1.109375 C 15.546875 -0.265625 14.578125 0.15625 13.484375 0.15625 C 12.398438 0.15625 11.488281 -0.148438 10.75 -0.765625 C 10.007812 -1.378906 9.519531 -2.003906 9.28125 -2.640625 L 1.3125 -22.03125 C 0.96875 -23.082031 0.796875 -23.765625 0.796875 -24.078125 C 0.796875 -25.484375 1.796875 -26.59375 3.796875 -27.40625 C 4.921875 -27.863281 5.832031 -28.09375 6.53125 -28.09375 C 7.238281 -28.09375 7.8125 -27.941406 8.25 -27.640625 C 8.6875 -27.335938 8.992188 -27.035156 9.171875 -26.734375 C 9.347656 -26.441406 9.488281 -26.140625 9.59375 -25.828125 C 10.1875 -24.421875 11.429688 -21.117188 13.328125 -15.921875 L 16.4375 -24.453125 C 16.65625 -25.160156 17.046875 -25.773438 17.609375 -26.296875 C 18.617188 -27.316406 19.648438 -27.828125 20.703125 -27.828125 C 21.765625 -27.828125 22.671875 -27.546875 23.421875 -26.984375 C 24.179688 -26.421875 24.703125 -25.859375 24.984375 -25.296875 L 25.40625 -24.40625 C 27.15625 -19.476562 28.191406 -16.664062 28.515625 -15.96875 L 31.734375 -24.71875 C 32.566406 -26.96875 33.828125 -28.09375 35.515625 -28.09375 C 36.179688 -28.09375 36.882812 -27.914062 37.625 -27.5625 Z M 37.625 -27.5625 "/></g></g></g><g fill="#094c60" fill-opacity="1"><g transform="translate(252.239362, 266.52095)"><g><path d="M 28.875 -17.203125 C 28.875 -15.046875 28.335938 -13.445312 27.265625 -12.40625 C 26.203125 -11.375 25.019531 -10.859375 23.71875 -10.859375 L 11.21875 -10.859375 C 11.21875 -9.867188 11.796875 -9.039062 12.953125 -8.375 C 14.117188 -7.707031 15.28125 -7.375 16.4375 -7.375 C 18.476562 -7.375 20.078125 -7.585938 21.234375 -8.015625 L 21.8125 -8.21875 C 22.65625 -8.601562 23.359375 -8.796875 23.921875 -8.796875 C 25.046875 -8.796875 26.015625 -8.007812 26.828125 -6.4375 C 27.285156 -5.476562 27.515625 -4.664062 27.515625 -4 C 27.515625 -0.875 23.769531 0.6875 16.28125 0.6875 C 13.6875 0.6875 11.378906 0.238281 9.359375 -0.65625 C 7.335938 -1.550781 5.765625 -2.738281 4.640625 -4.21875 C 2.421875 -7.0625 1.3125 -10.238281 1.3125 -13.75 C 1.3125 -18.175781 2.742188 -21.71875 5.609375 -24.375 C 8.472656 -27.03125 12.050781 -28.359375 16.34375 -28.359375 C 21.21875 -28.359375 24.800781 -26.632812 27.09375 -23.1875 C 28.28125 -21.363281 28.875 -19.367188 28.875 -17.203125 Z M 17.765625 -15.65625 C 19.097656 -15.65625 19.765625 -16.21875 19.765625 -17.34375 C 19.765625 -18.144531 19.457031 -18.789062 18.84375 -19.28125 C 18.226562 -19.78125 17.347656 -20.03125 16.203125 -20.03125 C 15.066406 -20.03125 13.9375 -19.5625 12.8125 -18.625 C 11.6875 -17.695312 11.125 -16.707031 11.125 -15.65625 Z M 17.765625 -15.65625 "/></g></g></g><g fill="#094c60" fill-opacity="1"><g transform="translate(283.226734, 266.52095)"><g><path d="M 20.734375 -39.34375 C 21.003906 -39.851562 21.472656 -40.210938 22.140625 -40.421875 C 22.804688 -40.628906 23.691406 -40.734375 24.796875 -40.734375 C 25.898438 -40.734375 26.785156 -40.628906 27.453125 -40.421875 C 28.117188 -40.210938 28.582031 -39.84375 28.84375 -39.3125 C 29.113281 -38.789062 29.273438 -38.328125 29.328125 -37.921875 C 29.378906 -37.515625 29.40625 -36.910156 29.40625 -36.109375 L 29.40625 -4.640625 C 29.40625 -3.828125 29.378906 -3.21875 29.328125 -2.8125 C 29.273438 -2.414062 29.109375 -1.96875 28.828125 -1.46875 C 28.296875 -0.519531 26.8125 -0.046875 24.375 -0.046875 C 21.9375 -0.046875 20.578125 -0.910156 20.296875 -2.640625 C 18.816406 -0.953125 16.757812 -0.109375 14.125 -0.109375 C 10.957031 -0.109375 8.070312 -1.484375 5.46875 -4.234375 C 2.875 -6.992188 1.578125 -10.207031 1.578125 -13.875 C 1.578125 -17.550781 2.882812 -20.773438 5.5 -23.546875 C 8.125 -26.328125 11 -27.71875 14.125 -27.71875 C 16.726562 -27.71875 18.75 -26.84375 20.1875 -25.09375 L 20.1875 -36.15625 C 20.1875 -36.957031 20.210938 -37.5625 20.265625 -37.96875 C 20.316406 -38.375 20.472656 -38.832031 20.734375 -39.34375 Z M 12.171875 -10.703125 C 13.085938 -9.753906 14.191406 -9.28125 15.484375 -9.28125 C 16.785156 -9.28125 17.867188 -9.753906 18.734375 -10.703125 C 19.597656 -11.648438 20.03125 -12.691406 20.03125 -13.828125 C 20.03125 -14.972656 19.613281 -16.035156 18.78125 -17.015625 C 17.957031 -18.003906 16.84375 -18.5 15.4375 -18.5 C 14.03125 -18.5 12.90625 -18.015625 12.0625 -17.046875 C 11.21875 -16.078125 10.796875 -15.015625 10.796875 -13.859375 C 10.796875 -12.703125 11.253906 -11.648438 12.171875 -10.703125 Z M 12.171875 -10.703125 "/></g></g></g><g fill="#094c60" fill-opacity="1"><g transform="translate(46.05028, 291.047851)"><g><path d="M 3.6875 -4.296875 L 6.234375 -8.5625 L 7.15625 -8.03125 L 4.21875 -3.234375 L 4.21875 0 L 3.078125 0 L 3.078125 -3.234375 L 0.125 -8.03125 L 1.09375 -8.609375 Z M 3.6875 -4.296875 "/></g></g></g><g fill="#094c60" fill-opacity="1"><g transform="translate(55.751165, 291.047851)"><g><path d="M 0.609375 -4.265625 C 0.609375 -4.890625 0.695312 -5.46875 0.875 -6 C 1.0625 -6.53125 1.328125 -6.988281 1.671875 -7.375 C 2.015625 -7.769531 2.429688 -8.078125 2.921875 -8.296875 C 3.421875 -8.523438 3.984375 -8.640625 4.609375 -8.640625 C 5.234375 -8.640625 5.796875 -8.523438 6.296875 -8.296875 C 6.796875 -8.066406 7.21875 -7.753906 7.5625 -7.359375 C 7.90625 -6.960938 8.164062 -6.5 8.34375 -5.96875 C 8.53125 -5.4375 8.625 -4.867188 8.625 -4.265625 C 8.625 -3.648438 8.53125 -3.078125 8.34375 -2.546875 C 8.164062 -2.015625 7.90625 -1.546875 7.5625 -1.140625 C 7.21875 -0.742188 6.796875 -0.429688 6.296875 -0.203125 C 5.804688 0.0234375 5.242188 0.140625 4.609375 0.140625 C 3.984375 0.140625 3.421875 0.0234375 2.921875 -0.203125 C 2.429688 -0.429688 2.015625 -0.742188 1.671875 -1.140625 C 1.328125 -1.546875 1.0625 -2.015625 0.875 -2.546875 C 0.695312 -3.078125 0.609375 -3.648438 0.609375 -4.265625 Z M 1.78125 -4.265625 C 1.78125 -3.828125 1.84375 -3.398438 1.96875 -2.984375 C 2.09375 -2.578125 2.273438 -2.210938 2.515625 -1.890625 C 2.765625 -1.578125 3.066406 -1.320312 3.421875 -1.125 C 3.773438 -0.9375 4.171875 -0.84375 4.609375 -0.84375 C 5.078125 -0.84375 5.488281 -0.929688 5.84375 -1.109375 C 6.195312 -1.285156 6.492188 -1.523438 6.734375 -1.828125 C 6.972656 -2.128906 7.148438 -2.488281 7.265625 -2.90625 C 7.390625 -3.320312 7.453125 -3.773438 7.453125 -4.265625 C 7.453125 -4.703125 7.382812 -5.117188 7.25 -5.515625 C 7.125 -5.921875 6.941406 -6.28125 6.703125 -6.59375 C 6.460938 -6.914062 6.164062 -7.171875 5.8125 -7.359375 C 5.457031 -7.554688 5.054688 -7.65625 4.609375 -7.65625 C 4.171875 -7.65625 3.773438 -7.566406 3.421875 -7.390625 C 3.066406 -7.210938 2.765625 -6.972656 2.515625 -6.671875 C 2.273438 -6.367188 2.09375 -6.007812 1.96875 -5.59375 C 1.84375 -5.1875 1.78125 -4.742188 1.78125 -4.265625 Z M 1.78125 -4.265625 "/></g></g></g><g fill="#094c60" fill-opacity="1"><g transform="translate(67.41882, 291.047851)"><g><path d="M 6.109375 -8.5 L 7.21875 -8.5 L 7.21875 -3.28125 C 7.21875 -2.75 7.144531 -2.269531 7 -1.84375 C 6.851562 -1.414062 6.640625 -1.050781 6.359375 -0.75 C 6.078125 -0.457031 5.738281 -0.234375 5.34375 -0.078125 C 4.957031 0.0664062 4.53125 0.140625 4.0625 0.140625 C 3.070312 0.140625 2.296875 -0.144531 1.734375 -0.71875 C 1.179688 -1.300781 0.90625 -2.140625 0.90625 -3.234375 L 0.90625 -8.5 L 2.0625 -8.5 L 2.0625 -3.40625 C 2.0625 -2.59375 2.222656 -1.960938 2.546875 -1.515625 C 2.878906 -1.078125 3.382812 -0.859375 4.0625 -0.859375 C 4.75 -0.859375 5.257812 -1.070312 5.59375 -1.5 C 5.9375 -1.9375 6.109375 -2.570312 6.109375 -3.40625 Z M 6.109375 -8.5 "/></g></g></g><g fill="#094c60" fill-opacity="1"><g transform="translate(77.981686, 291.047851)"><g><path d="M 6.046875 0.140625 L 4.984375 -2.15625 C 4.722656 -2.726562 4.390625 -3.132812 3.984375 -3.375 C 3.578125 -3.625 3.054688 -3.75 2.421875 -3.75 L 2.25 -3.75 L 2.25 0 L 1.09375 0 L 1.09375 -8.46875 C 1.53125 -8.507812 1.941406 -8.539062 2.328125 -8.5625 C 2.710938 -8.582031 3.128906 -8.59375 3.578125 -8.59375 C 4.097656 -8.59375 4.550781 -8.535156 4.9375 -8.421875 C 5.332031 -8.316406 5.65625 -8.160156 5.90625 -7.953125 C 6.164062 -7.753906 6.363281 -7.515625 6.5 -7.234375 C 6.632812 -6.960938 6.703125 -6.664062 6.703125 -6.34375 C 6.703125 -5.75 6.523438 -5.269531 6.171875 -4.90625 C 5.816406 -4.550781 5.3125 -4.285156 4.65625 -4.109375 C 4.8125 -4.035156 4.957031 -3.953125 5.09375 -3.859375 C 5.238281 -3.765625 5.367188 -3.648438 5.484375 -3.515625 C 5.609375 -3.378906 5.726562 -3.21875 5.84375 -3.03125 C 5.957031 -2.84375 6.078125 -2.617188 6.203125 -2.359375 L 7.125 -0.359375 Z M 3.578125 -7.625 C 3.304688 -7.625 3.0625 -7.617188 2.84375 -7.609375 C 2.625 -7.597656 2.425781 -7.585938 2.25 -7.578125 L 2.25 -4.71875 L 3.578125 -4.71875 C 4.160156 -4.71875 4.632812 -4.847656 5 -5.109375 C 5.363281 -5.367188 5.546875 -5.742188 5.546875 -6.234375 C 5.546875 -6.628906 5.375 -6.957031 5.03125 -7.21875 C 4.695312 -7.488281 4.210938 -7.625 3.578125 -7.625 Z M 3.578125 -7.625 "/></g></g></g><g fill="#094c60" fill-opacity="1"><g transform="translate(87.901095, 291.047851)"><g/></g></g><g fill="#094c60" fill-opacity="1"><g transform="translate(93.971948, 291.047851)"><g><path d="M 2.1875 -7.015625 L 2.1875 0 L 1.09375 0 L 1.09375 -8.5 L 2.625 -8.5 L 6.375 -1.4375 L 6.375 -8.5 L 7.46875 -8.5 L 7.46875 0 L 5.96875 0 Z M 2.1875 -7.015625 "/></g></g></g><g fill="#094c60" fill-opacity="1"><g transform="translate(104.959734, 291.047851)"><g><path d="M 1.09375 -8.5 L 6.1875 -8.5 L 6.1875 -7.5 L 2.25 -7.5 L 2.25 -4.921875 L 5.640625 -4.921875 L 5.640625 -3.953125 L 2.25 -3.953125 L 2.25 -1 L 6.1875 -1 L 6.1875 0 L 1.09375 0 Z M 1.09375 -8.5 "/></g></g></g><g fill="#094c60" fill-opacity="1"><g transform="translate(114.126434, 291.047851)"><g><path d="M 1.09375 0 L 1.09375 -8.5 L 2.25 -8.5 L 2.25 0 Z M 1.09375 0 "/></g></g></g><g fill="#094c60" fill-opacity="1"><g transform="translate(119.893769, 291.047851)"><g><path d="M 4.546875 -4.5 L 7.390625 -4.5 L 7.390625 0 L 6.375 0 L 6.375 -0.84375 C 6.09375 -0.59375 5.75 -0.363281 5.34375 -0.15625 C 4.9375 0.0390625 4.488281 0.140625 4 0.140625 C 3.5 0.140625 3.039062 0.046875 2.625 -0.140625 C 2.21875 -0.335938 1.863281 -0.617188 1.5625 -0.984375 C 1.257812 -1.347656 1.023438 -1.785156 0.859375 -2.296875 C 0.691406 -2.816406 0.609375 -3.394531 0.609375 -4.03125 C 0.609375 -4.707031 0.691406 -5.328125 0.859375 -5.890625 C 1.035156 -6.453125 1.289062 -6.9375 1.625 -7.34375 C 1.957031 -7.757812 2.363281 -8.078125 2.84375 -8.296875 C 3.320312 -8.523438 3.867188 -8.640625 4.484375 -8.640625 C 5.023438 -8.640625 5.5 -8.570312 5.90625 -8.4375 C 6.3125 -8.3125 6.695312 -8.148438 7.0625 -7.953125 L 6.640625 -7 C 6.296875 -7.175781 5.953125 -7.328125 5.609375 -7.453125 C 5.265625 -7.578125 4.875 -7.640625 4.4375 -7.640625 C 4.050781 -7.640625 3.695312 -7.5625 3.375 -7.40625 C 3.050781 -7.25 2.769531 -7.019531 2.53125 -6.71875 C 2.300781 -6.425781 2.117188 -6.054688 1.984375 -5.609375 C 1.847656 -5.171875 1.78125 -4.671875 1.78125 -4.109375 C 1.78125 -3.597656 1.84375 -3.140625 1.96875 -2.734375 C 2.09375 -2.335938 2.257812 -2 2.46875 -1.71875 C 2.6875 -1.4375 2.945312 -1.222656 3.25 -1.078125 C 3.5625 -0.929688 3.898438 -0.859375 4.265625 -0.859375 C 4.484375 -0.859375 4.691406 -0.882812 4.890625 -0.9375 C 5.097656 -0.988281 5.285156 -1.054688 5.453125 -1.140625 C 5.628906 -1.234375 5.785156 -1.328125 5.921875 -1.421875 C 6.066406 -1.523438 6.191406 -1.628906 6.296875 -1.734375 L 6.296875 -3.59375 L 4.546875 -3.59375 Z M 4.546875 -4.5 "/></g></g></g><g fill="#094c60" fill-opacity="1"><g transform="translate(130.505194, 291.047851)"><g><path d="M 6.4375 -3.875 L 2.25 -3.875 L 2.25 0 L 1.09375 0 L 1.09375 -8.5 L 2.25 -8.5 L 2.25 -4.875 L 6.4375 -4.875 L 6.4375 -8.5 L 7.59375 -8.5 L 7.59375 0 L 6.4375 0 Z M 6.4375 -3.875 "/></g></g></g><g fill="#094c60" fill-opacity="1"><g transform="translate(141.614379, 291.047851)"><g><path d="M 1.09375 -8.46875 C 1.375 -8.5 1.722656 -8.523438 2.140625 -8.546875 C 2.554688 -8.578125 3.039062 -8.59375 3.59375 -8.59375 C 4.632812 -8.59375 5.429688 -8.398438 5.984375 -8.015625 C 6.546875 -7.628906 6.828125 -7.09375 6.828125 -6.40625 C 6.828125 -5.957031 6.707031 -5.578125 6.46875 -5.265625 C 6.238281 -4.960938 5.890625 -4.707031 5.421875 -4.5 C 5.972656 -4.3125 6.390625 -4.046875 6.671875 -3.703125 C 6.960938 -3.359375 7.109375 -2.929688 7.109375 -2.421875 C 7.109375 -1.648438 6.804688 -1.035156 6.203125 -0.578125 C 5.597656 -0.128906 4.710938 0.09375 3.546875 0.09375 C 3.046875 0.09375 2.578125 0.0820312 2.140625 0.0625 C 1.703125 0.0390625 1.351562 0.0078125 1.09375 -0.03125 Z M 3.625 -0.859375 C 4.351562 -0.859375 4.914062 -0.988281 5.3125 -1.25 C 5.71875 -1.507812 5.921875 -1.882812 5.921875 -2.375 C 5.921875 -2.863281 5.722656 -3.242188 5.328125 -3.515625 C 4.929688 -3.796875 4.363281 -3.9375 3.625 -3.9375 L 2.25 -3.9375 L 2.25 -0.9375 C 2.664062 -0.882812 3.125 -0.859375 3.625 -0.859375 Z M 3.578125 -4.828125 C 4.222656 -4.828125 4.734375 -4.957031 5.109375 -5.21875 C 5.484375 -5.488281 5.671875 -5.835938 5.671875 -6.265625 C 5.671875 -6.722656 5.484375 -7.066406 5.109375 -7.296875 C 4.734375 -7.535156 4.222656 -7.65625 3.578125 -7.65625 C 3.316406 -7.65625 3.078125 -7.648438 2.859375 -7.640625 C 2.640625 -7.628906 2.4375 -7.613281 2.25 -7.59375 L 2.25 -4.828125 Z M 3.578125 -4.828125 "/></g></g></g><g fill="#094c60" fill-opacity="1"><g transform="translate(151.691611, 291.047851)"><g><path d="M 0.609375 -4.265625 C 0.609375 -4.890625 0.695312 -5.46875 0.875 -6 C 1.0625 -6.53125 1.328125 -6.988281 1.671875 -7.375 C 2.015625 -7.769531 2.429688 -8.078125 2.921875 -8.296875 C 3.421875 -8.523438 3.984375 -8.640625 4.609375 -8.640625 C 5.234375 -8.640625 5.796875 -8.523438 6.296875 -8.296875 C 6.796875 -8.066406 7.21875 -7.753906 7.5625 -7.359375 C 7.90625 -6.960938 8.164062 -6.5 8.34375 -5.96875 C 8.53125 -5.4375 8.625 -4.867188 8.625 -4.265625 C 8.625 -3.648438 8.53125 -3.078125 8.34375 -2.546875 C 8.164062 -2.015625 7.90625 -1.546875 7.5625 -1.140625 C 7.21875 -0.742188 6.796875 -0.429688 6.296875 -0.203125 C 5.804688 0.0234375 5.242188 0.140625 4.609375 0.140625 C 3.984375 0.140625 3.421875 0.0234375 2.921875 -0.203125 C 2.429688 -0.429688 2.015625 -0.742188 1.671875 -1.140625 C 1.328125 -1.546875 1.0625 -2.015625 0.875 -2.546875 C 0.695312 -3.078125 0.609375 -3.648438 0.609375 -4.265625 Z M 1.78125 -4.265625 C 1.78125 -3.828125 1.84375 -3.398438 1.96875 -2.984375 C 2.09375 -2.578125 2.273438 -2.210938 2.515625 -1.890625 C 2.765625 -1.578125 3.066406 -1.320312 3.421875 -1.125 C 3.773438 -0.9375 4.171875 -0.84375 4.609375 -0.84375 C 5.078125 -0.84375 5.488281 -0.929688 5.84375 -1.109375 C 6.195312 -1.285156 6.492188 -1.523438 6.734375 -1.828125 C 6.972656 -2.128906 7.148438 -2.488281 7.265625 -2.90625 C 7.390625 -3.320312 7.453125 -3.773438 7.453125 -4.265625 C 7.453125 -4.703125 7.382812 -5.117188 7.25 -5.515625 C 7.125 -5.921875 6.941406 -6.28125 6.703125 -6.59375 C 6.460938 -6.914062 6.164062 -7.171875 5.8125 -7.359375 C 5.457031 -7.554688 5.054688 -7.65625 4.609375 -7.65625 C 4.171875 -7.65625 3.773438 -7.566406 3.421875 -7.390625 C 3.066406 -7.210938 2.765625 -6.972656 2.515625 -6.671875 C 2.273438 -6.367188 2.09375 -6.007812 1.96875 -5.59375 C 1.84375 -5.1875 1.78125 -4.742188 1.78125 -4.265625 Z M 1.78125 -4.265625 "/></g></g></g><g fill="#094c60" fill-opacity="1"><g transform="translate(163.359263, 291.047851)"><g><path d="M 6.109375 -8.5 L 7.21875 -8.5 L 7.21875 -3.28125 C 7.21875 -2.75 7.144531 -2.269531 7 -1.84375 C 6.851562 -1.414062 6.640625 -1.050781 6.359375 -0.75 C 6.078125 -0.457031 5.738281 -0.234375 5.34375 -0.078125 C 4.957031 0.0664062 4.53125 0.140625 4.0625 0.140625 C 3.070312 0.140625 2.296875 -0.144531 1.734375 -0.71875 C 1.179688 -1.300781 0.90625 -2.140625 0.90625 -3.234375 L 0.90625 -8.5 L 2.0625 -8.5 L 2.0625 -3.40625 C 2.0625 -2.59375 2.222656 -1.960938 2.546875 -1.515625 C 2.878906 -1.078125 3.382812 -0.859375 4.0625 -0.859375 C 4.75 -0.859375 5.257812 -1.070312 5.59375 -1.5 C 5.9375 -1.9375 6.109375 -2.570312 6.109375 -3.40625 Z M 6.109375 -8.5 "/></g></g></g><g fill="#094c60" fill-opacity="1"><g transform="translate(173.922124, 291.047851)"><g><path d="M 6.046875 0.140625 L 4.984375 -2.15625 C 4.722656 -2.726562 4.390625 -3.132812 3.984375 -3.375 C 3.578125 -3.625 3.054688 -3.75 2.421875 -3.75 L 2.25 -3.75 L 2.25 0 L 1.09375 0 L 1.09375 -8.46875 C 1.53125 -8.507812 1.941406 -8.539062 2.328125 -8.5625 C 2.710938 -8.582031 3.128906 -8.59375 3.578125 -8.59375 C 4.097656 -8.59375 4.550781 -8.535156 4.9375 -8.421875 C 5.332031 -8.316406 5.65625 -8.160156 5.90625 -7.953125 C 6.164062 -7.753906 6.363281 -7.515625 6.5 -7.234375 C 6.632812 -6.960938 6.703125 -6.664062 6.703125 -6.34375 C 6.703125 -5.75 6.523438 -5.269531 6.171875 -4.90625 C 5.816406 -4.550781 5.3125 -4.285156 4.65625 -4.109375 C 4.8125 -4.035156 4.957031 -3.953125 5.09375 -3.859375 C 5.238281 -3.765625 5.367188 -3.648438 5.484375 -3.515625 C 5.609375 -3.378906 5.726562 -3.21875 5.84375 -3.03125 C 5.957031 -2.84375 6.078125 -2.617188 6.203125 -2.359375 L 7.125 -0.359375 Z M 3.578125 -7.625 C 3.304688 -7.625 3.0625 -7.617188 2.84375 -7.609375 C 2.625 -7.597656 2.425781 -7.585938 2.25 -7.578125 L 2.25 -4.71875 L 3.578125 -4.71875 C 4.160156 -4.71875 4.632812 -4.847656 5 -5.109375 C 5.363281 -5.367188 5.546875 -5.742188 5.546875 -6.234375 C 5.546875 -6.628906 5.375 -6.957031 5.03125 -7.21875 C 4.695312 -7.488281 4.210938 -7.625 3.578125 -7.625 Z M 3.578125 -7.625 "/></g></g></g><g fill="#094c60" fill-opacity="1"><g transform="translate(183.84153, 291.047851)"><g><path d="M 6.4375 -3.875 L 2.25 -3.875 L 2.25 0 L 1.09375 0 L 1.09375 -8.5 L 2.25 -8.5 L 2.25 -4.875 L 6.4375 -4.875 L 6.4375 -8.5 L 7.59375 -8.5 L 7.59375 0 L 6.4375 0 Z M 6.4375 -3.875 "/></g></g></g><g fill="#094c60" fill-opacity="1"><g transform="translate(194.95071, 291.047851)"><g><path d="M 0.609375 -4.265625 C 0.609375 -4.890625 0.695312 -5.46875 0.875 -6 C 1.0625 -6.53125 1.328125 -6.988281 1.671875 -7.375 C 2.015625 -7.769531 2.429688 -8.078125 2.921875 -8.296875 C 3.421875 -8.523438 3.984375 -8.640625 4.609375 -8.640625 C 5.234375 -8.640625 5.796875 -8.523438 6.296875 -8.296875 C 6.796875 -8.066406 7.21875 -7.753906 7.5625 -7.359375 C 7.90625 -6.960938 8.164062 -6.5 8.34375 -5.96875 C 8.53125 -5.4375 8.625 -4.867188 8.625 -4.265625 C 8.625 -3.648438 8.53125 -3.078125 8.34375 -2.546875 C 8.164062 -2.015625 7.90625 -1.546875 7.5625 -1.140625 C 7.21875 -0.742188 6.796875 -0.429688 6.296875 -0.203125 C 5.804688 0.0234375 5.242188 0.140625 4.609375 0.140625 C 3.984375 0.140625 3.421875 0.0234375 2.921875 -0.203125 C 2.429688 -0.429688 2.015625 -0.742188 1.671875 -1.140625 C 1.328125 -1.546875 1.0625 -2.015625 0.875 -2.546875 C 0.695312 -3.078125 0.609375 -3.648438 0.609375 -4.265625 Z M 1.78125 -4.265625 C 1.78125 -3.828125 1.84375 -3.398438 1.96875 -2.984375 C 2.09375 -2.578125 2.273438 -2.210938 2.515625 -1.890625 C 2.765625 -1.578125 3.066406 -1.320312 3.421875 -1.125 C 3.773438 -0.9375 4.171875 -0.84375 4.609375 -0.84375 C 5.078125 -0.84375 5.488281 -0.929688 5.84375 -1.109375 C 6.195312 -1.285156 6.492188 -1.523438 6.734375 -1.828125 C 6.972656 -2.128906 7.148438 -2.488281 7.265625 -2.90625 C 7.390625 -3.320312 7.453125 -3.773438 7.453125 -4.265625 C 7.453125 -4.703125 7.382812 -5.117188 7.25 -5.515625 C 7.125 -5.921875 6.941406 -6.28125 6.703125 -6.59375 C 6.460938 -6.914062 6.164062 -7.171875 5.8125 -7.359375 C 5.457031 -7.554688 5.054688 -7.65625 4.609375 -7.65625 C 4.171875 -7.65625 3.773438 -7.566406 3.421875 -7.390625 C 3.066406 -7.210938 2.765625 -6.972656 2.515625 -6.671875 C 2.273438 -6.367188 2.09375 -6.007812 1.96875 -5.59375 C 1.84375 -5.1875 1.78125 -4.742188 1.78125 -4.265625 Z M 1.78125 -4.265625 "/></g></g></g><g fill="#094c60" fill-opacity="1"><g transform="translate(206.618362, 291.047851)"><g><path d="M 0.609375 -4.265625 C 0.609375 -4.890625 0.695312 -5.46875 0.875 -6 C 1.0625 -6.53125 1.328125 -6.988281 1.671875 -7.375 C 2.015625 -7.769531 2.429688 -8.078125 2.921875 -8.296875 C 3.421875 -8.523438 3.984375 -8.640625 4.609375 -8.640625 C 5.234375 -8.640625 5.796875 -8.523438 6.296875 -8.296875 C 6.796875 -8.066406 7.21875 -7.753906 7.5625 -7.359375 C 7.90625 -6.960938 8.164062 -6.5 8.34375 -5.96875 C 8.53125 -5.4375 8.625 -4.867188 8.625 -4.265625 C 8.625 -3.648438 8.53125 -3.078125 8.34375 -2.546875 C 8.164062 -2.015625 7.90625 -1.546875 7.5625 -1.140625 C 7.21875 -0.742188 6.796875 -0.429688 6.296875 -0.203125 C 5.804688 0.0234375 5.242188 0.140625 4.609375 0.140625 C 3.984375 0.140625 3.421875 0.0234375 2.921875 -0.203125 C 2.429688 -0.429688 2.015625 -0.742188 1.671875 -1.140625 C 1.328125 -1.546875 1.0625 -2.015625 0.875 -2.546875 C 0.695312 -3.078125 0.609375 -3.648438 0.609375 -4.265625 Z M 1.78125 -4.265625 C 1.78125 -3.828125 1.84375 -3.398438 1.96875 -2.984375 C 2.09375 -2.578125 2.273438 -2.210938 2.515625 -1.890625 C 2.765625 -1.578125 3.066406 -1.320312 3.421875 -1.125 C 3.773438 -0.9375 4.171875 -0.84375 4.609375 -0.84375 C 5.078125 -0.84375 5.488281 -0.929688 5.84375 -1.109375 C 6.195312 -1.285156 6.492188 -1.523438 6.734375 -1.828125 C 6.972656 -2.128906 7.148438 -2.488281 7.265625 -2.90625 C 7.390625 -3.320312 7.453125 -3.773438 7.453125 -4.265625 C 7.453125 -4.703125 7.382812 -5.117188 7.25 -5.515625 C 7.125 -5.921875 6.941406 -6.28125 6.703125 -6.59375 C 6.460938 -6.914062 6.164062 -7.171875 5.8125 -7.359375 C 5.457031 -7.554688 5.054688 -7.65625 4.609375 -7.65625 C 4.171875 -7.65625 3.773438 -7.566406 3.421875 -7.390625 C 3.066406 -7.210938 2.765625 -6.972656 2.515625 -6.671875 C 2.273438 -6.367188 2.09375 -6.007812 1.96875 -5.59375 C 1.84375 -5.1875 1.78125 -4.742188 1.78125 -4.265625 Z M 1.78125 -4.265625 "/></g></g></g><g fill="#094c60" fill-opacity="1"><g transform="translate(218.286013, 291.047851)"><g><path d="M 1.09375 -8.46875 C 1.46875 -8.507812 1.835938 -8.539062 2.203125 -8.5625 C 2.566406 -8.582031 2.984375 -8.59375 3.453125 -8.59375 C 4.179688 -8.59375 4.804688 -8.476562 5.328125 -8.25 C 5.859375 -8.03125 6.296875 -7.71875 6.640625 -7.3125 C 6.992188 -6.914062 7.253906 -6.453125 7.421875 -5.921875 C 7.585938 -5.398438 7.671875 -4.847656 7.671875 -4.265625 C 7.671875 -3.671875 7.582031 -3.109375 7.40625 -2.578125 C 7.238281 -2.046875 6.976562 -1.582031 6.625 -1.1875 C 6.28125 -0.789062 5.832031 -0.476562 5.28125 -0.25 C 4.738281 -0.0195312 4.085938 0.09375 3.328125 0.09375 C 2.867188 0.09375 2.46875 0.0820312 2.125 0.0625 C 1.78125 0.0390625 1.4375 0.0078125 1.09375 -0.03125 Z M 3.421875 -7.59375 C 3.191406 -7.59375 2.976562 -7.585938 2.78125 -7.578125 C 2.582031 -7.566406 2.40625 -7.554688 2.25 -7.546875 L 2.25 -0.96875 C 2.414062 -0.945312 2.59375 -0.929688 2.78125 -0.921875 C 2.96875 -0.910156 3.160156 -0.90625 3.359375 -0.90625 C 3.898438 -0.90625 4.367188 -0.988281 4.765625 -1.15625 C 5.160156 -1.320312 5.484375 -1.550781 5.734375 -1.84375 C 5.992188 -2.144531 6.1875 -2.5 6.3125 -2.90625 C 6.4375 -3.3125 6.5 -3.765625 6.5 -4.265625 C 6.5 -4.703125 6.4375 -5.117188 6.3125 -5.515625 C 6.1875 -5.921875 6 -6.273438 5.75 -6.578125 C 5.5 -6.890625 5.179688 -7.132812 4.796875 -7.3125 C 4.410156 -7.5 3.953125 -7.59375 3.421875 -7.59375 Z M 3.421875 -7.59375 "/></g></g></g><g fill="#094c60" fill-opacity="1"><g transform="translate(228.994558, 291.047851)"><g><path d="M 1.4375 -8.5 L 1.34375 -5.796875 L 0.484375 -5.796875 L 0.390625 -8.5 Z M 1.4375 -8.5 "/></g></g></g><g fill="#094c60" fill-opacity="1"><g transform="translate(233.244321, 291.047851)"><g><path d="M 0.953125 -1.6875 C 1.242188 -1.445312 1.570312 -1.25 1.9375 -1.09375 C 2.300781 -0.9375 2.722656 -0.859375 3.203125 -0.859375 C 3.785156 -0.859375 4.242188 -0.976562 4.578125 -1.21875 C 4.921875 -1.46875 5.09375 -1.796875 5.09375 -2.203125 C 5.09375 -2.378906 5.066406 -2.539062 5.015625 -2.6875 C 4.972656 -2.832031 4.878906 -2.96875 4.734375 -3.09375 C 4.597656 -3.226562 4.398438 -3.363281 4.140625 -3.5 C 3.890625 -3.632812 3.5625 -3.78125 3.15625 -3.9375 C 2.71875 -4.101562 2.347656 -4.269531 2.046875 -4.4375 C 1.742188 -4.601562 1.5 -4.785156 1.3125 -4.984375 C 1.125 -5.179688 0.988281 -5.398438 0.90625 -5.640625 C 0.832031 -5.878906 0.796875 -6.148438 0.796875 -6.453125 C 0.796875 -6.753906 0.859375 -7.035156 0.984375 -7.296875 C 1.109375 -7.566406 1.289062 -7.800781 1.53125 -8 C 1.78125 -8.195312 2.082031 -8.351562 2.4375 -8.46875 C 2.800781 -8.582031 3.210938 -8.640625 3.671875 -8.640625 C 4.179688 -8.640625 4.632812 -8.585938 5.03125 -8.484375 C 5.425781 -8.390625 5.816406 -8.25 6.203125 -8.0625 L 5.78125 -7.078125 C 5.5 -7.242188 5.175781 -7.378906 4.8125 -7.484375 C 4.445312 -7.597656 4.0625 -7.65625 3.65625 -7.65625 C 3.125 -7.65625 2.703125 -7.550781 2.390625 -7.34375 C 2.085938 -7.132812 1.9375 -6.859375 1.9375 -6.515625 C 1.9375 -6.359375 1.957031 -6.21875 2 -6.09375 C 2.039062 -5.96875 2.128906 -5.84375 2.265625 -5.71875 C 2.398438 -5.601562 2.585938 -5.484375 2.828125 -5.359375 C 3.066406 -5.242188 3.382812 -5.113281 3.78125 -4.96875 C 4.25 -4.789062 4.644531 -4.609375 4.96875 -4.421875 C 5.289062 -4.234375 5.546875 -4.035156 5.734375 -3.828125 C 5.929688 -3.617188 6.070312 -3.390625 6.15625 -3.140625 C 6.238281 -2.898438 6.28125 -2.632812 6.28125 -2.34375 C 6.28125 -1.945312 6.203125 -1.59375 6.046875 -1.28125 C 5.898438 -0.976562 5.691406 -0.71875 5.421875 -0.5 C 5.148438 -0.289062 4.820312 -0.128906 4.4375 -0.015625 C 4.0625 0.0859375 3.648438 0.140625 3.203125 0.140625 C 2.609375 0.140625 2.066406 0.0625 1.578125 -0.09375 C 1.097656 -0.25 0.691406 -0.457031 0.359375 -0.71875 Z M 0.953125 -1.6875 "/></g></g></g><g fill="#094c60" fill-opacity="1"><g transform="translate(242.568852, 291.047851)"><g/></g></g><g fill="#094c60" fill-opacity="1"><g transform="translate(248.639713, 291.047851)"><g><path d="M 6.140625 0 L 1.09375 0 L 1.09375 -8.5 L 2.25 -8.5 L 2.25 -1.03125 L 6.140625 -1.03125 Z M 6.140625 0 "/></g></g></g><g fill="#094c60" fill-opacity="1"><g transform="translate(257.27222, 291.047851)"><g><path d="M 1.09375 -8.5 L 6.1875 -8.5 L 6.1875 -7.5 L 2.25 -7.5 L 2.25 -4.921875 L 5.640625 -4.921875 L 5.640625 -3.953125 L 2.25 -3.953125 L 2.25 -1 L 6.1875 -1 L 6.1875 0 L 1.09375 0 Z M 1.09375 -8.5 "/></g></g></g><g fill="#094c60" fill-opacity="1"><g transform="translate(266.438914, 291.047851)"><g><path d="M 2.1875 -7.015625 L 2.1875 0 L 1.09375 0 L 1.09375 -8.5 L 2.625 -8.5 L 6.375 -1.4375 L 6.375 -8.5 L 7.46875 -8.5 L 7.46875 0 L 5.96875 0 Z M 2.1875 -7.015625 "/></g></g></g><g fill="#094c60" fill-opacity="1"><g transform="translate(277.426706, 291.047851)"><g><path d="M 1.09375 -8.46875 C 1.46875 -8.507812 1.835938 -8.539062 2.203125 -8.5625 C 2.566406 -8.582031 2.984375 -8.59375 3.453125 -8.59375 C 4.179688 -8.59375 4.804688 -8.476562 5.328125 -8.25 C 5.859375 -8.03125 6.296875 -7.71875 6.640625 -7.3125 C 6.992188 -6.914062 7.253906 -6.453125 7.421875 -5.921875 C 7.585938 -5.398438 7.671875 -4.847656 7.671875 -4.265625 C 7.671875 -3.671875 7.582031 -3.109375 7.40625 -2.578125 C 7.238281 -2.046875 6.976562 -1.582031 6.625 -1.1875 C 6.28125 -0.789062 5.832031 -0.476562 5.28125 -0.25 C 4.738281 -0.0195312 4.085938 0.09375 3.328125 0.09375 C 2.867188 0.09375 2.46875 0.0820312 2.125 0.0625 C 1.78125 0.0390625 1.4375 0.0078125 1.09375 -0.03125 Z M 3.421875 -7.59375 C 3.191406 -7.59375 2.976562 -7.585938 2.78125 -7.578125 C 2.582031 -7.566406 2.40625 -7.554688 2.25 -7.546875 L 2.25 -0.96875 C 2.414062 -0.945312 2.59375 -0.929688 2.78125 -0.921875 C 2.96875 -0.910156 3.160156 -0.90625 3.359375 -0.90625 C 3.898438 -0.90625 4.367188 -0.988281 4.765625 -1.15625 C 5.160156 -1.320312 5.484375 -1.550781 5.734375 -1.84375 C 5.992188 -2.144531 6.1875 -2.5 6.3125 -2.90625 C 6.4375 -3.3125 6.5 -3.765625 6.5 -4.265625 C 6.5 -4.703125 6.4375 -5.117188 6.3125 -5.515625 C 6.1875 -5.921875 6 -6.273438 5.75 -6.578125 C 5.5 -6.890625 5.179688 -7.132812 4.796875 -7.3125 C 4.410156 -7.5 3.953125 -7.59375 3.421875 -7.59375 Z M 3.421875 -7.59375 "/></g></g></g><g fill="#094c60" fill-opacity="1"><g transform="translate(288.135263, 291.047851)"><g><path d="M 1.09375 0 L 1.09375 -8.5 L 2.25 -8.5 L 2.25 0 Z M 1.09375 0 "/></g></g></g><g fill="#094c60" fill-opacity="1"><g transform="translate(293.902604, 291.047851)"><g><path d="M 2.1875 -7.015625 L 2.1875 0 L 1.09375 0 L 1.09375 -8.5 L 2.625 -8.5 L 6.375 -1.4375 L 6.375 -8.5 L 7.46875 -8.5 L 7.46875 0 L 5.96875 0 Z M 2.1875 -7.015625 "/></g></g></g><g fill="#094c60" fill-opacity="1"><g transform="translate(304.890396, 291.047851)"><g><path d="M 4.546875 -4.5 L 7.390625 -4.5 L 7.390625 0 L 6.375 0 L 6.375 -0.84375 C 6.09375 -0.59375 5.75 -0.363281 5.34375 -0.15625 C 4.9375 0.0390625 4.488281 0.140625 4 0.140625 C 3.5 0.140625 3.039062 0.046875 2.625 -0.140625 C 2.21875 -0.335938 1.863281 -0.617188 1.5625 -0.984375 C 1.257812 -1.347656 1.023438 -1.785156 0.859375 -2.296875 C 0.691406 -2.816406 0.609375 -3.394531 0.609375 -4.03125 C 0.609375 -4.707031 0.691406 -5.328125 0.859375 -5.890625 C 1.035156 -6.453125 1.289062 -6.9375 1.625 -7.34375 C 1.957031 -7.757812 2.363281 -8.078125 2.84375 -8.296875 C 3.320312 -8.523438 3.867188 -8.640625 4.484375 -8.640625 C 5.023438 -8.640625 5.5 -8.570312 5.90625 -8.4375 C 6.3125 -8.3125 6.695312 -8.148438 7.0625 -7.953125 L 6.640625 -7 C 6.296875 -7.175781 5.953125 -7.328125 5.609375 -7.453125 C 5.265625 -7.578125 4.875 -7.640625 4.4375 -7.640625 C 4.050781 -7.640625 3.695312 -7.5625 3.375 -7.40625 C 3.050781 -7.25 2.769531 -7.019531 2.53125 -6.71875 C 2.300781 -6.425781 2.117188 -6.054688 1.984375 -5.609375 C 1.847656 -5.171875 1.78125 -4.671875 1.78125 -4.109375 C 1.78125 -3.597656 1.84375 -3.140625 1.96875 -2.734375 C 2.09375 -2.335938 2.257812 -2 2.46875 -1.71875 C 2.6875 -1.4375 2.945312 -1.222656 3.25 -1.078125 C 3.5625 -0.929688 3.898438 -0.859375 4.265625 -0.859375 C 4.484375 -0.859375 4.691406 -0.882812 4.890625 -0.9375 C 5.097656 -0.988281 5.285156 -1.054688 5.453125 -1.140625 C 5.628906 -1.234375 5.785156 -1.328125 5.921875 -1.421875 C 6.066406 -1.523438 6.191406 -1.628906 6.296875 -1.734375 L 6.296875 -3.59375 L 4.546875 -3.59375 Z M 4.546875 -4.5 "/></g></g></g><g fill="#094c60" fill-opacity="1"><g transform="translate(81.394027, 304.54785)"><g><path d="M 3.3125 -4.078125 C 2.945312 -3.828125 2.675781 -3.566406 2.5 -3.296875 C 2.332031 -3.023438 2.25 -2.695312 2.25 -2.3125 C 2.25 -2.101562 2.289062 -1.910156 2.375 -1.734375 C 2.457031 -1.554688 2.570312 -1.398438 2.71875 -1.265625 C 2.875 -1.128906 3.050781 -1.023438 3.25 -0.953125 C 3.457031 -0.878906 3.6875 -0.84375 3.9375 -0.84375 C 4.28125 -0.84375 4.601562 -0.925781 4.90625 -1.09375 C 5.207031 -1.257812 5.472656 -1.488281 5.703125 -1.78125 Z M 2.875 -6.609375 C 2.875 -6.335938 2.9375 -6.078125 3.0625 -5.828125 C 3.1875 -5.578125 3.390625 -5.316406 3.671875 -5.046875 C 4.179688 -5.304688 4.539062 -5.5625 4.75 -5.8125 C 4.957031 -6.070312 5.0625 -6.375 5.0625 -6.71875 C 5.0625 -7.007812 4.960938 -7.253906 4.765625 -7.453125 C 4.578125 -7.660156 4.320312 -7.765625 4 -7.765625 C 3.675781 -7.765625 3.40625 -7.65625 3.1875 -7.4375 C 2.976562 -7.21875 2.875 -6.941406 2.875 -6.609375 Z M 2.765625 -4.65625 C 2.460938 -4.988281 2.238281 -5.296875 2.09375 -5.578125 C 1.945312 -5.867188 1.875 -6.210938 1.875 -6.609375 C 1.875 -6.898438 1.921875 -7.164062 2.015625 -7.40625 C 2.117188 -7.65625 2.265625 -7.867188 2.453125 -8.046875 C 2.640625 -8.234375 2.863281 -8.378906 3.125 -8.484375 C 3.382812 -8.585938 3.679688 -8.640625 4.015625 -8.640625 C 4.335938 -8.640625 4.625 -8.59375 4.875 -8.5 C 5.132812 -8.40625 5.351562 -8.273438 5.53125 -8.109375 C 5.707031 -7.941406 5.835938 -7.75 5.921875 -7.53125 C 6.015625 -7.3125 6.0625 -7.078125 6.0625 -6.828125 C 6.0625 -6.304688 5.910156 -5.863281 5.609375 -5.5 C 5.316406 -5.132812 4.847656 -4.796875 4.203125 -4.484375 L 6.203125 -2.578125 C 6.285156 -2.722656 6.347656 -2.882812 6.390625 -3.0625 C 6.441406 -3.25 6.484375 -3.429688 6.515625 -3.609375 C 6.554688 -3.785156 6.601562 -3.957031 6.65625 -4.125 C 6.707031 -4.289062 6.78125 -4.4375 6.875 -4.5625 C 6.976562 -4.6875 7.109375 -4.785156 7.265625 -4.859375 C 7.429688 -4.941406 7.644531 -4.984375 7.90625 -4.984375 L 8.171875 -4.109375 C 8.003906 -4.109375 7.867188 -4.070312 7.765625 -4 C 7.660156 -3.9375 7.578125 -3.847656 7.515625 -3.734375 C 7.460938 -3.617188 7.414062 -3.488281 7.375 -3.34375 C 7.34375 -3.195312 7.304688 -3.039062 7.265625 -2.875 C 7.222656 -2.71875 7.175781 -2.554688 7.125 -2.390625 C 7.070312 -2.234375 7 -2.082031 6.90625 -1.9375 L 8.34375 -0.625 L 7.65625 0.09375 L 6.375 -1.109375 C 6.039062 -0.734375 5.671875 -0.429688 5.265625 -0.203125 C 4.859375 0.0234375 4.359375 0.140625 3.765625 0.140625 C 3.398438 0.140625 3.054688 0.0859375 2.734375 -0.015625 C 2.410156 -0.128906 2.125 -0.285156 1.875 -0.484375 C 1.632812 -0.691406 1.441406 -0.9375 1.296875 -1.21875 C 1.160156 -1.5 1.09375 -1.8125 1.09375 -2.15625 C 1.09375 -2.664062 1.222656 -3.128906 1.484375 -3.546875 C 1.742188 -3.960938 2.171875 -4.332031 2.765625 -4.65625 Z M 2.765625 -4.65625 "/></g></g></g><g fill="#094c60" fill-opacity="1"><g transform="translate(92.770304, 304.54785)"><g/></g></g><g fill="#094c60" fill-opacity="1"><g transform="translate(98.841158, 304.54785)"><g><path d="M 1.09375 -8.46875 C 1.375 -8.5 1.722656 -8.523438 2.140625 -8.546875 C 2.554688 -8.578125 3.039062 -8.59375 3.59375 -8.59375 C 4.632812 -8.59375 5.429688 -8.398438 5.984375 -8.015625 C 6.546875 -7.628906 6.828125 -7.09375 6.828125 -6.40625 C 6.828125 -5.957031 6.707031 -5.578125 6.46875 -5.265625 C 6.238281 -4.960938 5.890625 -4.707031 5.421875 -4.5 C 5.972656 -4.3125 6.390625 -4.046875 6.671875 -3.703125 C 6.960938 -3.359375 7.109375 -2.929688 7.109375 -2.421875 C 7.109375 -1.648438 6.804688 -1.035156 6.203125 -0.578125 C 5.597656 -0.128906 4.710938 0.09375 3.546875 0.09375 C 3.046875 0.09375 2.578125 0.0820312 2.140625 0.0625 C 1.703125 0.0390625 1.351562 0.0078125 1.09375 -0.03125 Z M 3.625 -0.859375 C 4.351562 -0.859375 4.914062 -0.988281 5.3125 -1.25 C 5.71875 -1.507812 5.921875 -1.882812 5.921875 -2.375 C 5.921875 -2.863281 5.722656 -3.242188 5.328125 -3.515625 C 4.929688 -3.796875 4.363281 -3.9375 3.625 -3.9375 L 2.25 -3.9375 L 2.25 -0.9375 C 2.664062 -0.882812 3.125 -0.859375 3.625 -0.859375 Z M 3.578125 -4.828125 C 4.222656 -4.828125 4.734375 -4.957031 5.109375 -5.21875 C 5.484375 -5.488281 5.671875 -5.835938 5.671875 -6.265625 C 5.671875 -6.722656 5.484375 -7.066406 5.109375 -7.296875 C 4.734375 -7.535156 4.222656 -7.65625 3.578125 -7.65625 C 3.316406 -7.65625 3.078125 -7.648438 2.859375 -7.640625 C 2.640625 -7.628906 2.4375 -7.613281 2.25 -7.59375 L 2.25 -4.828125 Z M 3.578125 -4.828125 "/></g></g></g><g fill="#094c60" fill-opacity="1"><g transform="translate(108.918394, 304.54785)"><g><path d="M 0.609375 -4.265625 C 0.609375 -4.890625 0.695312 -5.46875 0.875 -6 C 1.0625 -6.53125 1.328125 -6.988281 1.671875 -7.375 C 2.015625 -7.769531 2.429688 -8.078125 2.921875 -8.296875 C 3.421875 -8.523438 3.984375 -8.640625 4.609375 -8.640625 C 5.234375 -8.640625 5.796875 -8.523438 6.296875 -8.296875 C 6.796875 -8.066406 7.21875 -7.753906 7.5625 -7.359375 C 7.90625 -6.960938 8.164062 -6.5 8.34375 -5.96875 C 8.53125 -5.4375 8.625 -4.867188 8.625 -4.265625 C 8.625 -3.648438 8.53125 -3.078125 8.34375 -2.546875 C 8.164062 -2.015625 7.90625 -1.546875 7.5625 -1.140625 C 7.21875 -0.742188 6.796875 -0.429688 6.296875 -0.203125 C 5.804688 0.0234375 5.242188 0.140625 4.609375 0.140625 C 3.984375 0.140625 3.421875 0.0234375 2.921875 -0.203125 C 2.429688 -0.429688 2.015625 -0.742188 1.671875 -1.140625 C 1.328125 -1.546875 1.0625 -2.015625 0.875 -2.546875 C 0.695312 -3.078125 0.609375 -3.648438 0.609375 -4.265625 Z M 1.78125 -4.265625 C 1.78125 -3.828125 1.84375 -3.398438 1.96875 -2.984375 C 2.09375 -2.578125 2.273438 -2.210938 2.515625 -1.890625 C 2.765625 -1.578125 3.066406 -1.320312 3.421875 -1.125 C 3.773438 -0.9375 4.171875 -0.84375 4.609375 -0.84375 C 5.078125 -0.84375 5.488281 -0.929688 5.84375 -1.109375 C 6.195312 -1.285156 6.492188 -1.523438 6.734375 -1.828125 C 6.972656 -2.128906 7.148438 -2.488281 7.265625 -2.90625 C 7.390625 -3.320312 7.453125 -3.773438 7.453125 -4.265625 C 7.453125 -4.703125 7.382812 -5.117188 7.25 -5.515625 C 7.125 -5.921875 6.941406 -6.28125 6.703125 -6.59375 C 6.460938 -6.914062 6.164062 -7.171875 5.8125 -7.359375 C 5.457031 -7.554688 5.054688 -7.65625 4.609375 -7.65625 C 4.171875 -7.65625 3.773438 -7.566406 3.421875 -7.390625 C 3.066406 -7.210938 2.765625 -6.972656 2.515625 -6.671875 C 2.273438 -6.367188 2.09375 -6.007812 1.96875 -5.59375 C 1.84375 -5.1875 1.78125 -4.742188 1.78125 -4.265625 Z M 1.78125 -4.265625 "/></g></g></g><g fill="#094c60" fill-opacity="1"><g transform="translate(120.586048, 304.54785)"><g><path d="M 6.046875 0.140625 L 4.984375 -2.15625 C 4.722656 -2.726562 4.390625 -3.132812 3.984375 -3.375 C 3.578125 -3.625 3.054688 -3.75 2.421875 -3.75 L 2.25 -3.75 L 2.25 0 L 1.09375 0 L 1.09375 -8.46875 C 1.53125 -8.507812 1.941406 -8.539062 2.328125 -8.5625 C 2.710938 -8.582031 3.128906 -8.59375 3.578125 -8.59375 C 4.097656 -8.59375 4.550781 -8.535156 4.9375 -8.421875 C 5.332031 -8.316406 5.65625 -8.160156 5.90625 -7.953125 C 6.164062 -7.753906 6.363281 -7.515625 6.5 -7.234375 C 6.632812 -6.960938 6.703125 -6.664062 6.703125 -6.34375 C 6.703125 -5.75 6.523438 -5.269531 6.171875 -4.90625 C 5.816406 -4.550781 5.3125 -4.285156 4.65625 -4.109375 C 4.8125 -4.035156 4.957031 -3.953125 5.09375 -3.859375 C 5.238281 -3.765625 5.367188 -3.648438 5.484375 -3.515625 C 5.609375 -3.378906 5.726562 -3.21875 5.84375 -3.03125 C 5.957031 -2.84375 6.078125 -2.617188 6.203125 -2.359375 L 7.125 -0.359375 Z M 3.578125 -7.625 C 3.304688 -7.625 3.0625 -7.617188 2.84375 -7.609375 C 2.625 -7.597656 2.425781 -7.585938 2.25 -7.578125 L 2.25 -4.71875 L 3.578125 -4.71875 C 4.160156 -4.71875 4.632812 -4.847656 5 -5.109375 C 5.363281 -5.367188 5.546875 -5.742188 5.546875 -6.234375 C 5.546875 -6.628906 5.375 -6.957031 5.03125 -7.21875 C 4.695312 -7.488281 4.210938 -7.625 3.578125 -7.625 Z M 3.578125 -7.625 "/></g></g></g><g fill="#094c60" fill-opacity="1"><g transform="translate(130.505457, 304.54785)"><g><path d="M 6.046875 0.140625 L 4.984375 -2.15625 C 4.722656 -2.726562 4.390625 -3.132812 3.984375 -3.375 C 3.578125 -3.625 3.054688 -3.75 2.421875 -3.75 L 2.25 -3.75 L 2.25 0 L 1.09375 0 L 1.09375 -8.46875 C 1.53125 -8.507812 1.941406 -8.539062 2.328125 -8.5625 C 2.710938 -8.582031 3.128906 -8.59375 3.578125 -8.59375 C 4.097656 -8.59375 4.550781 -8.535156 4.9375 -8.421875 C 5.332031 -8.316406 5.65625 -8.160156 5.90625 -7.953125 C 6.164062 -7.753906 6.363281 -7.515625 6.5 -7.234375 C 6.632812 -6.960938 6.703125 -6.664062 6.703125 -6.34375 C 6.703125 -5.75 6.523438 -5.269531 6.171875 -4.90625 C 5.816406 -4.550781 5.3125 -4.285156 4.65625 -4.109375 C 4.8125 -4.035156 4.957031 -3.953125 5.09375 -3.859375 C 5.238281 -3.765625 5.367188 -3.648438 5.484375 -3.515625 C 5.609375 -3.378906 5.726562 -3.21875 5.84375 -3.03125 C 5.957031 -2.84375 6.078125 -2.617188 6.203125 -2.359375 L 7.125 -0.359375 Z M 3.578125 -7.625 C 3.304688 -7.625 3.0625 -7.617188 2.84375 -7.609375 C 2.625 -7.597656 2.425781 -7.585938 2.25 -7.578125 L 2.25 -4.71875 L 3.578125 -4.71875 C 4.160156 -4.71875 4.632812 -4.847656 5 -5.109375 C 5.363281 -5.367188 5.546875 -5.742188 5.546875 -6.234375 C 5.546875 -6.628906 5.375 -6.957031 5.03125 -7.21875 C 4.695312 -7.488281 4.210938 -7.625 3.578125 -7.625 Z M 3.578125 -7.625 "/></g></g></g><g fill="#094c60" fill-opacity="1"><g transform="translate(140.424869, 304.54785)"><g><path d="M 0.609375 -4.265625 C 0.609375 -4.890625 0.695312 -5.46875 0.875 -6 C 1.0625 -6.53125 1.328125 -6.988281 1.671875 -7.375 C 2.015625 -7.769531 2.429688 -8.078125 2.921875 -8.296875 C 3.421875 -8.523438 3.984375 -8.640625 4.609375 -8.640625 C 5.234375 -8.640625 5.796875 -8.523438 6.296875 -8.296875 C 6.796875 -8.066406 7.21875 -7.753906 7.5625 -7.359375 C 7.90625 -6.960938 8.164062 -6.5 8.34375 -5.96875 C 8.53125 -5.4375 8.625 -4.867188 8.625 -4.265625 C 8.625 -3.648438 8.53125 -3.078125 8.34375 -2.546875 C 8.164062 -2.015625 7.90625 -1.546875 7.5625 -1.140625 C 7.21875 -0.742188 6.796875 -0.429688 6.296875 -0.203125 C 5.804688 0.0234375 5.242188 0.140625 4.609375 0.140625 C 3.984375 0.140625 3.421875 0.0234375 2.921875 -0.203125 C 2.429688 -0.429688 2.015625 -0.742188 1.671875 -1.140625 C 1.328125 -1.546875 1.0625 -2.015625 0.875 -2.546875 C 0.695312 -3.078125 0.609375 -3.648438 0.609375 -4.265625 Z M 1.78125 -4.265625 C 1.78125 -3.828125 1.84375 -3.398438 1.96875 -2.984375 C 2.09375 -2.578125 2.273438 -2.210938 2.515625 -1.890625 C 2.765625 -1.578125 3.066406 -1.320312 3.421875 -1.125 C 3.773438 -0.9375 4.171875 -0.84375 4.609375 -0.84375 C 5.078125 -0.84375 5.488281 -0.929688 5.84375 -1.109375 C 6.195312 -1.285156 6.492188 -1.523438 6.734375 -1.828125 C 6.972656 -2.128906 7.148438 -2.488281 7.265625 -2.90625 C 7.390625 -3.320312 7.453125 -3.773438 7.453125 -4.265625 C 7.453125 -4.703125 7.382812 -5.117188 7.25 -5.515625 C 7.125 -5.921875 6.941406 -6.28125 6.703125 -6.59375 C 6.460938 -6.914062 6.164062 -7.171875 5.8125 -7.359375 C 5.457031 -7.554688 5.054688 -7.65625 4.609375 -7.65625 C 4.171875 -7.65625 3.773438 -7.566406 3.421875 -7.390625 C 3.066406 -7.210938 2.765625 -6.972656 2.515625 -6.671875 C 2.273438 -6.367188 2.09375 -6.007812 1.96875 -5.59375 C 1.84375 -5.1875 1.78125 -4.742188 1.78125 -4.265625 Z M 1.78125 -4.265625 "/></g></g></g><g fill="#094c60" fill-opacity="1"><g transform="translate(152.092526, 304.54785)"><g><path d="M 0.1875 -8.21875 L 1.328125 -8.578125 L 3.234375 -1.21875 L 5.046875 -7.609375 L 6.5 -7.609375 L 8.296875 -1.21875 L 10.203125 -8.546875 L 11.265625 -8.21875 L 8.96875 0 L 7.546875 0 L 5.75 -6.390625 L 3.921875 0 L 2.484375 0 Z M 0.1875 -8.21875 "/></g></g></g><g fill="#094c60" fill-opacity="1"><g transform="translate(165.969762, 304.54785)"><g><path d="M 1.09375 0 L 1.09375 -8.5 L 2.25 -8.5 L 2.25 0 Z M 1.09375 0 "/></g></g></g><g fill="#094c60" fill-opacity="1"><g transform="translate(171.737098, 304.54785)"><g><path d="M 2.1875 -7.015625 L 2.1875 0 L 1.09375 0 L 1.09375 -8.5 L 2.625 -8.5 L 6.375 -1.4375 L 6.375 -8.5 L 7.46875 -8.5 L 7.46875 0 L 5.96875 0 Z M 2.1875 -7.015625 "/></g></g></g><g fill="#094c60" fill-opacity="1"><g transform="translate(182.724885, 304.54785)"><g><path d="M 4.546875 -4.5 L 7.390625 -4.5 L 7.390625 0 L 6.375 0 L 6.375 -0.84375 C 6.09375 -0.59375 5.75 -0.363281 5.34375 -0.15625 C 4.9375 0.0390625 4.488281 0.140625 4 0.140625 C 3.5 0.140625 3.039062 0.046875 2.625 -0.140625 C 2.21875 -0.335938 1.863281 -0.617188 1.5625 -0.984375 C 1.257812 -1.347656 1.023438 -1.785156 0.859375 -2.296875 C 0.691406 -2.816406 0.609375 -3.394531 0.609375 -4.03125 C 0.609375 -4.707031 0.691406 -5.328125 0.859375 -5.890625 C 1.035156 -6.453125 1.289062 -6.9375 1.625 -7.34375 C 1.957031 -7.757812 2.363281 -8.078125 2.84375 -8.296875 C 3.320312 -8.523438 3.867188 -8.640625 4.484375 -8.640625 C 5.023438 -8.640625 5.5 -8.570312 5.90625 -8.4375 C 6.3125 -8.3125 6.695312 -8.148438 7.0625 -7.953125 L 6.640625 -7 C 6.296875 -7.175781 5.953125 -7.328125 5.609375 -7.453125 C 5.265625 -7.578125 4.875 -7.640625 4.4375 -7.640625 C 4.050781 -7.640625 3.695312 -7.5625 3.375 -7.40625 C 3.050781 -7.25 2.769531 -7.019531 2.53125 -6.71875 C 2.300781 -6.425781 2.117188 -6.054688 1.984375 -5.609375 C 1.847656 -5.171875 1.78125 -4.671875 1.78125 -4.109375 C 1.78125 -3.597656 1.84375 -3.140625 1.96875 -2.734375 C 2.09375 -2.335938 2.257812 -2 2.46875 -1.71875 C 2.6875 -1.4375 2.945312 -1.222656 3.25 -1.078125 C 3.5625 -0.929688 3.898438 -0.859375 4.265625 -0.859375 C 4.484375 -0.859375 4.691406 -0.882812 4.890625 -0.9375 C 5.097656 -0.988281 5.285156 -1.054688 5.453125 -1.140625 C 5.628906 -1.234375 5.785156 -1.328125 5.921875 -1.421875 C 6.066406 -1.523438 6.191406 -1.628906 6.296875 -1.734375 L 6.296875 -3.59375 L 4.546875 -3.59375 Z M 4.546875 -4.5 "/></g></g></g><g fill="#094c60" fill-opacity="1"><g transform="translate(193.336304, 304.54785)"><g/></g></g><g fill="#094c60" fill-opacity="1"><g transform="translate(199.407154, 304.54785)"><g><path d="M 1.09375 -8.46875 C 1.4375 -8.507812 1.800781 -8.539062 2.1875 -8.5625 C 2.582031 -8.582031 3 -8.59375 3.4375 -8.59375 C 3.957031 -8.59375 4.425781 -8.523438 4.84375 -8.390625 C 5.257812 -8.265625 5.609375 -8.085938 5.890625 -7.859375 C 6.171875 -7.640625 6.382812 -7.367188 6.53125 -7.046875 C 6.675781 -6.722656 6.75 -6.378906 6.75 -6.015625 C 6.75 -5.554688 6.660156 -5.148438 6.484375 -4.796875 C 6.316406 -4.453125 6.078125 -4.15625 5.765625 -3.90625 C 5.453125 -3.664062 5.078125 -3.484375 4.640625 -3.359375 C 4.203125 -3.234375 3.71875 -3.171875 3.1875 -3.171875 C 2.851562 -3.171875 2.539062 -3.179688 2.25 -3.203125 L 2.25 0 L 1.09375 0 Z M 3.34375 -4.125 C 4.070312 -4.125 4.628906 -4.285156 5.015625 -4.609375 C 5.410156 -4.929688 5.609375 -5.363281 5.609375 -5.90625 C 5.609375 -6.4375 5.421875 -6.851562 5.046875 -7.15625 C 4.671875 -7.46875 4.125 -7.625 3.40625 -7.625 C 3.1875 -7.625 2.976562 -7.617188 2.78125 -7.609375 C 2.59375 -7.597656 2.414062 -7.585938 2.25 -7.578125 L 2.25 -4.1875 C 2.375 -4.175781 2.523438 -4.160156 2.703125 -4.140625 C 2.890625 -4.128906 3.101562 -4.125 3.34375 -4.125 Z M 3.34375 -4.125 "/></g></g></g><g fill="#094c60" fill-opacity="1"><g transform="translate(208.889498, 304.54785)"><g><path d="M 6.140625 0 L 1.09375 0 L 1.09375 -8.5 L 2.25 -8.5 L 2.25 -1.03125 L 6.140625 -1.03125 Z M 6.140625 0 "/></g></g></g><g fill="#094c60" fill-opacity="1"><g transform="translate(217.522005, 304.54785)"><g><path d="M 0.125 -0.296875 L 3.453125 -8.5 L 4.703125 -8.5 L 7.984375 -0.296875 L 6.9375 0.125 L 5.984375 -2.3125 L 2.046875 -2.3125 L 1.109375 0.09375 Z M 2.421875 -3.28125 L 5.609375 -3.28125 L 4.015625 -7.359375 Z M 2.421875 -3.28125 "/></g></g></g><g fill="#094c60" fill-opacity="1"><g transform="translate(228.060583, 304.54785)"><g><path d="M 0.125 -8.5 L 6.5 -8.5 L 6.5 -7.484375 L 3.890625 -7.484375 L 3.890625 0 L 2.734375 0 L 2.734375 -7.484375 L 0.125 -7.484375 Z M 0.125 -8.5 "/></g></g></g><g fill="#094c60" fill-opacity="1"><g transform="translate(237.105866, 304.54785)"><g><path d="M 1.09375 -8.5 L 6.125 -8.5 L 6.125 -7.5 L 2.25 -7.5 L 2.25 -4.90625 L 5.484375 -4.90625 L 5.484375 -3.953125 L 2.25 -3.953125 L 2.25 0 L 1.09375 0 Z M 1.09375 -8.5 "/></g></g></g><g fill="#094c60" fill-opacity="1"><g transform="translate(246.029751, 304.54785)"><g><path d="M 0.609375 -4.265625 C 0.609375 -4.890625 0.695312 -5.46875 0.875 -6 C 1.0625 -6.53125 1.328125 -6.988281 1.671875 -7.375 C 2.015625 -7.769531 2.429688 -8.078125 2.921875 -8.296875 C 3.421875 -8.523438 3.984375 -8.640625 4.609375 -8.640625 C 5.234375 -8.640625 5.796875 -8.523438 6.296875 -8.296875 C 6.796875 -8.066406 7.21875 -7.753906 7.5625 -7.359375 C 7.90625 -6.960938 8.164062 -6.5 8.34375 -5.96875 C 8.53125 -5.4375 8.625 -4.867188 8.625 -4.265625 C 8.625 -3.648438 8.53125 -3.078125 8.34375 -2.546875 C 8.164062 -2.015625 7.90625 -1.546875 7.5625 -1.140625 C 7.21875 -0.742188 6.796875 -0.429688 6.296875 -0.203125 C 5.804688 0.0234375 5.242188 0.140625 4.609375 0.140625 C 3.984375 0.140625 3.421875 0.0234375 2.921875 -0.203125 C 2.429688 -0.429688 2.015625 -0.742188 1.671875 -1.140625 C 1.328125 -1.546875 1.0625 -2.015625 0.875 -2.546875 C 0.695312 -3.078125 0.609375 -3.648438 0.609375 -4.265625 Z M 1.78125 -4.265625 C 1.78125 -3.828125 1.84375 -3.398438 1.96875 -2.984375 C 2.09375 -2.578125 2.273438 -2.210938 2.515625 -1.890625 C 2.765625 -1.578125 3.066406 -1.320312 3.421875 -1.125 C 3.773438 -0.9375 4.171875 -0.84375 4.609375 -0.84375 C 5.078125 -0.84375 5.488281 -0.929688 5.84375 -1.109375 C 6.195312 -1.285156 6.492188 -1.523438 6.734375 -1.828125 C 6.972656 -2.128906 7.148438 -2.488281 7.265625 -2.90625 C 7.390625 -3.320312 7.453125 -3.773438 7.453125 -4.265625 C 7.453125 -4.703125 7.382812 -5.117188 7.25 -5.515625 C 7.125 -5.921875 6.941406 -6.28125 6.703125 -6.59375 C 6.460938 -6.914062 6.164062 -7.171875 5.8125 -7.359375 C 5.457031 -7.554688 5.054688 -7.65625 4.609375 -7.65625 C 4.171875 -7.65625 3.773438 -7.566406 3.421875 -7.390625 C 3.066406 -7.210938 2.765625 -6.972656 2.515625 -6.671875 C 2.273438 -6.367188 2.09375 -6.007812 1.96875 -5.59375 C 1.84375 -5.1875 1.78125 -4.742188 1.78125 -4.265625 Z M 1.78125 -4.265625 "/></g></g></g><g fill="#094c60" fill-opacity="1"><g transform="translate(257.697402, 304.54785)"><g><path d="M 6.046875 0.140625 L 4.984375 -2.15625 C 4.722656 -2.726562 4.390625 -3.132812 3.984375 -3.375 C 3.578125 -3.625 3.054688 -3.75 2.421875 -3.75 L 2.25 -3.75 L 2.25 0 L 1.09375 0 L 1.09375 -8.46875 C 1.53125 -8.507812 1.941406 -8.539062 2.328125 -8.5625 C 2.710938 -8.582031 3.128906 -8.59375 3.578125 -8.59375 C 4.097656 -8.59375 4.550781 -8.535156 4.9375 -8.421875 C 5.332031 -8.316406 5.65625 -8.160156 5.90625 -7.953125 C 6.164062 -7.753906 6.363281 -7.515625 6.5 -7.234375 C 6.632812 -6.960938 6.703125 -6.664062 6.703125 -6.34375 C 6.703125 -5.75 6.523438 -5.269531 6.171875 -4.90625 C 5.816406 -4.550781 5.3125 -4.285156 4.65625 -4.109375 C 4.8125 -4.035156 4.957031 -3.953125 5.09375 -3.859375 C 5.238281 -3.765625 5.367188 -3.648438 5.484375 -3.515625 C 5.609375 -3.378906 5.726562 -3.21875 5.84375 -3.03125 C 5.957031 -2.84375 6.078125 -2.617188 6.203125 -2.359375 L 7.125 -0.359375 Z M 3.578125 -7.625 C 3.304688 -7.625 3.0625 -7.617188 2.84375 -7.609375 C 2.625 -7.597656 2.425781 -7.585938 2.25 -7.578125 L 2.25 -4.71875 L 3.578125 -4.71875 C 4.160156 -4.71875 4.632812 -4.847656 5 -5.109375 C 5.363281 -5.367188 5.546875 -5.742188 5.546875 -6.234375 C 5.546875 -6.628906 5.375 -6.957031 5.03125 -7.21875 C 4.695312 -7.488281 4.210938 -7.625 3.578125 -7.625 Z M 3.578125 -7.625 "/></g></g></g><g fill="#094c60" fill-opacity="1"><g transform="translate(267.616809, 304.54785)"><g><path d="M 7.875 -7.03125 L 5.609375 -1.921875 L 4.46875 -1.921875 L 2.1875 -7.03125 L 2.1875 0 L 1.09375 0 L 1.09375 -8.5 L 2.703125 -8.5 L 5.0625 -3.125 L 7.375 -8.5 L 9.03125 -8.5 L 9.03125 0 L 7.875 0 Z M 7.875 -7.03125 "/></g></g></g></svg>