<svg xmlns="http://www.w3.org/2000/svg" xmlns:xlink="http://www.w3.org/1999/xlink" width="500" zoomAndPan="magnify" viewBox="0 0 375 374.999991" height="500" preserveAspectRatio="xMidYMid meet" version="1.0"><defs><g/><clipPath id="id1"><path d="M 16.203125 75.558594 L 133.953125 75.558594 L 133.953125 221.058594 L 16.203125 221.058594 Z M 16.203125 75.558594 " clip-rule="nonzero"/></clipPath><clipPath id="id2"><path d="M 246.820312 75.558594 L 365.703125 75.558594 L 365.703125 221.058594 L 246.820312 221.058594 Z M 246.820312 75.558594 " clip-rule="nonzero"/></clipPath><clipPath id="id3"><path d="M 105 43 L 275.695312 43 L 275.695312 213.617188 L 105 213.617188 Z M 105 43 " clip-rule="nonzero"/></clipPath></defs><rect x="-37.5" width="450" fill="#ffffff" y="-37.499999" height="449.999989" fill-opacity="1"/><rect x="-37.5" width="450" fill="#def4ff" y="-37.499999" height="449.999989" fill-opacity="1"/><rect x="-37.5" width="450" fill="#ffffff" y="-37.499999" height="449.999989" fill-opacity="1"/><rect x="-37.5" width="450" fill="#def4ff" y="-37.499999" height="449.999989" fill-opacity="1"/><g clip-path="url(#id1)"><path fill="#ffffff" d="M 140.53125 153.453125 L 140.53125 218.140625 C 140.53125 219.753906 139.226562 221.058594 137.613281 221.058594 L 44.488281 221.058594 C 42.90625 221.058594 41.601562 219.753906 41.601562 218.140625 L 41.601562 153.453125 L 19.09375 153.453125 C 17.511719 153.453125 16.207031 152.148438 16.207031 150.570312 C 16.207031 149.679688 16.585938 148.925781 17.167969 148.375 L 86.855469 76.722656 C 87.992188 75.558594 89.8125 75.558594 90.945312 76.65625 L 165.035156 148.480469 C 166.167969 149.578125 166.203125 151.429688 165.066406 152.5625 C 164.519531 153.144531 163.761719 153.453125 163.007812 153.453125 Z M 76.238281 170.875 L 105.757812 170.875 C 107.371094 170.875 108.679688 172.179688 108.679688 173.792969 L 108.679688 174.03125 L 108.746094 215.226562 L 134.691406 215.226562 L 134.691406 150.570312 C 134.691406 148.960938 135.996094 147.65625 137.613281 147.65625 L 155.859375 147.65625 L 88.988281 82.828125 L 25.964844 147.65625 L 44.488281 147.65625 C 46.101562 147.65625 47.40625 148.960938 47.40625 150.570312 L 47.40625 215.226562 L 73.351562 215.226562 L 73.351562 173.792969 C 73.351562 172.179688 74.65625 170.910156 76.238281 170.910156 Z M 102.871094 176.707031 L 79.160156 176.707031 L 79.125 215.226562 L 102.972656 215.226562 Z M 102.871094 176.707031 " fill-opacity="1" fill-rule="nonzero"/></g><g clip-path="url(#id2)"><path fill="#ffffff" d="M 340.03125 153.453125 L 340.03125 218.140625 C 340.03125 219.753906 338.726562 221.058594 337.113281 221.058594 L 243.988281 221.058594 C 242.40625 221.058594 241.101562 219.753906 241.101562 218.140625 L 241.101562 153.453125 L 218.59375 153.453125 C 217.011719 153.453125 215.707031 152.148438 215.707031 150.570312 C 215.707031 149.679688 216.085938 148.925781 216.667969 148.375 L 286.355469 76.722656 C 287.492188 75.558594 289.3125 75.558594 290.445312 76.65625 L 364.535156 148.480469 C 365.667969 149.578125 365.703125 151.429688 364.566406 152.5625 C 364.019531 153.144531 363.261719 153.453125 362.507812 153.453125 Z M 275.738281 170.875 L 305.257812 170.875 C 306.871094 170.875 308.179688 172.179688 308.179688 173.792969 L 308.179688 174.03125 L 308.246094 215.226562 L 334.191406 215.226562 L 334.191406 150.570312 C 334.191406 148.960938 335.496094 147.65625 337.113281 147.65625 L 355.359375 147.65625 L 288.488281 82.828125 L 225.464844 147.65625 L 243.988281 147.65625 C 245.601562 147.65625 246.90625 148.960938 246.90625 150.570312 L 246.90625 215.226562 L 272.851562 215.226562 L 272.851562 173.792969 C 272.851562 172.179688 274.15625 170.910156 275.738281 170.910156 Z M 302.371094 176.707031 L 278.660156 176.707031 L 278.625 215.226562 L 302.472656 215.226562 Z M 302.371094 176.707031 " fill-opacity="1" fill-rule="nonzero"/></g><g clip-path="url(#id3)"><path fill="#ffffff" d="M 274.203125 145.707031 L 196.679688 81.847656 C 201.929688 77.226562 206.902344 72.324219 211.597656 67.144531 C 212.242188 66.300781 212.78125 65.398438 213.21875 64.429688 C 213.65625 63.464844 213.980469 62.460938 214.191406 61.421875 C 214.402344 60.378906 214.492188 59.332031 214.464844 58.269531 C 214.4375 57.207031 214.292969 56.164062 214.027344 55.136719 C 213.734375 53.980469 213.316406 52.871094 212.769531 51.808594 C 212.226562 50.75 211.570312 49.761719 210.800781 48.847656 C 210.03125 47.9375 209.171875 47.121094 208.21875 46.402344 C 207.265625 45.6875 206.242188 45.085938 205.152344 44.597656 C 203.953125 44.089844 202.703125 43.757812 201.410156 43.601562 C 200.113281 43.441406 198.824219 43.464844 197.535156 43.671875 C 196.246094 43.875 195.011719 44.253906 193.832031 44.808594 C 192.648438 45.359375 191.566406 46.0625 190.582031 46.921875 C 189.597656 46.066406 188.515625 45.363281 187.332031 44.8125 C 186.152344 44.261719 184.917969 43.882812 183.628906 43.679688 C 182.34375 43.472656 181.050781 43.449219 179.757812 43.605469 C 178.464844 43.761719 177.214844 44.09375 176.015625 44.597656 C 174.925781 45.085938 173.902344 45.6875 172.949219 46.402344 C 171.996094 47.121094 171.136719 47.9375 170.367188 48.847656 C 169.597656 49.761719 168.941406 50.75 168.394531 51.808594 C 167.851562 52.871094 167.433594 53.980469 167.140625 55.136719 C 166.875 56.164062 166.726562 57.207031 166.699219 58.269531 C 166.671875 59.332031 166.765625 60.378906 166.976562 61.421875 C 167.183594 62.460938 167.507812 63.464844 167.945312 64.429688 C 168.386719 65.398438 168.925781 66.300781 169.570312 67.144531 C 174.265625 72.324219 179.238281 77.226562 184.488281 81.847656 L 106.964844 145.707031 C 106.761719 145.871094 106.574219 146.058594 106.410156 146.261719 C 106.242188 146.464844 106.097656 146.679688 105.972656 146.914062 C 105.847656 147.144531 105.75 147.386719 105.671875 147.636719 C 105.597656 147.886719 105.546875 148.144531 105.519531 148.40625 C 105.492188 148.667969 105.492188 148.929688 105.519531 149.191406 C 105.546875 149.453125 105.597656 149.707031 105.671875 149.960938 C 105.75 150.210938 105.847656 150.453125 105.972656 150.683594 C 106.097656 150.917969 106.242188 151.132812 106.40625 151.335938 C 106.574219 151.539062 106.757812 151.726562 106.960938 151.890625 C 107.164062 152.058594 107.382812 152.203125 107.613281 152.328125 C 107.847656 152.453125 108.085938 152.550781 108.339844 152.628906 C 108.589844 152.707031 108.847656 152.757812 109.109375 152.78125 C 109.371094 152.808594 109.632812 152.808594 109.894531 152.78125 C 110.152344 152.757812 110.410156 152.707031 110.664062 152.628906 C 110.914062 152.554688 111.15625 152.453125 111.386719 152.332031 C 111.617188 152.207031 111.835938 152.0625 112.039062 151.894531 L 126.78125 139.746094 L 126.78125 209.59375 C 126.777344 209.859375 126.800781 210.117188 126.851562 210.378906 C 126.902344 210.636719 126.976562 210.886719 127.074219 211.132812 C 127.175781 211.375 127.296875 211.609375 127.441406 211.828125 C 127.585938 212.046875 127.753906 212.25 127.9375 212.4375 C 128.125 212.625 128.324219 212.792969 128.542969 212.9375 C 128.761719 213.085938 128.992188 213.210938 129.238281 213.3125 C 129.480469 213.414062 129.730469 213.488281 129.988281 213.539062 C 130.246094 213.59375 130.507812 213.617188 130.773438 213.617188 L 169.53125 213.617188 C 170.058594 213.617188 170.566406 213.515625 171.054688 213.3125 C 171.542969 213.109375 171.972656 212.820312 172.34375 212.449219 C 172.71875 212.074219 173.007812 211.644531 173.210938 211.15625 C 173.410156 210.667969 173.511719 210.160156 173.515625 209.632812 L 173.515625 175.820312 C 173.515625 175.261719 173.542969 174.703125 173.597656 174.148438 C 173.652344 173.589844 173.734375 173.039062 173.84375 172.488281 C 173.953125 171.941406 174.085938 171.398438 174.25 170.863281 C 174.410156 170.328125 174.601562 169.804688 174.8125 169.289062 C 175.027344 168.769531 175.265625 168.265625 175.53125 167.773438 C 175.792969 167.28125 176.082031 166.800781 176.390625 166.335938 C 176.703125 165.871094 177.035156 165.421875 177.390625 164.992188 C 177.742188 164.558594 178.117188 164.144531 178.515625 163.75 C 178.910156 163.355469 179.324219 162.980469 179.753906 162.625 C 180.1875 162.269531 180.636719 161.9375 181.101562 161.628906 C 181.566406 161.316406 182.042969 161.03125 182.539062 160.765625 C 183.03125 160.503906 183.535156 160.265625 184.050781 160.050781 C 184.566406 159.835938 185.09375 159.648438 185.628906 159.484375 C 186.164062 159.324219 186.707031 159.1875 187.253906 159.078125 C 187.800781 158.96875 188.355469 158.886719 188.910156 158.832031 C 189.46875 158.777344 190.023438 158.75 190.582031 158.75 C 191.144531 158.75 191.699219 158.777344 192.257812 158.832031 C 192.8125 158.886719 193.367188 158.96875 193.914062 159.078125 C 194.460938 159.1875 195.003906 159.324219 195.539062 159.484375 C 196.074219 159.648438 196.597656 159.835938 197.117188 160.050781 C 197.632812 160.265625 198.136719 160.503906 198.628906 160.765625 C 199.121094 161.03125 199.601562 161.316406 200.066406 161.628906 C 200.53125 161.9375 200.980469 162.269531 201.410156 162.625 C 201.84375 162.980469 202.257812 163.355469 202.652344 163.75 C 203.046875 164.144531 203.421875 164.558594 203.777344 164.992188 C 204.132812 165.421875 204.464844 165.871094 204.777344 166.335938 C 205.085938 166.800781 205.375 167.28125 205.636719 167.773438 C 205.902344 168.265625 206.140625 168.769531 206.351562 169.289062 C 206.566406 169.804688 206.753906 170.328125 206.917969 170.863281 C 207.078125 171.398438 207.214844 171.941406 207.324219 172.488281 C 207.433594 173.039062 207.515625 173.589844 207.570312 174.148438 C 207.625 174.703125 207.652344 175.261719 207.652344 175.820312 L 207.652344 209.59375 C 207.652344 210.121094 207.753906 210.628906 207.957031 211.117188 C 208.160156 211.605469 208.449219 212.035156 208.820312 212.410156 C 209.195312 212.78125 209.625 213.070312 210.113281 213.273438 C 210.601562 213.476562 211.109375 213.578125 211.636719 213.578125 L 250.394531 213.578125 C 250.65625 213.578125 250.917969 213.554688 251.171875 213.503906 C 251.429688 213.453125 251.679688 213.375 251.921875 213.277344 C 252.164062 213.175781 252.394531 213.054688 252.609375 212.90625 C 252.828125 212.761719 253.03125 212.597656 253.214844 212.414062 C 253.402344 212.226562 253.566406 212.027344 253.710938 211.808594 C 253.859375 211.589844 253.980469 211.363281 254.082031 211.121094 C 254.183594 210.878906 254.257812 210.628906 254.308594 210.371094 C 254.359375 210.117188 254.386719 209.855469 254.386719 209.59375 L 254.386719 139.714844 L 269.128906 151.863281 C 269.332031 152.03125 269.546875 152.175781 269.78125 152.300781 C 270.011719 152.421875 270.253906 152.523438 270.503906 152.597656 C 270.757812 152.675781 271.011719 152.726562 271.273438 152.75 C 271.535156 152.777344 271.796875 152.777344 272.058594 152.75 C 272.320312 152.722656 272.574219 152.671875 272.828125 152.597656 C 273.078125 152.519531 273.320312 152.417969 273.550781 152.296875 C 273.785156 152.171875 274 152.027344 274.203125 151.859375 C 274.40625 151.691406 274.589844 151.507812 274.757812 151.304688 C 274.925781 151.101562 275.070312 150.882812 275.191406 150.652344 C 275.316406 150.421875 275.417969 150.179688 275.492188 149.929688 C 275.570312 149.675781 275.621094 149.421875 275.644531 149.160156 C 275.671875 148.898438 275.671875 148.636719 275.644531 148.375 C 275.621094 148.113281 275.570312 147.855469 275.492188 147.605469 C 275.417969 147.355469 275.316406 147.113281 275.191406 146.882812 C 275.070312 146.648438 274.925781 146.433594 274.757812 146.230469 C 274.589844 146.027344 274.40625 145.839844 274.203125 145.675781 Z M 175.882812 62.269531 C 175.324219 61.523438 174.953125 60.691406 174.777344 59.773438 C 174.601562 58.855469 174.632812 57.945312 174.875 57.039062 C 175.183594 55.878906 175.726562 54.84375 176.507812 53.933594 C 177.289062 53.023438 178.230469 52.328125 179.332031 51.847656 C 183.378906 49.992188 186.722656 54.574219 187.496094 54.945312 C 187.683594 55.167969 187.894531 55.371094 188.125 55.550781 C 188.359375 55.730469 188.605469 55.878906 188.871094 56.003906 C 189.136719 56.128906 189.414062 56.222656 189.699219 56.285156 C 189.984375 56.351562 190.273438 56.382812 190.566406 56.382812 C 190.859375 56.382812 191.152344 56.351562 191.4375 56.285156 C 191.722656 56.222656 192 56.128906 192.265625 56.003906 C 192.53125 55.878906 192.777344 55.730469 193.011719 55.550781 C 193.242188 55.371094 193.453125 55.167969 193.640625 54.945312 C 193.6875 54.898438 197.839844 50.03125 201.820312 51.847656 C 202.917969 52.328125 203.863281 53.023438 204.644531 53.933594 C 205.425781 54.84375 205.96875 55.878906 206.273438 57.039062 C 206.515625 57.941406 206.550781 58.851562 206.375 59.769531 C 206.199219 60.6875 205.832031 61.519531 205.277344 62.269531 C 200.621094 67.300781 195.726562 72.085938 190.582031 76.617188 C 185.4375 72.085938 180.535156 67.304688 175.882812 62.269531 Z M 246.402344 205.601562 L 215.628906 205.601562 L 215.628906 175.820312 C 215.628906 175 215.589844 174.183594 215.507812 173.367188 C 215.425781 172.550781 215.308594 171.738281 215.148438 170.933594 C 214.988281 170.132812 214.785156 169.335938 214.546875 168.550781 C 214.308594 167.765625 214.035156 166.996094 213.71875 166.238281 C 213.40625 165.480469 213.054688 164.742188 212.667969 164.019531 C 212.28125 163.292969 211.859375 162.59375 211.40625 161.910156 C 210.949219 161.230469 210.460938 160.570312 209.941406 159.9375 C 209.421875 159.304688 208.871094 158.695312 208.289062 158.117188 C 207.710938 157.539062 207.101562 156.988281 206.46875 156.46875 C 205.835938 155.949219 205.175781 155.460938 204.496094 155.003906 C 203.8125 154.546875 203.109375 154.128906 202.386719 153.742188 C 201.664062 153.355469 200.921875 153.003906 200.164062 152.691406 C 199.40625 152.378906 198.636719 152.101562 197.851562 151.863281 C 197.066406 151.625 196.273438 151.425781 195.46875 151.265625 C 194.664062 151.105469 193.855469 150.988281 193.039062 150.90625 C 192.222656 150.824219 191.402344 150.785156 190.582031 150.785156 C 189.761719 150.785156 188.945312 150.824219 188.128906 150.90625 C 187.3125 150.988281 186.503906 151.105469 185.699219 151.265625 C 184.894531 151.425781 184.101562 151.625 183.316406 151.863281 C 182.53125 152.101562 181.757812 152.378906 181 152.691406 C 180.242188 153.003906 179.503906 153.355469 178.78125 153.742188 C 178.058594 154.128906 177.355469 154.546875 176.671875 155.003906 C 175.992188 155.460938 175.332031 155.949219 174.699219 156.46875 C 174.0625 156.988281 173.457031 157.539062 172.878906 158.117188 C 172.296875 158.695312 171.746094 159.304688 171.226562 159.9375 C 170.707031 160.570312 170.21875 161.230469 169.761719 161.910156 C 169.308594 162.59375 168.886719 163.292969 168.5 164.019531 C 168.113281 164.742188 167.761719 165.480469 167.445312 166.238281 C 167.132812 166.996094 166.855469 167.765625 166.617188 168.550781 C 166.378906 169.335938 166.179688 170.132812 166.019531 170.933594 C 165.859375 171.738281 165.738281 172.550781 165.660156 173.367188 C 165.578125 174.183594 165.539062 175 165.539062 175.820312 L 165.539062 205.601562 L 134.757812 205.601562 L 134.757812 133.148438 L 190.582031 87.15625 L 246.410156 133.148438 Z M 246.402344 205.601562 " fill-opacity="1" fill-rule="nonzero"/></g><g fill="#094c60" fill-opacity="1"><g transform="translate(49.766475, 220.770953)"><g><path d="M 2.6875 -5.421875 C 1.769531 -6.546875 1.3125 -7.554688 1.3125 -8.453125 C 1.3125 -9.347656 2.066406 -10.535156 3.578125 -12.015625 C 4.460938 -12.859375 5.394531 -13.28125 6.375 -13.28125 C 7.363281 -13.28125 8.734375 -12.398438 10.484375 -10.640625 C 10.972656 -10.046875 11.675781 -9.472656 12.59375 -8.921875 C 13.507812 -8.378906 14.351562 -8.109375 15.125 -8.109375 C 18.394531 -8.109375 20.03125 -9.445312 20.03125 -12.125 C 20.03125 -12.925781 19.582031 -13.597656 18.6875 -14.140625 C 17.789062 -14.691406 16.671875 -15.085938 15.328125 -15.328125 C 13.992188 -15.578125 12.554688 -15.972656 11.015625 -16.515625 C 9.472656 -17.066406 8.03125 -17.707031 6.6875 -18.4375 C 5.351562 -19.175781 4.238281 -20.34375 3.34375 -21.9375 C 2.445312 -23.539062 2 -25.46875 2 -27.71875 C 2 -30.8125 3.148438 -33.507812 5.453125 -35.8125 C 7.753906 -38.113281 10.890625 -39.265625 14.859375 -39.265625 C 16.972656 -39.265625 18.894531 -38.988281 20.625 -38.4375 C 22.363281 -37.894531 23.570312 -37.34375 24.25 -36.78125 L 25.5625 -35.78125 C 26.644531 -34.757812 27.1875 -33.898438 27.1875 -33.203125 C 27.1875 -32.503906 26.769531 -31.535156 25.9375 -30.296875 C 24.738281 -28.546875 23.503906 -27.671875 22.234375 -27.671875 C 21.503906 -27.671875 20.59375 -28.019531 19.5 -28.71875 C 19.394531 -28.789062 19.191406 -28.96875 18.890625 -29.25 C 18.597656 -29.53125 18.328125 -29.757812 18.078125 -29.9375 C 17.335938 -30.394531 16.394531 -30.625 15.25 -30.625 C 14.113281 -30.625 13.164062 -30.347656 12.40625 -29.796875 C 11.65625 -29.253906 11.28125 -28.5 11.28125 -27.53125 C 11.28125 -26.570312 11.726562 -25.789062 12.625 -25.1875 C 13.519531 -24.59375 14.632812 -24.1875 15.96875 -23.96875 C 17.300781 -23.757812 18.757812 -23.4375 20.34375 -23 C 21.925781 -22.5625 23.382812 -22.023438 24.71875 -21.390625 C 26.050781 -20.765625 27.164062 -19.671875 28.0625 -18.109375 C 28.957031 -16.546875 29.40625 -14.617188 29.40625 -12.328125 C 29.40625 -10.046875 28.945312 -8.035156 28.03125 -6.296875 C 27.125 -4.554688 25.929688 -3.210938 24.453125 -2.265625 C 21.609375 -0.398438 18.570312 0.53125 15.34375 0.53125 C 13.6875 0.53125 12.117188 0.328125 10.640625 -0.078125 C 9.171875 -0.484375 7.976562 -0.984375 7.0625 -1.578125 C 5.195312 -2.703125 3.894531 -3.789062 3.15625 -4.84375 Z M 2.6875 -5.421875 "/></g></g></g><g fill="#094c60" fill-opacity="1"><g transform="translate(81.280829, 220.770953)"><g><path d="M 1.3125 -13.859375 C 1.3125 -18.078125 2.785156 -21.554688 5.734375 -24.296875 C 8.691406 -27.035156 12.066406 -28.40625 15.859375 -28.40625 C 19.660156 -28.40625 23.015625 -27.039062 25.921875 -24.3125 C 28.835938 -21.59375 30.296875 -18.125 30.296875 -13.90625 C 30.296875 -11 29.539062 -8.410156 28.03125 -6.140625 C 26.519531 -3.867188 24.6875 -2.195312 22.53125 -1.125 C 20.375 -0.0625 18.132812 0.46875 15.8125 0.46875 C 13.488281 0.46875 11.238281 -0.0976562 9.0625 -1.234375 C 6.882812 -2.378906 5.046875 -4.066406 3.546875 -6.296875 C 2.054688 -8.523438 1.3125 -11.046875 1.3125 -13.859375 Z M 12.328125 -10.09375 C 13.453125 -9.226562 14.59375 -8.796875 15.75 -8.796875 C 16.914062 -8.796875 18.078125 -9.234375 19.234375 -10.109375 C 20.390625 -10.992188 20.96875 -12.296875 20.96875 -14.015625 C 20.96875 -15.734375 20.421875 -17.015625 19.328125 -17.859375 C 18.242188 -18.703125 17.066406 -19.125 15.796875 -19.125 C 14.535156 -19.125 13.359375 -18.6875 12.265625 -17.8125 C 11.179688 -16.9375 10.640625 -15.644531 10.640625 -13.9375 C 10.640625 -12.238281 11.203125 -10.957031 12.328125 -10.09375 Z M 12.328125 -10.09375 "/></g></g></g><g fill="#094c60" fill-opacity="1"><g transform="translate(113.691073, 220.770953)"><g><path d="M 11.171875 -24.078125 C 12.828125 -26.578125 14.8125 -27.828125 17.125 -27.828125 C 20.707031 -27.828125 23.378906 -26.296875 25.140625 -23.234375 C 25.523438 -23.765625 25.988281 -24.316406 26.53125 -24.890625 C 27.082031 -25.472656 27.953125 -26.109375 29.140625 -26.796875 C 30.335938 -27.484375 31.566406 -27.828125 32.828125 -27.828125 C 35.640625 -27.828125 37.992188 -26.742188 39.890625 -24.578125 C 41.796875 -22.421875 42.75 -18.847656 42.75 -13.859375 L 42.75 -4.640625 C 42.75 -3.828125 42.71875 -3.21875 42.65625 -2.8125 C 42.601562 -2.414062 42.4375 -1.953125 42.15625 -1.421875 C 41.707031 -0.472656 40.359375 0 38.109375 0 C 35.890625 0 34.535156 -0.488281 34.046875 -1.46875 C 33.796875 -2 33.644531 -2.46875 33.59375 -2.875 C 33.539062 -3.28125 33.515625 -3.882812 33.515625 -4.6875 L 33.515625 -13.90625 C 33.515625 -16.96875 32.425781 -18.5 30.25 -18.5 C 29.019531 -18.5 28.1875 -18.09375 27.75 -17.28125 C 27.3125 -16.476562 27.09375 -15.335938 27.09375 -13.859375 L 27.09375 -4.640625 C 27.09375 -3.796875 27.066406 -3.179688 27.015625 -2.796875 C 26.960938 -2.410156 26.796875 -1.953125 26.515625 -1.421875 C 26.015625 -0.472656 24.644531 0 22.40625 0 C 20.1875 0 18.832031 -0.488281 18.34375 -1.46875 C 18.09375 -2 17.941406 -2.46875 17.890625 -2.875 C 17.835938 -3.28125 17.8125 -3.882812 17.8125 -4.6875 L 17.8125 -13.90625 C 17.8125 -16.96875 16.722656 -18.5 14.546875 -18.5 C 12.441406 -18.5 11.390625 -16.96875 11.390625 -13.90625 L 11.390625 -4.578125 C 11.390625 -3.773438 11.359375 -3.171875 11.296875 -2.765625 C 11.242188 -2.359375 11.078125 -1.894531 10.796875 -1.375 C 10.273438 -0.457031 8.90625 0 6.6875 0 C 4.476562 0 3.128906 -0.472656 2.640625 -1.421875 C 2.390625 -1.953125 2.238281 -2.410156 2.1875 -2.796875 C 2.132812 -3.179688 2.109375 -3.796875 2.109375 -4.640625 L 2.109375 -23.1875 C 2.109375 -24 2.132812 -24.601562 2.1875 -25 C 2.238281 -25.40625 2.40625 -25.859375 2.6875 -26.359375 C 3.21875 -27.304688 4.460938 -27.78125 6.421875 -27.78125 C 8.390625 -27.78125 9.671875 -27.460938 10.265625 -26.828125 C 10.867188 -26.191406 11.171875 -25.273438 11.171875 -24.078125 Z M 11.171875 -24.078125 "/></g></g></g><g fill="#094c60" fill-opacity="1"><g transform="translate(159.328815, 220.770953)"><g><path d="M 28.875 -17.203125 C 28.875 -15.046875 28.335938 -13.445312 27.265625 -12.40625 C 26.203125 -11.375 25.019531 -10.859375 23.71875 -10.859375 L 11.21875 -10.859375 C 11.21875 -9.867188 11.796875 -9.039062 12.953125 -8.375 C 14.117188 -7.707031 15.28125 -7.375 16.4375 -7.375 C 18.476562 -7.375 20.078125 -7.585938 21.234375 -8.015625 L 21.8125 -8.21875 C 22.65625 -8.601562 23.359375 -8.796875 23.921875 -8.796875 C 25.046875 -8.796875 26.015625 -8.007812 26.828125 -6.4375 C 27.285156 -5.476562 27.515625 -4.664062 27.515625 -4 C 27.515625 -0.875 23.769531 0.6875 16.28125 0.6875 C 13.6875 0.6875 11.378906 0.238281 9.359375 -0.65625 C 7.335938 -1.550781 5.765625 -2.738281 4.640625 -4.21875 C 2.421875 -7.0625 1.3125 -10.238281 1.3125 -13.75 C 1.3125 -18.175781 2.742188 -21.71875 5.609375 -24.375 C 8.472656 -27.03125 12.050781 -28.359375 16.34375 -28.359375 C 21.21875 -28.359375 24.800781 -26.632812 27.09375 -23.1875 C 28.28125 -21.363281 28.875 -19.367188 28.875 -17.203125 Z M 17.765625 -15.65625 C 19.097656 -15.65625 19.765625 -16.21875 19.765625 -17.34375 C 19.765625 -18.144531 19.457031 -18.789062 18.84375 -19.28125 C 18.226562 -19.78125 17.347656 -20.03125 16.203125 -20.03125 C 15.066406 -20.03125 13.9375 -19.5625 12.8125 -18.625 C 11.6875 -17.695312 11.125 -16.707031 11.125 -15.65625 Z M 17.765625 -15.65625 "/></g></g></g><g fill="#094c60" fill-opacity="1"><g transform="translate(190.316186, 220.770953)"><g><path d="M 18.234375 -18.453125 L 14.8125 -18.65625 L 14.8125 -11.390625 C 14.8125 -10.429688 14.957031 -9.742188 15.25 -9.328125 C 15.550781 -8.910156 16.113281 -8.703125 16.9375 -8.703125 C 17.769531 -8.703125 18.40625 -8.671875 18.84375 -8.609375 C 19.28125 -8.554688 19.742188 -8.390625 20.234375 -8.109375 C 21.046875 -7.660156 21.453125 -6.484375 21.453125 -4.578125 C 21.453125 -2.367188 20.957031 -1.019531 19.96875 -0.53125 C 19.445312 -0.28125 18.984375 -0.128906 18.578125 -0.078125 C 18.171875 -0.0234375 17.582031 0 16.8125 0 C 13.15625 0 10.378906 -0.820312 8.484375 -2.46875 C 6.585938 -4.125 5.640625 -6.921875 5.640625 -10.859375 L 5.640625 -18.65625 C 4.972656 -18.550781 4.25 -18.5 3.46875 -18.5 C 2.695312 -18.5 2.054688 -18.796875 1.546875 -19.390625 C 1.046875 -19.992188 0.796875 -21.015625 0.796875 -22.453125 C 0.796875 -23.890625 0.878906 -24.929688 1.046875 -25.578125 C 1.222656 -26.234375 1.472656 -26.703125 1.796875 -26.984375 C 2.359375 -27.441406 3.0625 -27.671875 3.90625 -27.671875 L 5.640625 -27.453125 L 5.640625 -32.890625 C 5.640625 -33.691406 5.664062 -34.285156 5.71875 -34.671875 C 5.769531 -35.066406 5.9375 -35.488281 6.21875 -35.9375 C 6.675781 -36.820312 8.03125 -37.265625 10.28125 -37.265625 C 12.664062 -37.265625 14.085938 -36.613281 14.546875 -35.3125 C 14.722656 -34.75 14.8125 -33.851562 14.8125 -32.625 L 14.8125 -27.453125 C 16.351562 -27.597656 17.519531 -27.671875 18.3125 -27.671875 C 19.101562 -27.671875 19.703125 -27.644531 20.109375 -27.59375 C 20.515625 -27.539062 20.976562 -27.375 21.5 -27.09375 C 22.414062 -26.632812 22.875 -25.28125 22.875 -23.03125 C 22.875 -20.820312 22.398438 -19.46875 21.453125 -18.96875 C 20.921875 -18.726562 20.453125 -18.582031 20.046875 -18.53125 C 19.648438 -18.476562 19.046875 -18.453125 18.234375 -18.453125 Z M 18.234375 -18.453125 "/></g></g></g><g fill="#094c60" fill-opacity="1"><g transform="translate(214.768867, 220.770953)"><g><path d="M 17.5 -27.671875 C 21.007812 -27.671875 23.929688 -26.332031 26.265625 -23.65625 C 28.609375 -20.988281 29.78125 -17.722656 29.78125 -13.859375 L 29.78125 -4.578125 C 29.78125 -3.773438 29.753906 -3.171875 29.703125 -2.765625 C 29.648438 -2.359375 29.484375 -1.894531 29.203125 -1.375 C 28.742188 -0.457031 27.390625 0 25.140625 0 C 22.992188 0 21.660156 -0.457031 21.140625 -1.375 C 20.859375 -1.894531 20.6875 -2.363281 20.625 -2.78125 C 20.570312 -3.207031 20.546875 -3.84375 20.546875 -4.6875 L 20.546875 -13.90625 C 20.546875 -15.351562 20.140625 -16.476562 19.328125 -17.28125 C 18.523438 -18.09375 17.5 -18.5 16.25 -18.5 C 15.007812 -18.5 13.914062 -18.117188 12.96875 -17.359375 C 12.019531 -16.609375 11.472656 -15.757812 11.328125 -14.8125 L 11.328125 -4.578125 C 11.328125 -3.773438 11.300781 -3.171875 11.25 -2.765625 C 11.195312 -2.359375 11.03125 -1.894531 10.75 -1.375 C 10.289062 -0.457031 8.9375 0 6.6875 0 C 4.476562 0 3.128906 -0.472656 2.640625 -1.421875 C 2.390625 -1.953125 2.238281 -2.410156 2.1875 -2.796875 C 2.132812 -3.179688 2.109375 -3.796875 2.109375 -4.640625 L 2.109375 -36.15625 C 2.109375 -36.957031 2.132812 -37.5625 2.1875 -37.96875 C 2.238281 -38.375 2.390625 -38.820312 2.640625 -39.3125 C 3.128906 -40.257812 4.5 -40.734375 6.75 -40.734375 C 8.957031 -40.734375 10.289062 -40.257812 10.75 -39.3125 C 11.03125 -38.789062 11.195312 -38.328125 11.25 -37.921875 C 11.300781 -37.515625 11.328125 -36.910156 11.328125 -36.109375 L 11.328125 -24.453125 C 13.085938 -26.597656 15.144531 -27.671875 17.5 -27.671875 Z M 17.5 -27.671875 "/></g></g></g><g fill="#094c60" fill-opacity="1"><g transform="translate(247.442617, 220.770953)"><g><path d="M 2.109375 -23.140625 C 2.109375 -23.941406 2.132812 -24.546875 2.1875 -24.953125 C 2.238281 -25.359375 2.390625 -25.828125 2.640625 -26.359375 C 3.128906 -27.265625 4.5 -27.71875 6.75 -27.71875 C 8.4375 -27.71875 9.628906 -27.421875 10.328125 -26.828125 C 10.921875 -26.335938 11.238281 -25.582031 11.28125 -24.5625 C 11.3125 -24.207031 11.328125 -23.695312 11.328125 -23.03125 L 11.328125 -4.578125 C 11.328125 -3.773438 11.300781 -3.171875 11.25 -2.765625 C 11.195312 -2.359375 11.03125 -1.894531 10.75 -1.375 C 10.289062 -0.457031 8.9375 0 6.6875 0 C 4.476562 0 3.128906 -0.472656 2.640625 -1.421875 C 2.390625 -1.953125 2.238281 -2.410156 2.1875 -2.796875 C 2.132812 -3.179688 2.109375 -3.796875 2.109375 -4.640625 Z M 10.765625 -32.90625 C 10.503906 -32.40625 10.039062 -32.046875 9.375 -31.828125 C 8.707031 -31.617188 7.820312 -31.515625 6.71875 -31.515625 C 5.613281 -31.515625 4.726562 -31.617188 4.0625 -31.828125 C 3.394531 -32.046875 2.925781 -32.414062 2.65625 -32.9375 C 2.394531 -33.46875 2.238281 -33.929688 2.1875 -34.328125 C 2.132812 -34.734375 2.109375 -35.335938 2.109375 -36.140625 C 2.109375 -36.953125 2.132812 -37.5625 2.1875 -37.96875 C 2.238281 -38.375 2.390625 -38.820312 2.640625 -39.3125 C 3.128906 -40.257812 4.5 -40.734375 6.75 -40.734375 C 8.957031 -40.734375 10.289062 -40.257812 10.75 -39.3125 C 11.03125 -38.789062 11.195312 -38.328125 11.25 -37.921875 C 11.300781 -37.515625 11.328125 -36.90625 11.328125 -36.09375 C 11.328125 -35.289062 11.300781 -34.6875 11.25 -34.28125 C 11.195312 -33.875 11.035156 -33.414062 10.765625 -32.90625 Z M 10.765625 -32.90625 "/></g></g></g><g fill="#094c60" fill-opacity="1"><g transform="translate(261.67165, 220.770953)"><g><path d="M 17.546875 -27.78125 C 21.066406 -27.78125 23.992188 -26.4375 26.328125 -23.75 C 28.660156 -21.0625 29.828125 -17.78125 29.828125 -13.90625 L 29.828125 -4.640625 C 29.828125 -3.828125 29.800781 -3.21875 29.75 -2.8125 C 29.695312 -2.414062 29.546875 -1.96875 29.296875 -1.46875 C 28.804688 -0.519531 27.4375 -0.046875 25.1875 -0.046875 C 22.695312 -0.046875 21.257812 -0.695312 20.875 -2 C 20.65625 -2.601562 20.546875 -3.5 20.546875 -4.6875 L 20.546875 -13.96875 C 20.546875 -15.40625 20.132812 -16.523438 19.3125 -17.328125 C 18.488281 -18.140625 17.378906 -18.546875 15.984375 -18.546875 C 14.597656 -18.546875 13.472656 -18.125 12.609375 -17.28125 C 11.753906 -16.4375 11.328125 -15.332031 11.328125 -13.96875 L 11.328125 -4.640625 C 11.328125 -3.828125 11.300781 -3.21875 11.25 -2.8125 C 11.195312 -2.414062 11.03125 -1.96875 10.75 -1.46875 C 10.289062 -0.519531 8.9375 -0.046875 6.6875 -0.046875 C 4.476562 -0.046875 3.128906 -0.519531 2.640625 -1.46875 C 2.390625 -2 2.238281 -2.46875 2.1875 -2.875 C 2.132812 -3.28125 2.109375 -3.882812 2.109375 -4.6875 L 2.109375 -23.34375 C 2.109375 -24.113281 2.132812 -24.703125 2.1875 -25.109375 C 2.238281 -25.515625 2.40625 -25.960938 2.6875 -26.453125 C 3.175781 -27.335938 4.53125 -27.78125 6.75 -27.78125 C 8.882812 -27.78125 10.203125 -27.375 10.703125 -26.5625 C 11.046875 -25.96875 11.21875 -25.25 11.21875 -24.40625 C 11.363281 -24.644531 11.679688 -24.992188 12.171875 -25.453125 C 12.660156 -25.910156 13.132812 -26.28125 13.59375 -26.5625 C 14.789062 -27.375 16.109375 -27.78125 17.546875 -27.78125 Z M 17.546875 -27.78125 "/></g></g></g><g fill="#094c60" fill-opacity="1"><g transform="translate(294.398089, 220.770953)"><g><path d="M 19.71875 -3.484375 C 18.375 -1.722656 16.242188 -0.84375 13.328125 -0.84375 C 10.410156 -0.84375 7.675781 -2.1875 5.125 -4.875 C 2.582031 -7.5625 1.3125 -10.695312 1.3125 -14.28125 C 1.3125 -17.863281 2.59375 -21.007812 5.15625 -23.71875 C 7.726562 -26.425781 10.539062 -27.78125 13.59375 -27.78125 C 14.789062 -27.78125 15.878906 -27.554688 16.859375 -27.109375 C 17.847656 -26.671875 18.523438 -26.265625 18.890625 -25.890625 C 19.265625 -25.523438 19.554688 -25.1875 19.765625 -24.875 C 19.867188 -25.863281 20.226562 -26.609375 20.84375 -27.109375 C 21.457031 -27.617188 22.445312 -27.875 23.8125 -27.875 C 25.1875 -27.875 26.191406 -27.769531 26.828125 -27.5625 C 27.460938 -27.351562 27.910156 -26.992188 28.171875 -26.484375 C 28.429688 -25.972656 28.585938 -25.523438 28.640625 -25.140625 C 28.691406 -24.753906 28.71875 -24.15625 28.71875 -23.34375 L 28.71875 -1.53125 C 28.71875 2.507812 27.3125 5.769531 24.5 8.25 C 21.695312 10.726562 18.535156 11.96875 15.015625 11.96875 C 12.347656 11.96875 9.800781 11.316406 7.375 10.015625 C 4.945312 8.710938 3.734375 7.535156 3.734375 6.484375 C 3.734375 5.109375 4.265625 3.894531 5.328125 2.84375 C 5.992188 2.101562 6.507812 1.59375 6.875 1.3125 C 7.25 1.03125 7.679688 0.890625 8.171875 0.890625 C 8.660156 0.890625 9.171875 1.101562 9.703125 1.53125 C 11.390625 2.832031 13.210938 3.484375 15.171875 3.484375 C 16.515625 3.484375 17.609375 2.953125 18.453125 1.890625 C 19.296875 0.835938 19.71875 -0.421875 19.71875 -1.890625 Z M 10.328125 -14.25 C 10.328125 -13.113281 10.773438 -12.085938 11.671875 -11.171875 C 12.566406 -10.253906 13.65625 -9.796875 14.9375 -9.796875 C 16.21875 -9.796875 17.28125 -10.257812 18.125 -11.1875 C 18.96875 -12.125 19.390625 -13.144531 19.390625 -14.25 C 19.390625 -15.363281 18.984375 -16.398438 18.171875 -17.359375 C 17.367188 -18.328125 16.28125 -18.8125 14.90625 -18.8125 C 13.539062 -18.8125 12.4375 -18.335938 11.59375 -17.390625 C 10.75 -16.441406 10.328125 -15.394531 10.328125 -14.25 Z M 10.328125 -14.25 "/></g></g></g><g fill="#094c60" fill-opacity="1"><g transform="translate(60.254755, 266.52095)"><g><path d="M 29.625 -20.71875 C 31.695312 -18.25 32.734375 -15.488281 32.734375 -12.4375 C 32.660156 -8.925781 31.453125 -5.984375 29.109375 -3.609375 C 26.773438 -1.234375 23.941406 -0.046875 20.609375 -0.046875 L 6.75 -0.046875 C 4.289062 -0.046875 2.847656 -0.71875 2.421875 -2.0625 C 2.210938 -2.65625 2.109375 -3.566406 2.109375 -4.796875 L 2.109375 -34.046875 C 2.109375 -34.890625 2.132812 -35.503906 2.1875 -35.890625 C 2.238281 -36.273438 2.40625 -36.734375 2.6875 -37.265625 C 3.175781 -38.210938 4.546875 -38.6875 6.796875 -38.6875 L 20.078125 -38.6875 C 23.304688 -38.6875 26.015625 -37.5625 28.203125 -35.3125 C 30.484375 -33.03125 31.625 -30.289062 31.625 -27.09375 C 31.625 -24.769531 30.957031 -22.644531 29.625 -20.71875 Z M 23.40625 -12.96875 C 23.40625 -13.8125 23.304688 -14.476562 23.109375 -14.96875 C 22.921875 -15.457031 22.597656 -15.804688 22.140625 -16.015625 C 21.429688 -16.296875 20.441406 -16.4375 19.171875 -16.4375 C 17.910156 -16.4375 16.960938 -16.679688 16.328125 -17.171875 C 15.703125 -17.671875 15.390625 -18.679688 15.390625 -20.203125 C 15.390625 -21.734375 15.710938 -22.742188 16.359375 -23.234375 C 17.015625 -23.734375 18.097656 -23.984375 19.609375 -23.984375 C 21.015625 -23.984375 21.859375 -24.351562 22.140625 -25.09375 C 22.242188 -25.476562 22.296875 -26.109375 22.296875 -26.984375 C 22.296875 -27.859375 22.003906 -28.472656 21.421875 -28.828125 C 20.835938 -29.179688 19.96875 -29.359375 18.8125 -29.359375 L 11.4375 -29.359375 L 11.4375 -9.375 L 20.078125 -9.375 C 22.296875 -9.375 23.40625 -10.570312 23.40625 -12.96875 Z M 23.40625 -12.96875 "/></g></g></g><g fill="#094c60" fill-opacity="1"><g transform="translate(95.089167, 266.52095)"><g><path d="M 1.3125 -13.859375 C 1.3125 -18.078125 2.785156 -21.554688 5.734375 -24.296875 C 8.691406 -27.035156 12.066406 -28.40625 15.859375 -28.40625 C 19.660156 -28.40625 23.015625 -27.039062 25.921875 -24.3125 C 28.835938 -21.59375 30.296875 -18.125 30.296875 -13.90625 C 30.296875 -11 29.539062 -8.410156 28.03125 -6.140625 C 26.519531 -3.867188 24.6875 -2.195312 22.53125 -1.125 C 20.375 -0.0625 18.132812 0.46875 15.8125 0.46875 C 13.488281 0.46875 11.238281 -0.0976562 9.0625 -1.234375 C 6.882812 -2.378906 5.046875 -4.066406 3.546875 -6.296875 C 2.054688 -8.523438 1.3125 -11.046875 1.3125 -13.859375 Z M 12.328125 -10.09375 C 13.453125 -9.226562 14.59375 -8.796875 15.75 -8.796875 C 16.914062 -8.796875 18.078125 -9.234375 19.234375 -10.109375 C 20.390625 -10.992188 20.96875 -12.296875 20.96875 -14.015625 C 20.96875 -15.734375 20.421875 -17.015625 19.328125 -17.859375 C 18.242188 -18.703125 17.066406 -19.125 15.796875 -19.125 C 14.535156 -19.125 13.359375 -18.6875 12.265625 -17.8125 C 11.179688 -16.9375 10.640625 -15.644531 10.640625 -13.9375 C 10.640625 -12.238281 11.203125 -10.957031 12.328125 -10.09375 Z M 12.328125 -10.09375 "/></g></g></g><g fill="#094c60" fill-opacity="1"><g transform="translate(127.49941, 266.52095)"><g><path d="M 20.96875 -27.453125 C 21.644531 -27.242188 22.203125 -26.882812 22.640625 -26.375 C 23.078125 -25.863281 23.296875 -25.046875 23.296875 -23.921875 C 23.296875 -22.796875 22.960938 -21.566406 22.296875 -20.234375 C 21.628906 -18.898438 20.660156 -18.234375 19.390625 -18.234375 C 18.765625 -18.234375 18.160156 -18.375 17.578125 -18.65625 C 16.992188 -18.9375 16.226562 -19.078125 15.28125 -19.078125 C 14.332031 -19.078125 13.445312 -18.742188 12.625 -18.078125 C 11.800781 -17.410156 11.390625 -16.601562 11.390625 -15.65625 L 11.390625 -4.578125 C 11.390625 -3.773438 11.359375 -3.171875 11.296875 -2.765625 C 11.242188 -2.359375 11.078125 -1.894531 10.796875 -1.375 C 10.273438 -0.457031 8.90625 0 6.6875 0 C 5 0 3.789062 -0.296875 3.0625 -0.890625 C 2.5 -1.390625 2.179688 -2.144531 2.109375 -3.15625 C 2.109375 -3.507812 2.109375 -4.019531 2.109375 -4.6875 L 2.109375 -23.1875 C 2.109375 -24 2.132812 -24.601562 2.1875 -25 C 2.238281 -25.40625 2.390625 -25.859375 2.640625 -26.359375 C 3.128906 -27.304688 4.5 -27.78125 6.75 -27.78125 C 8.851562 -27.78125 10.171875 -27.375 10.703125 -26.5625 C 11.085938 -26 11.28125 -25.421875 11.28125 -24.828125 C 11.457031 -25.066406 11.710938 -25.363281 12.046875 -25.71875 C 12.378906 -26.070312 13.085938 -26.546875 14.171875 -27.140625 C 15.265625 -27.734375 16.222656 -28.03125 17.046875 -28.03125 C 17.867188 -28.03125 18.5625 -27.988281 19.125 -27.90625 C 19.6875 -27.820312 20.300781 -27.671875 20.96875 -27.453125 Z M 20.96875 -27.453125 "/></g></g></g><g fill="#094c60" fill-opacity="1"><g transform="translate(152.373675, 266.52095)"><g><path d="M 20.96875 -27.453125 C 21.644531 -27.242188 22.203125 -26.882812 22.640625 -26.375 C 23.078125 -25.863281 23.296875 -25.046875 23.296875 -23.921875 C 23.296875 -22.796875 22.960938 -21.566406 22.296875 -20.234375 C 21.628906 -18.898438 20.660156 -18.234375 19.390625 -18.234375 C 18.765625 -18.234375 18.160156 -18.375 17.578125 -18.65625 C 16.992188 -18.9375 16.226562 -19.078125 15.28125 -19.078125 C 14.332031 -19.078125 13.445312 -18.742188 12.625 -18.078125 C 11.800781 -17.410156 11.390625 -16.601562 11.390625 -15.65625 L 11.390625 -4.578125 C 11.390625 -3.773438 11.359375 -3.171875 11.296875 -2.765625 C 11.242188 -2.359375 11.078125 -1.894531 10.796875 -1.375 C 10.273438 -0.457031 8.90625 0 6.6875 0 C 5 0 3.789062 -0.296875 3.0625 -0.890625 C 2.5 -1.390625 2.179688 -2.144531 2.109375 -3.15625 C 2.109375 -3.507812 2.109375 -4.019531 2.109375 -4.6875 L 2.109375 -23.1875 C 2.109375 -24 2.132812 -24.601562 2.1875 -25 C 2.238281 -25.40625 2.390625 -25.859375 2.640625 -26.359375 C 3.128906 -27.304688 4.5 -27.78125 6.75 -27.78125 C 8.851562 -27.78125 10.171875 -27.375 10.703125 -26.5625 C 11.085938 -26 11.28125 -25.421875 11.28125 -24.828125 C 11.457031 -25.066406 11.710938 -25.363281 12.046875 -25.71875 C 12.378906 -26.070312 13.085938 -26.546875 14.171875 -27.140625 C 15.265625 -27.734375 16.222656 -28.03125 17.046875 -28.03125 C 17.867188 -28.03125 18.5625 -27.988281 19.125 -27.90625 C 19.6875 -27.820312 20.300781 -27.671875 20.96875 -27.453125 Z M 20.96875 -27.453125 "/></g></g></g><g fill="#094c60" fill-opacity="1"><g transform="translate(177.247939, 266.52095)"><g><path d="M 1.3125 -13.859375 C 1.3125 -18.078125 2.785156 -21.554688 5.734375 -24.296875 C 8.691406 -27.035156 12.066406 -28.40625 15.859375 -28.40625 C 19.660156 -28.40625 23.015625 -27.039062 25.921875 -24.3125 C 28.835938 -21.59375 30.296875 -18.125 30.296875 -13.90625 C 30.296875 -11 29.539062 -8.410156 28.03125 -6.140625 C 26.519531 -3.867188 24.6875 -2.195312 22.53125 -1.125 C 20.375 -0.0625 18.132812 0.46875 15.8125 0.46875 C 13.488281 0.46875 11.238281 -0.0976562 9.0625 -1.234375 C 6.882812 -2.378906 5.046875 -4.066406 3.546875 -6.296875 C 2.054688 -8.523438 1.3125 -11.046875 1.3125 -13.859375 Z M 12.328125 -10.09375 C 13.453125 -9.226562 14.59375 -8.796875 15.75 -8.796875 C 16.914062 -8.796875 18.078125 -9.234375 19.234375 -10.109375 C 20.390625 -10.992188 20.96875 -12.296875 20.96875 -14.015625 C 20.96875 -15.734375 20.421875 -17.015625 19.328125 -17.859375 C 18.242188 -18.703125 17.066406 -19.125 15.796875 -19.125 C 14.535156 -19.125 13.359375 -18.6875 12.265625 -17.8125 C 11.179688 -16.9375 10.640625 -15.644531 10.640625 -13.9375 C 10.640625 -12.238281 11.203125 -10.957031 12.328125 -10.09375 Z M 12.328125 -10.09375 "/></g></g></g><g fill="#094c60" fill-opacity="1"><g transform="translate(209.658189, 266.52095)"><g><path d="M 37.625 -27.5625 C 39.875 -26.582031 41 -25.367188 41 -23.921875 C 41 -23.328125 40.71875 -22.367188 40.15625 -21.046875 C 39.59375 -19.734375 39.117188 -18.585938 38.734375 -17.609375 L 32.9375 -3.484375 C 32.414062 -1.929688 31.535156 -0.835938 30.296875 -0.203125 C 29.773438 0.0351562 29.109375 0.15625 28.296875 0.15625 C 27.492188 0.15625 26.710938 -0.148438 25.953125 -0.765625 C 25.203125 -1.378906 24.703125 -2.003906 24.453125 -2.640625 L 24.03125 -3.53125 C 23.75 -4.226562 22.710938 -6.96875 20.921875 -11.75 C 20.566406 -10.90625 20.046875 -9.523438 19.359375 -7.609375 C 18.679688 -5.703125 18.242188 -4.507812 18.046875 -4.03125 C 17.859375 -3.550781 17.738281 -3.234375 17.6875 -3.078125 C 17.632812 -2.921875 17.484375 -2.628906 17.234375 -2.203125 C 16.984375 -1.785156 16.703125 -1.421875 16.390625 -1.109375 C 15.546875 -0.265625 14.578125 0.15625 13.484375 0.15625 C 12.398438 0.15625 11.488281 -0.148438 10.75 -0.765625 C 10.007812 -1.378906 9.519531 -2.003906 9.28125 -2.640625 L 1.3125 -22.03125 C 0.96875 -23.082031 0.796875 -23.765625 0.796875 -24.078125 C 0.796875 -25.484375 1.796875 -26.59375 3.796875 -27.40625 C 4.921875 -27.863281 5.832031 -28.09375 6.53125 -28.09375 C 7.238281 -28.09375 7.8125 -27.941406 8.25 -27.640625 C 8.6875 -27.335938 8.992188 -27.035156 9.171875 -26.734375 C 9.347656 -26.441406 9.488281 -26.140625 9.59375 -25.828125 C 10.1875 -24.421875 11.429688 -21.117188 13.328125 -15.921875 L 16.4375 -24.453125 C 16.65625 -25.160156 17.046875 -25.773438 17.609375 -26.296875 C 18.617188 -27.316406 19.648438 -27.828125 20.703125 -27.828125 C 21.765625 -27.828125 22.671875 -27.546875 23.421875 -26.984375 C 24.179688 -26.421875 24.703125 -25.859375 24.984375 -25.296875 L 25.40625 -24.40625 C 27.15625 -19.476562 28.191406 -16.664062 28.515625 -15.96875 L 31.734375 -24.71875 C 32.566406 -26.96875 33.828125 -28.09375 35.515625 -28.09375 C 36.179688 -28.09375 36.882812 -27.914062 37.625 -27.5625 Z M 37.625 -27.5625 "/></g></g></g><g fill="#094c60" fill-opacity="1"><g transform="translate(252.239362, 266.52095)"><g><path d="M 28.875 -17.203125 C 28.875 -15.046875 28.335938 -13.445312 27.265625 -12.40625 C 26.203125 -11.375 25.019531 -10.859375 23.71875 -10.859375 L 11.21875 -10.859375 C 11.21875 -9.867188 11.796875 -9.039062 12.953125 -8.375 C 14.117188 -7.707031 15.28125 -7.375 16.4375 -7.375 C 18.476562 -7.375 20.078125 -7.585938 21.234375 -8.015625 L 21.8125 -8.21875 C 22.65625 -8.601562 23.359375 -8.796875 23.921875 -8.796875 C 25.046875 -8.796875 26.015625 -8.007812 26.828125 -6.4375 C 27.285156 -5.476562 27.515625 -4.664062 27.515625 -4 C 27.515625 -0.875 23.769531 0.6875 16.28125 0.6875 C 13.6875 0.6875 11.378906 0.238281 9.359375 -0.65625 C 7.335938 -1.550781 5.765625 -2.738281 4.640625 -4.21875 C 2.421875 -7.0625 1.3125 -10.238281 1.3125 -13.75 C 1.3125 -18.175781 2.742188 -21.71875 5.609375 -24.375 C 8.472656 -27.03125 12.050781 -28.359375 16.34375 -28.359375 C 21.21875 -28.359375 24.800781 -26.632812 27.09375 -23.1875 C 28.28125 -21.363281 28.875 -19.367188 28.875 -17.203125 Z M 17.765625 -15.65625 C 19.097656 -15.65625 19.765625 -16.21875 19.765625 -17.34375 C 19.765625 -18.144531 19.457031 -18.789062 18.84375 -19.28125 C 18.226562 -19.78125 17.347656 -20.03125 16.203125 -20.03125 C 15.066406 -20.03125 13.9375 -19.5625 12.8125 -18.625 C 11.6875 -17.695312 11.125 -16.707031 11.125 -15.65625 Z M 17.765625 -15.65625 "/></g></g></g><g fill="#094c60" fill-opacity="1"><g transform="translate(283.226734, 266.52095)"><g><path d="M 20.734375 -39.34375 C 21.003906 -39.851562 21.472656 -40.210938 22.140625 -40.421875 C 22.804688 -40.628906 23.691406 -40.734375 24.796875 -40.734375 C 25.898438 -40.734375 26.785156 -40.628906 27.453125 -40.421875 C 28.117188 -40.210938 28.582031 -39.84375 28.84375 -39.3125 C 29.113281 -38.789062 29.273438 -38.328125 29.328125 -37.921875 C 29.378906 -37.515625 29.40625 -36.910156 29.40625 -36.109375 L 29.40625 -4.640625 C 29.40625 -3.828125 29.378906 -3.21875 29.328125 -2.8125 C 29.273438 -2.414062 29.109375 -1.96875 28.828125 -1.46875 C 28.296875 -0.519531 26.8125 -0.046875 24.375 -0.046875 C 21.9375 -0.046875 20.578125 -0.910156 20.296875 -2.640625 C 18.816406 -0.953125 16.757812 -0.109375 14.125 -0.109375 C 10.957031 -0.109375 8.070312 -1.484375 5.46875 -4.234375 C 2.875 -6.992188 1.578125 -10.207031 1.578125 -13.875 C 1.578125 -17.550781 2.882812 -20.773438 5.5 -23.546875 C 8.125 -26.328125 11 -27.71875 14.125 -27.71875 C 16.726562 -27.71875 18.75 -26.84375 20.1875 -25.09375 L 20.1875 -36.15625 C 20.1875 -36.957031 20.210938 -37.5625 20.265625 -37.96875 C 20.316406 -38.375 20.472656 -38.832031 20.734375 -39.34375 Z M 12.171875 -10.703125 C 13.085938 -9.753906 14.191406 -9.28125 15.484375 -9.28125 C 16.785156 -9.28125 17.867188 -9.753906 18.734375 -10.703125 C 19.597656 -11.648438 20.03125 -12.691406 20.03125 -13.828125 C 20.03125 -14.972656 19.613281 -16.035156 18.78125 -17.015625 C 17.957031 -18.003906 16.84375 -18.5 15.4375 -18.5 C 14.03125 -18.5 12.90625 -18.015625 12.0625 -17.046875 C 11.21875 -16.078125 10.796875 -15.015625 10.796875 -13.859375 C 10.796875 -12.703125 11.253906 -11.648438 12.171875 -10.703125 Z M 12.171875 -10.703125 "/></g></g></g><g fill="#094c60" fill-opacity="1"><g transform="translate(46.05028, 291.047851)"><g><path d="M 3.6875 -4.296875 L 6.234375 -8.5625 L 7.15625 -8.03125 L 4.21875 -3.234375 L 4.21875 0 L 3.078125 0 L 3.078125 -3.234375 L 0.125 -8.03125 L 1.09375 -8.609375 Z M 3.6875 -4.296875 "/></g></g></g><g fill="#094c60" fill-opacity="1"><g transform="translate(55.751165, 291.047851)"><g><path d="M 0.609375 -4.265625 C 0.609375 -4.890625 0.695312 -5.46875 0.875 -6 C 1.0625 -6.53125 1.328125 -6.988281 1.671875 -7.375 C 2.015625 -7.769531 2.429688 -8.078125 2.921875 -8.296875 C 3.421875 -8.523438 3.984375 -8.640625 4.609375 -8.640625 C 5.234375 -8.640625 5.796875 -8.523438 6.296875 -8.296875 C 6.796875 -8.066406 7.21875 -7.753906 7.5625 -7.359375 C 7.90625 -6.960938 8.164062 -6.5 8.34375 -5.96875 C 8.53125 -5.4375 8.625 -4.867188 8.625 -4.265625 C 8.625 -3.648438 8.53125 -3.078125 8.34375 -2.546875 C 8.164062 -2.015625 7.90625 -1.546875 7.5625 -1.140625 C 7.21875 -0.742188 6.796875 -0.429688 6.296875 -0.203125 C 5.804688 0.0234375 5.242188 0.140625 4.609375 0.140625 C 3.984375 0.140625 3.421875 0.0234375 2.921875 -0.203125 C 2.429688 -0.429688 2.015625 -0.742188 1.671875 -1.140625 C 1.328125 -1.546875 1.0625 -2.015625 0.875 -2.546875 C 0.695312 -3.078125 0.609375 -3.648438 0.609375 -4.265625 Z M 1.78125 -4.265625 C 1.78125 -3.828125 1.84375 -3.398438 1.96875 -2.984375 C 2.09375 -2.578125 2.273438 -2.210938 2.515625 -1.890625 C 2.765625 -1.578125 3.066406 -1.320312 3.421875 -1.125 C 3.773438 -0.9375 4.171875 -0.84375 4.609375 -0.84375 C 5.078125 -0.84375 5.488281 -0.929688 5.84375 -1.109375 C 6.195312 -1.285156 6.492188 -1.523438 6.734375 -1.828125 C 6.972656 -2.128906 7.148438 -2.488281 7.265625 -2.90625 C 7.390625 -3.320312 7.453125 -3.773438 7.453125 -4.265625 C 7.453125 -4.703125 7.382812 -5.117188 7.25 -5.515625 C 7.125 -5.921875 6.941406 -6.28125 6.703125 -6.59375 C 6.460938 -6.914062 6.164062 -7.171875 5.8125 -7.359375 C 5.457031 -7.554688 5.054688 -7.65625 4.609375 -7.65625 C 4.171875 -7.65625 3.773438 -7.566406 3.421875 -7.390625 C 3.066406 -7.210938 2.765625 -6.972656 2.515625 -6.671875 C 2.273438 -6.367188 2.09375 -6.007812 1.96875 -5.59375 C 1.84375 -5.1875 1.78125 -4.742188 1.78125 -4.265625 Z M 1.78125 -4.265625 "/></g></g></g><g fill="#094c60" fill-opacity="1"><g transform="translate(67.41882, 291.047851)"><g><path d="M 6.109375 -8.5 L 7.21875 -8.5 L 7.21875 -3.28125 C 7.21875 -2.75 7.144531 -2.269531 7 -1.84375 C 6.851562 -1.414062 6.640625 -1.050781 6.359375 -0.75 C 6.078125 -0.457031 5.738281 -0.234375 5.34375 -0.078125 C 4.957031 0.0664062 4.53125 0.140625 4.0625 0.140625 C 3.070312 0.140625 2.296875 -0.144531 1.734375 -0.71875 C 1.179688 -1.300781 0.90625 -2.140625 0.90625 -3.234375 L 0.90625 -8.5 L 2.0625 -8.5 L 2.0625 -3.40625 C 2.0625 -2.59375 2.222656 -1.960938 2.546875 -1.515625 C 2.878906 -1.078125 3.382812 -0.859375 4.0625 -0.859375 C 4.75 -0.859375 5.257812 -1.070312 5.59375 -1.5 C 5.9375 -1.9375 6.109375 -2.570312 6.109375 -3.40625 Z M 6.109375 -8.5 "/></g></g></g><g fill="#094c60" fill-opacity="1"><g transform="translate(77.981686, 291.047851)"><g><path d="M 6.046875 0.140625 L 4.984375 -2.15625 C 4.722656 -2.726562 4.390625 -3.132812 3.984375 -3.375 C 3.578125 -3.625 3.054688 -3.75 2.421875 -3.75 L 2.25 -3.75 L 2.25 0 L 1.09375 0 L 1.09375 -8.46875 C 1.53125 -8.507812 1.941406 -8.539062 2.328125 -8.5625 C 2.710938 -8.582031 3.128906 -8.59375 3.578125 -8.59375 C 4.097656 -8.59375 4.550781 -8.535156 4.9375 -8.421875 C 5.332031 -8.316406 5.65625 -8.160156 5.90625 -7.953125 C 6.164062 -7.753906 6.363281 -7.515625 6.5 -7.234375 C 6.632812 -6.960938 6.703125 -6.664062 6.703125 -6.34375 C 6.703125 -5.75 6.523438 -5.269531 6.171875 -4.90625 C 5.816406 -4.550781 5.3125 -4.285156 4.65625 -4.109375 C 4.8125 -4.035156 4.957031 -3.953125 5.09375 -3.859375 C 5.238281 -3.765625 5.367188 -3.648438 5.484375 -3.515625 C 5.609375 -3.378906 5.726562 -3.21875 5.84375 -3.03125 C 5.957031 -2.84375 6.078125 -2.617188 6.203125 -2.359375 L 7.125 -0.359375 Z M 3.578125 -7.625 C 3.304688 -7.625 3.0625 -7.617188 2.84375 -7.609375 C 2.625 -7.597656 2.425781 -7.585938 2.25 -7.578125 L 2.25 -4.71875 L 3.578125 -4.71875 C 4.160156 -4.71875 4.632812 -4.847656 5 -5.109375 C 5.363281 -5.367188 5.546875 -5.742188 5.546875 -6.234375 C 5.546875 -6.628906 5.375 -6.957031 5.03125 -7.21875 C 4.695312 -7.488281 4.210938 -7.625 3.578125 -7.625 Z M 3.578125 -7.625 "/></g></g></g><g fill="#094c60" fill-opacity="1"><g transform="translate(87.901095, 291.047851)"><g/></g></g><g fill="#094c60" fill-opacity="1"><g transform="translate(93.971948, 291.047851)"><g><path d="M 2.1875 -7.015625 L 2.1875 0 L 1.09375 0 L 1.09375 -8.5 L 2.625 -8.5 L 6.375 -1.4375 L 6.375 -8.5 L 7.46875 -8.5 L 7.46875 0 L 5.96875 0 Z M 2.1875 -7.015625 "/></g></g></g><g fill="#094c60" fill-opacity="1"><g transform="translate(104.959734, 291.047851)"><g><path d="M 1.09375 -8.5 L 6.1875 -8.5 L 6.1875 -7.5 L 2.25 -7.5 L 2.25 -4.921875 L 5.640625 -4.921875 L 5.640625 -3.953125 L 2.25 -3.953125 L 2.25 -1 L 6.1875 -1 L 6.1875 0 L 1.09375 0 Z M 1.09375 -8.5 "/></g></g></g><g fill="#094c60" fill-opacity="1"><g transform="translate(114.126434, 291.047851)"><g><path d="M 1.09375 0 L 1.09375 -8.5 L 2.25 -8.5 L 2.25 0 Z M 1.09375 0 "/></g></g></g><g fill="#094c60" fill-opacity="1"><g transform="translate(119.893769, 291.047851)"><g><path d="M 4.546875 -4.5 L 7.390625 -4.5 L 7.390625 0 L 6.375 0 L 6.375 -0.84375 C 6.09375 -0.59375 5.75 -0.363281 5.34375 -0.15625 C 4.9375 0.0390625 4.488281 0.140625 4 0.140625 C 3.5 0.140625 3.039062 0.046875 2.625 -0.140625 C 2.21875 -0.335938 1.863281 -0.617188 1.5625 -0.984375 C 1.257812 -1.347656 1.023438 -1.785156 0.859375 -2.296875 C 0.691406 -2.816406 0.609375 -3.394531 0.609375 -4.03125 C 0.609375 -4.707031 0.691406 -5.328125 0.859375 -5.890625 C 1.035156 -6.453125 1.289062 -6.9375 1.625 -7.34375 C 1.957031 -7.757812 2.363281 -8.078125 2.84375 -8.296875 C 3.320312 -8.523438 3.867188 -8.640625 4.484375 -8.640625 C 5.023438 -8.640625 5.5 -8.570312 5.90625 -8.4375 C 6.3125 -8.3125 6.695312 -8.148438 7.0625 -7.953125 L 6.640625 -7 C 6.296875 -7.175781 5.953125 -7.328125 5.609375 -7.453125 C 5.265625 -7.578125 4.875 -7.640625 4.4375 -7.640625 C 4.050781 -7.640625 3.695312 -7.5625 3.375 -7.40625 C 3.050781 -7.25 2.769531 -7.019531 2.53125 -6.71875 C 2.300781 -6.425781 2.117188 -6.054688 1.984375 -5.609375 C 1.847656 -5.171875 1.78125 -4.671875 1.78125 -4.109375 C 1.78125 -3.597656 1.84375 -3.140625 1.96875 -2.734375 C 2.09375 -2.335938 2.257812 -2 2.46875 -1.71875 C 2.6875 -1.4375 2.945312 -1.222656 3.25 -1.078125 C 3.5625 -0.929688 3.898438 -0.859375 4.265625 -0.859375 C 4.484375 -0.859375 4.691406 -0.882812 4.890625 -0.9375 C 5.097656 -0.988281 5.285156 -1.054688 5.453125 -1.140625 C 5.628906 -1.234375 5.785156 -1.328125 5.921875 -1.421875 C 6.066406 -1.523438 6.191406 -1.628906 6.296875 -1.734375 L 6.296875 -3.59375 L 4.546875 -3.59375 Z M 4.546875 -4.5 "/></g></g></g><g fill="#094c60" fill-opacity="1"><g transform="translate(130.505194, 291.047851)"><g><path d="M 6.4375 -3.875 L 2.25 -3.875 L 2.25 0 L 1.09375 0 L 1.09375 -8.5 L 2.25 -8.5 L 2.25 -4.875 L 6.4375 -4.875 L 6.4375 -8.5 L 7.59375 -8.5 L 7.59375 0 L 6.4375 0 Z M 6.4375 -3.875 "/></g></g></g><g fill="#094c60" fill-opacity="1"><g transform="translate(141.614379, 291.047851)"><g><path d="M 1.09375 -8.46875 C 1.375 -8.5 1.722656 -8.523438 2.140625 -8.546875 C 2.554688 -8.578125 3.039062 -8.59375 3.59375 -8.59375 C 4.632812 -8.59375 5.429688 -8.398438 5.984375 -8.015625 C 6.546875 -7.628906 6.828125 -7.09375 6.828125 -6.40625 C 6.828125 -5.957031 6.707031 -5.578125 6.46875 -5.265625 C 6.238281 -4.960938 5.890625 -4.707031 5.421875 -4.5 C 5.972656 -4.3125 6.390625 -4.046875 6.671875 -3.703125 C 6.960938 -3.359375 7.109375 -2.929688 7.109375 -2.421875 C 7.109375 -1.648438 6.804688 -1.035156 6.203125 -0.578125 C 5.597656 -0.128906 4.710938 0.09375 3.546875 0.09375 C 3.046875 0.09375 2.578125 0.0820312 2.140625 0.0625 C 1.703125 0.0390625 1.351562 0.0078125 1.09375 -0.03125 Z M 3.625 -0.859375 C 4.351562 -0.859375 4.914062 -0.988281 5.3125 -1.25 C 5.71875 -1.507812 5.921875 -1.882812 5.921875 -2.375 C 5.921875 -2.863281 5.722656 -3.242188 5.328125 -3.515625 C 4.929688 -3.796875 4.363281 -3.9375 3.625 -3.9375 L 2.25 -3.9375 L 2.25 -0.9375 C 2.664062 -0.882812 3.125 -0.859375 3.625 -0.859375 Z M 3.578125 -4.828125 C 4.222656 -4.828125 4.734375 -4.957031 5.109375 -5.21875 C 5.484375 -5.488281 5.671875 -5.835938 5.671875 -6.265625 C 5.671875 -6.722656 5.484375 -7.066406 5.109375 -7.296875 C 4.734375 -7.535156 4.222656 -7.65625 3.578125 -7.65625 C 3.316406 -7.65625 3.078125 -7.648438 2.859375 -7.640625 C 2.640625 -7.628906 2.4375 -7.613281 2.25 -7.59375 L 2.25 -4.828125 Z M 3.578125 -4.828125 "/></g></g></g><g fill="#094c60" fill-opacity="1"><g transform="translate(151.691611, 291.047851)"><g><path d="M 0.609375 -4.265625 C 0.609375 -4.890625 0.695312 -5.46875 0.875 -6 C 1.0625 -6.53125 1.328125 -6.988281 1.671875 -7.375 C 2.015625 -7.769531 2.429688 -8.078125 2.921875 -8.296875 C 3.421875 -8.523438 3.984375 -8.640625 4.609375 -8.640625 C 5.234375 -8.640625 5.796875 -8.523438 6.296875 -8.296875 C 6.796875 -8.066406 7.21875 -7.753906 7.5625 -7.359375 C 7.90625 -6.960938 8.164062 -6.5 8.34375 -5.96875 C 8.53125 -5.4375 8.625 -4.867188 8.625 -4.265625 C 8.625 -3.648438 8.53125 -3.078125 8.34375 -2.546875 C 8.164062 -2.015625 7.90625 -1.546875 7.5625 -1.140625 C 7.21875 -0.742188 6.796875 -0.429688 6.296875 -0.203125 C 5.804688 0.0234375 5.242188 0.140625 4.609375 0.140625 C 3.984375 0.140625 3.421875 0.0234375 2.921875 -0.203125 C 2.429688 -0.429688 2.015625 -0.742188 1.671875 -1.140625 C 1.328125 -1.546875 1.0625 -2.015625 0.875 -2.546875 C 0.695312 -3.078125 0.609375 -3.648438 0.609375 -4.265625 Z M 1.78125 -4.265625 C 1.78125 -3.828125 1.84375 -3.398438 1.96875 -2.984375 C 2.09375 -2.578125 2.273438 -2.210938 2.515625 -1.890625 C 2.765625 -1.578125 3.066406 -1.320312 3.421875 -1.125 C 3.773438 -0.9375 4.171875 -0.84375 4.609375 -0.84375 C 5.078125 -0.84375 5.488281 -0.929688 5.84375 -1.109375 C 6.195312 -1.285156 6.492188 -1.523438 6.734375 -1.828125 C 6.972656 -2.128906 7.148438 -2.488281 7.265625 -2.90625 C 7.390625 -3.320312 7.453125 -3.773438 7.453125 -4.265625 C 7.453125 -4.703125 7.382812 -5.117188 7.25 -5.515625 C 7.125 -5.921875 6.941406 -6.28125 6.703125 -6.59375 C 6.460938 -6.914062 6.164062 -7.171875 5.8125 -7.359375 C 5.457031 -7.554688 5.054688 -7.65625 4.609375 -7.65625 C 4.171875 -7.65625 3.773438 -7.566406 3.421875 -7.390625 C 3.066406 -7.210938 2.765625 -6.972656 2.515625 -6.671875 C 2.273438 -6.367188 2.09375 -6.007812 1.96875 -5.59375 C 1.84375 -5.1875 1.78125 -4.742188 1.78125 -4.265625 Z M 1.78125 -4.265625 "/></g></g></g><g fill="#094c60" fill-opacity="1"><g transform="translate(163.359263, 291.047851)"><g><path d="M 6.109375 -8.5 L 7.21875 -8.5 L 7.21875 -3.28125 C 7.21875 -2.75 7.144531 -2.269531 7 -1.84375 C 6.851562 -1.414062 6.640625 -1.050781 6.359375 -0.75 C 6.078125 -0.457031 5.738281 -0.234375 5.34375 -0.078125 C 4.957031 0.0664062 4.53125 0.140625 4.0625 0.140625 C 3.070312 0.140625 2.296875 -0.144531 1.734375 -0.71875 C 1.179688 -1.300781 0.90625 -2.140625 0.90625 -3.234375 L 0.90625 -8.5 L 2.0625 -8.5 L 2.0625 -3.40625 C 2.0625 -2.59375 2.222656 -1.960938 2.546875 -1.515625 C 2.878906 -1.078125 3.382812 -0.859375 4.0625 -0.859375 C 4.75 -0.859375 5.257812 -1.070312 5.59375 -1.5 C 5.9375 -1.9375 6.109375 -2.570312 6.109375 -3.40625 Z M 6.109375 -8.5 "/></g></g></g><g fill="#094c60" fill-opacity="1"><g transform="translate(173.922124, 291.047851)"><g><path d="M 6.046875 0.140625 L 4.984375 -2.15625 C 4.722656 -2.726562 4.390625 -3.132812 3.984375 -3.375 C 3.578125 -3.625 3.054688 -3.75 2.421875 -3.75 L 2.25 -3.75 L 2.25 0 L 1.09375 0 L 1.09375 -8.46875 C 1.53125 -8.507812 1.941406 -8.539062 2.328125 -8.5625 C 2.710938 -8.582031 3.128906 -8.59375 3.578125 -8.59375 C 4.097656 -8.59375 4.550781 -8.535156 4.9375 -8.421875 C 5.332031 -8.316406 5.65625 -8.160156 5.90625 -7.953125 C 6.164062 -7.753906 6.363281 -7.515625 6.5 -7.234375 C 6.632812 -6.960938 6.703125 -6.664062 6.703125 -6.34375 C 6.703125 -5.75 6.523438 -5.269531 6.171875 -4.90625 C 5.816406 -4.550781 5.3125 -4.285156 4.65625 -4.109375 C 4.8125 -4.035156 4.957031 -3.953125 5.09375 -3.859375 C 5.238281 -3.765625 5.367188 -3.648438 5.484375 -3.515625 C 5.609375 -3.378906 5.726562 -3.21875 5.84375 -3.03125 C 5.957031 -2.84375 6.078125 -2.617188 6.203125 -2.359375 L 7.125 -0.359375 Z M 3.578125 -7.625 C 3.304688 -7.625 3.0625 -7.617188 2.84375 -7.609375 C 2.625 -7.597656 2.425781 -7.585938 2.25 -7.578125 L 2.25 -4.71875 L 3.578125 -4.71875 C 4.160156 -4.71875 4.632812 -4.847656 5 -5.109375 C 5.363281 -5.367188 5.546875 -5.742188 5.546875 -6.234375 C 5.546875 -6.628906 5.375 -6.957031 5.03125 -7.21875 C 4.695312 -7.488281 4.210938 -7.625 3.578125 -7.625 Z M 3.578125 -7.625 "/></g></g></g><g fill="#094c60" fill-opacity="1"><g transform="translate(183.84153, 291.047851)"><g><path d="M 6.4375 -3.875 L 2.25 -3.875 L 2.25 0 L 1.09375 0 L 1.09375 -8.5 L 2.25 -8.5 L 2.25 -4.875 L 6.4375 -4.875 L 6.4375 -8.5 L 7.59375 -8.5 L 7.59375 0 L 6.4375 0 Z M 6.4375 -3.875 "/></g></g></g><g fill="#094c60" fill-opacity="1"><g transform="translate(194.95071, 291.047851)"><g><path d="M 0.609375 -4.265625 C 0.609375 -4.890625 0.695312 -5.46875 0.875 -6 C 1.0625 -6.53125 1.328125 -6.988281 1.671875 -7.375 C 2.015625 -7.769531 2.429688 -8.078125 2.921875 -8.296875 C 3.421875 -8.523438 3.984375 -8.640625 4.609375 -8.640625 C 5.234375 -8.640625 5.796875 -8.523438 6.296875 -8.296875 C 6.796875 -8.066406 7.21875 -7.753906 7.5625 -7.359375 C 7.90625 -6.960938 8.164062 -6.5 8.34375 -5.96875 C 8.53125 -5.4375 8.625 -4.867188 8.625 -4.265625 C 8.625 -3.648438 8.53125 -3.078125 8.34375 -2.546875 C 8.164062 -2.015625 7.90625 -1.546875 7.5625 -1.140625 C 7.21875 -0.742188 6.796875 -0.429688 6.296875 -0.203125 C 5.804688 0.0234375 5.242188 0.140625 4.609375 0.140625 C 3.984375 0.140625 3.421875 0.0234375 2.921875 -0.203125 C 2.429688 -0.429688 2.015625 -0.742188 1.671875 -1.140625 C 1.328125 -1.546875 1.0625 -2.015625 0.875 -2.546875 C 0.695312 -3.078125 0.609375 -3.648438 0.609375 -4.265625 Z M 1.78125 -4.265625 C 1.78125 -3.828125 1.84375 -3.398438 1.96875 -2.984375 C 2.09375 -2.578125 2.273438 -2.210938 2.515625 -1.890625 C 2.765625 -1.578125 3.066406 -1.320312 3.421875 -1.125 C 3.773438 -0.9375 4.171875 -0.84375 4.609375 -0.84375 C 5.078125 -0.84375 5.488281 -0.929688 5.84375 -1.109375 C 6.195312 -1.285156 6.492188 -1.523438 6.734375 -1.828125 C 6.972656 -2.128906 7.148438 -2.488281 7.265625 -2.90625 C 7.390625 -3.320312 7.453125 -3.773438 7.453125 -4.265625 C 7.453125 -4.703125 7.382812 -5.117188 7.25 -5.515625 C 7.125 -5.921875 6.941406 -6.28125 6.703125 -6.59375 C 6.460938 -6.914062 6.164062 -7.171875 5.8125 -7.359375 C 5.457031 -7.554688 5.054688 -7.65625 4.609375 -7.65625 C 4.171875 -7.65625 3.773438 -7.566406 3.421875 -7.390625 C 3.066406 -7.210938 2.765625 -6.972656 2.515625 -6.671875 C 2.273438 -6.367188 2.09375 -6.007812 1.96875 -5.59375 C 1.84375 -5.1875 1.78125 -4.742188 1.78125 -4.265625 Z M 1.78125 -4.265625 "/></g></g></g><g fill="#094c60" fill-opacity="1"><g transform="translate(206.618362, 291.047851)"><g><path d="M 0.609375 -4.265625 C 0.609375 -4.890625 0.695312 -5.46875 0.875 -6 C 1.0625 -6.53125 1.328125 -6.988281 1.671875 -7.375 C 2.015625 -7.769531 2.429688 -8.078125 2.921875 -8.296875 C 3.421875 -8.523438 3.984375 -8.640625 4.609375 -8.640625 C 5.234375 -8.640625 5.796875 -8.523438 6.296875 -8.296875 C 6.796875 -8.066406 7.21875 -7.753906 7.5625 -7.359375 C 7.90625 -6.960938 8.164062 -6.5 8.34375 -5.96875 C 8.53125 -5.4375 8.625 -4.867188 8.625 -4.265625 C 8.625 -3.648438 8.53125 -3.078125 8.34375 -2.546875 C 8.164062 -2.015625 7.90625 -1.546875 7.5625 -1.140625 C 7.21875 -0.742188 6.796875 -0.429688 6.296875 -0.203125 C 5.804688 0.0234375 5.242188 0.140625 4.609375 0.140625 C 3.984375 0.140625 3.421875 0.0234375 2.921875 -0.203125 C 2.429688 -0.429688 2.015625 -0.742188 1.671875 -1.140625 C 1.328125 -1.546875 1.0625 -2.015625 0.875 -2.546875 C 0.695312 -3.078125 0.609375 -3.648438 0.609375 -4.265625 Z M 1.78125 -4.265625 C 1.78125 -3.828125 1.84375 -3.398438 1.96875 -2.984375 C 2.09375 -2.578125 2.273438 -2.210938 2.515625 -1.890625 C 2.765625 -1.578125 3.066406 -1.320312 3.421875 -1.125 C 3.773438 -0.9375 4.171875 -0.84375 4.609375 -0.84375 C 5.078125 -0.84375 5.488281 -0.929688 5.84375 -1.109375 C 6.195312 -1.285156 6.492188 -1.523438 6.734375 -1.828125 C 6.972656 -2.128906 7.148438 -2.488281 7.265625 -2.90625 C 7.390625 -3.320312 7.453125 -3.773438 7.453125 -4.265625 C 7.453125 -4.703125 7.382812 -5.117188 7.25 -5.515625 C 7.125 -5.921875 6.941406 -6.28125 6.703125 -6.59375 C 6.460938 -6.914062 6.164062 -7.171875 5.8125 -7.359375 C 5.457031 -7.554688 5.054688 -7.65625 4.609375 -7.65625 C 4.171875 -7.65625 3.773438 -7.566406 3.421875 -7.390625 C 3.066406 -7.210938 2.765625 -6.972656 2.515625 -6.671875 C 2.273438 -6.367188 2.09375 -6.007812 1.96875 -5.59375 C 1.84375 -5.1875 1.78125 -4.742188 1.78125 -4.265625 Z M 1.78125 -4.265625 "/></g></g></g><g fill="#094c60" fill-opacity="1"><g transform="translate(218.286013, 291.047851)"><g><path d="M 1.09375 -8.46875 C 1.46875 -8.507812 1.835938 -8.539062 2.203125 -8.5625 C 2.566406 -8.582031 2.984375 -8.59375 3.453125 -8.59375 C 4.179688 -8.59375 4.804688 -8.476562 5.328125 -8.25 C 5.859375 -8.03125 6.296875 -7.71875 6.640625 -7.3125 C 6.992188 -6.914062 7.253906 -6.453125 7.421875 -5.921875 C 7.585938 -5.398438 7.671875 -4.847656 7.671875 -4.265625 C 7.671875 -3.671875 7.582031 -3.109375 7.40625 -2.578125 C 7.238281 -2.046875 6.976562 -1.582031 6.625 -1.1875 C 6.28125 -0.789062 5.832031 -0.476562 5.28125 -0.25 C 4.738281 -0.0195312 4.085938 0.09375 3.328125 0.09375 C 2.867188 0.09375 2.46875 0.0820312 2.125 0.0625 C 1.78125 0.0390625 1.4375 0.0078125 1.09375 -0.03125 Z M 3.421875 -7.59375 C 3.191406 -7.59375 2.976562 -7.585938 2.78125 -7.578125 C 2.582031 -7.566406 2.40625 -7.554688 2.25 -7.546875 L 2.25 -0.96875 C 2.414062 -0.945312 2.59375 -0.929688 2.78125 -0.921875 C 2.96875 -0.910156 3.160156 -0.90625 3.359375 -0.90625 C 3.898438 -0.90625 4.367188 -0.988281 4.765625 -1.15625 C 5.160156 -1.320312 5.484375 -1.550781 5.734375 -1.84375 C 5.992188 -2.144531 6.1875 -2.5 6.3125 -2.90625 C 6.4375 -3.3125 6.5 -3.765625 6.5 -4.265625 C 6.5 -4.703125 6.4375 -5.117188 6.3125 -5.515625 C 6.1875 -5.921875 6 -6.273438 5.75 -6.578125 C 5.5 -6.890625 5.179688 -7.132812 4.796875 -7.3125 C 4.410156 -7.5 3.953125 -7.59375 3.421875 -7.59375 Z M 3.421875 -7.59375 "/></g></g></g><g fill="#094c60" fill-opacity="1"><g transform="translate(228.994558, 291.047851)"><g><path d="M 1.4375 -8.5 L 1.34375 -5.796875 L 0.484375 -5.796875 L 0.390625 -8.5 Z M 1.4375 -8.5 "/></g></g></g><g fill="#094c60" fill-opacity="1"><g transform="translate(233.244321, 291.047851)"><g><path d="M 0.953125 -1.6875 C 1.242188 -1.445312 1.570312 -1.25 1.9375 -1.09375 C 2.300781 -0.9375 2.722656 -0.859375 3.203125 -0.859375 C 3.785156 -0.859375 4.242188 -0.976562 4.578125 -1.21875 C 4.921875 -1.46875 5.09375 -1.796875 5.09375 -2.203125 C 5.09375 -2.378906 5.066406 -2.539062 5.015625 -2.6875 C 4.972656 -2.832031 4.878906 -2.96875 4.734375 -3.09375 C 4.597656 -3.226562 4.398438 -3.363281 4.140625 -3.5 C 3.890625 -3.632812 3.5625 -3.78125 3.15625 -3.9375 C 2.71875 -4.101562 2.347656 -4.269531 2.046875 -4.4375 C 1.742188 -4.601562 1.5 -4.785156 1.3125 -4.984375 C 1.125 -5.179688 0.988281 -5.398438 0.90625 -5.640625 C 0.832031 -5.878906 0.796875 -6.148438 0.796875 -6.453125 C 0.796875 -6.753906 0.859375 -7.035156 0.984375 -7.296875 C 1.109375 -7.566406 1.289062 -7.800781 1.53125 -8 C 1.78125 -8.195312 2.082031 -8.351562 2.4375 -8.46875 C 2.800781 -8.582031 3.210938 -8.640625 3.671875 -8.640625 C 4.179688 -8.640625 4.632812 -8.585938 5.03125 -8.484375 C 5.425781 -8.390625 5.816406 -8.25 6.203125 -8.0625 L 5.78125 -7.078125 C 5.5 -7.242188 5.175781 -7.378906 4.8125 -7.484375 C 4.445312 -7.597656 4.0625 -7.65625 3.65625 -7.65625 C 3.125 -7.65625 2.703125 -7.550781 2.390625 -7.34375 C 2.085938 -7.132812 1.9375 -6.859375 1.9375 -6.515625 C 1.9375 -6.359375 1.957031 -6.21875 2 -6.09375 C 2.039062 -5.96875 2.128906 -5.84375 2.265625 -5.71875 C 2.398438 -5.601562 2.585938 -5.484375 2.828125 -5.359375 C 3.066406 -5.242188 3.382812 -5.113281 3.78125 -4.96875 C 4.25 -4.789062 4.644531 -4.609375 4.96875 -4.421875 C 5.289062 -4.234375 5.546875 -4.035156 5.734375 -3.828125 C 5.929688 -3.617188 6.070312 -3.390625 6.15625 -3.140625 C 6.238281 -2.898438 6.28125 -2.632812 6.28125 -2.34375 C 6.28125 -1.945312 6.203125 -1.59375 6.046875 -1.28125 C 5.898438 -0.976562 5.691406 -0.71875 5.421875 -0.5 C 5.148438 -0.289062 4.820312 -0.128906 4.4375 -0.015625 C 4.0625 0.0859375 3.648438 0.140625 3.203125 0.140625 C 2.609375 0.140625 2.066406 0.0625 1.578125 -0.09375 C 1.097656 -0.25 0.691406 -0.457031 0.359375 -0.71875 Z M 0.953125 -1.6875 "/></g></g></g><g fill="#094c60" fill-opacity="1"><g transform="translate(242.568852, 291.047851)"><g/></g></g><g fill="#094c60" fill-opacity="1"><g transform="translate(248.639713, 291.047851)"><g><path d="M 6.140625 0 L 1.09375 0 L 1.09375 -8.5 L 2.25 -8.5 L 2.25 -1.03125 L 6.140625 -1.03125 Z M 6.140625 0 "/></g></g></g><g fill="#094c60" fill-opacity="1"><g transform="translate(257.27222, 291.047851)"><g><path d="M 1.09375 -8.5 L 6.1875 -8.5 L 6.1875 -7.5 L 2.25 -7.5 L 2.25 -4.921875 L 5.640625 -4.921875 L 5.640625 -3.953125 L 2.25 -3.953125 L 2.25 -1 L 6.1875 -1 L 6.1875 0 L 1.09375 0 Z M 1.09375 -8.5 "/></g></g></g><g fill="#094c60" fill-opacity="1"><g transform="translate(266.438914, 291.047851)"><g><path d="M 2.1875 -7.015625 L 2.1875 0 L 1.09375 0 L 1.09375 -8.5 L 2.625 -8.5 L 6.375 -1.4375 L 6.375 -8.5 L 7.46875 -8.5 L 7.46875 0 L 5.96875 0 Z M 2.1875 -7.015625 "/></g></g></g><g fill="#094c60" fill-opacity="1"><g transform="translate(277.426706, 291.047851)"><g><path d="M 1.09375 -8.46875 C 1.46875 -8.507812 1.835938 -8.539062 2.203125 -8.5625 C 2.566406 -8.582031 2.984375 -8.59375 3.453125 -8.59375 C 4.179688 -8.59375 4.804688 -8.476562 5.328125 -8.25 C 5.859375 -8.03125 6.296875 -7.71875 6.640625 -7.3125 C 6.992188 -6.914062 7.253906 -6.453125 7.421875 -5.921875 C 7.585938 -5.398438 7.671875 -4.847656 7.671875 -4.265625 C 7.671875 -3.671875 7.582031 -3.109375 7.40625 -2.578125 C 7.238281 -2.046875 6.976562 -1.582031 6.625 -1.1875 C 6.28125 -0.789062 5.832031 -0.476562 5.28125 -0.25 C 4.738281 -0.0195312 4.085938 0.09375 3.328125 0.09375 C 2.867188 0.09375 2.46875 0.0820312 2.125 0.0625 C 1.78125 0.0390625 1.4375 0.0078125 1.09375 -0.03125 Z M 3.421875 -7.59375 C 3.191406 -7.59375 2.976562 -7.585938 2.78125 -7.578125 C 2.582031 -7.566406 2.40625 -7.554688 2.25 -7.546875 L 2.25 -0.96875 C 2.414062 -0.945312 2.59375 -0.929688 2.78125 -0.921875 C 2.96875 -0.910156 3.160156 -0.90625 3.359375 -0.90625 C 3.898438 -0.90625 4.367188 -0.988281 4.765625 -1.15625 C 5.160156 -1.320312 5.484375 -1.550781 5.734375 -1.84375 C 5.992188 -2.144531 6.1875 -2.5 6.3125 -2.90625 C 6.4375 -3.3125 6.5 -3.765625 6.5 -4.265625 C 6.5 -4.703125 6.4375 -5.117188 6.3125 -5.515625 C 6.1875 -5.921875 6 -6.273438 5.75 -6.578125 C 5.5 -6.890625 5.179688 -7.132812 4.796875 -7.3125 C 4.410156 -7.5 3.953125 -7.59375 3.421875 -7.59375 Z M 3.421875 -7.59375 "/></g></g></g><g fill="#094c60" fill-opacity="1"><g transform="translate(288.135263, 291.047851)"><g><path d="M 1.09375 0 L 1.09375 -8.5 L 2.25 -8.5 L 2.25 0 Z M 1.09375 0 "/></g></g></g><g fill="#094c60" fill-opacity="1"><g transform="translate(293.902604, 291.047851)"><g><path d="M 2.1875 -7.015625 L 2.1875 0 L 1.09375 0 L 1.09375 -8.5 L 2.625 -8.5 L 6.375 -1.4375 L 6.375 -8.5 L 7.46875 -8.5 L 7.46875 0 L 5.96875 0 Z M 2.1875 -7.015625 "/></g></g></g><g fill="#094c60" fill-opacity="1"><g transform="translate(304.890396, 291.047851)"><g><path d="M 4.546875 -4.5 L 7.390625 -4.5 L 7.390625 0 L 6.375 0 L 6.375 -0.84375 C 6.09375 -0.59375 5.75 -0.363281 5.34375 -0.15625 C 4.9375 0.0390625 4.488281 0.140625 4 0.140625 C 3.5 0.140625 3.039062 0.046875 2.625 -0.140625 C 2.21875 -0.335938 1.863281 -0.617188 1.5625 -0.984375 C 1.257812 -1.347656 1.023438 -1.785156 0.859375 -2.296875 C 0.691406 -2.816406 0.609375 -3.394531 0.609375 -4.03125 C 0.609375 -4.707031 0.691406 -5.328125 0.859375 -5.890625 C 1.035156 -6.453125 1.289062 -6.9375 1.625 -7.34375 C 1.957031 -7.757812 2.363281 -8.078125 2.84375 -8.296875 C 3.320312 -8.523438 3.867188 -8.640625 4.484375 -8.640625 C 5.023438 -8.640625 5.5 -8.570312 5.90625 -8.4375 C 6.3125 -8.3125 6.695312 -8.148438 7.0625 -7.953125 L 6.640625 -7 C 6.296875 -7.175781 5.953125 -7.328125 5.609375 -7.453125 C 5.265625 -7.578125 4.875 -7.640625 4.4375 -7.640625 C 4.050781 -7.640625 3.695312 -7.5625 3.375 -7.40625 C 3.050781 -7.25 2.769531 -7.019531 2.53125 -6.71875 C 2.300781 -6.425781 2.117188 -6.054688 1.984375 -5.609375 C 1.847656 -5.171875 1.78125 -4.671875 1.78125 -4.109375 C 1.78125 -3.597656 1.84375 -3.140625 1.96875 -2.734375 C 2.09375 -2.335938 2.257812 -2 2.46875 -1.71875 C 2.6875 -1.4375 2.945312 -1.222656 3.25 -1.078125 C 3.5625 -0.929688 3.898438 -0.859375 4.265625 -0.859375 C 4.484375 -0.859375 4.691406 -0.882812 4.890625 -0.9375 C 5.097656 -0.988281 5.285156 -1.054688 5.453125 -1.140625 C 5.628906 -1.234375 5.785156 -1.328125 5.921875 -1.421875 C 6.066406 -1.523438 6.191406 -1.628906 6.296875 -1.734375 L 6.296875 -3.59375 L 4.546875 -3.59375 Z M 4.546875 -4.5 "/></g></g></g><g fill="#094c60" fill-opacity="1"><g transform="translate(81.394027, 304.54785)"><g><path d="M 3.3125 -4.078125 C 2.945312 -3.828125 2.675781 -3.566406 2.5 -3.296875 C 2.332031 -3.023438 2.25 -2.695312 2.25 -2.3125 C 2.25 -2.101562 2.289062 -1.910156 2.375 -1.734375 C 2.457031 -1.554688 2.570312 -1.398438 2.71875 -1.265625 C 2.875 -1.128906 3.050781 -1.023438 3.25 -0.953125 C 3.457031 -0.878906 3.6875 -0.84375 3.9375 -0.84375 C 4.28125 -0.84375 4.601562 -0.925781 4.90625 -1.09375 C 5.207031 -1.257812 5.472656 -1.488281 5.703125 -1.78125 Z M 2.875 -6.609375 C 2.875 -6.335938 2.9375 -6.078125 3.0625 -5.828125 C 3.1875 -5.578125 3.390625 -5.316406 3.671875 -5.046875 C 4.179688 -5.304688 4.539062 -5.5625 4.75 -5.8125 C 4.957031 -6.070312 5.0625 -6.375 5.0625 -6.71875 C 5.0625 -7.007812 4.960938 -7.253906 4.765625 -7.453125 C 4.578125 -7.660156 4.320312 -7.765625 4 -7.765625 C 3.675781 -7.765625 3.40625 -7.65625 3.1875 -7.4375 C 2.976562 -7.21875 2.875 -6.941406 2.875 -6.609375 Z M 2.765625 -4.65625 C 2.460938 -4.988281 2.238281 -5.296875 2.09375 -5.578125 C 1.945312 -5.867188 1.875 -6.210938 1.875 -6.609375 C 1.875 -6.898438 1.921875 -7.164062 2.015625 -7.40625 C 2.117188 -7.65625 2.265625 -7.867188 2.453125 -8.046875 C 2.640625 -8.234375 2.863281 -8.378906 3.125 -8.484375 C 3.382812 -8.585938 3.679688 -8.640625 4.015625 -8.640625 C 4.335938 -8.640625 4.625 -8.59375 4.875 -8.5 C 5.132812 -8.40625 5.351562 -8.273438 5.53125 -8.109375 C 5.707031 -7.941406 5.835938 -7.75 5.921875 -7.53125 C 6.015625 -7.3125 6.0625 -7.078125 6.0625 -6.828125 C 6.0625 -6.304688 5.910156 -5.863281 5.609375 -5.5 C 5.316406 -5.132812 4.847656 -4.796875 4.203125 -4.484375 L 6.203125 -2.578125 C 6.285156 -2.722656 6.347656 -2.882812 6.390625 -3.0625 C 6.441406 -3.25 6.484375 -3.429688 6.515625 -3.609375 C 6.554688 -3.785156 6.601562 -3.957031 6.65625 -4.125 C 6.707031 -4.289062 6.78125 -4.4375 6.875 -4.5625 C 6.976562 -4.6875 7.109375 -4.785156 7.265625 -4.859375 C 7.429688 -4.941406 7.644531 -4.984375 7.90625 -4.984375 L 8.171875 -4.109375 C 8.003906 -4.109375 7.867188 -4.070312 7.765625 -4 C 7.660156 -3.9375 7.578125 -3.847656 7.515625 -3.734375 C 7.460938 -3.617188 7.414062 -3.488281 7.375 -3.34375 C 7.34375 -3.195312 7.304688 -3.039062 7.265625 -2.875 C 7.222656 -2.71875 7.175781 -2.554688 7.125 -2.390625 C 7.070312 -2.234375 7 -2.082031 6.90625 -1.9375 L 8.34375 -0.625 L 7.65625 0.09375 L 6.375 -1.109375 C 6.039062 -0.734375 5.671875 -0.429688 5.265625 -0.203125 C 4.859375 0.0234375 4.359375 0.140625 3.765625 0.140625 C 3.398438 0.140625 3.054688 0.0859375 2.734375 -0.015625 C 2.410156 -0.128906 2.125 -0.285156 1.875 -0.484375 C 1.632812 -0.691406 1.441406 -0.9375 1.296875 -1.21875 C 1.160156 -1.5 1.09375 -1.8125 1.09375 -2.15625 C 1.09375 -2.664062 1.222656 -3.128906 1.484375 -3.546875 C 1.742188 -3.960938 2.171875 -4.332031 2.765625 -4.65625 Z M 2.765625 -4.65625 "/></g></g></g><g fill="#094c60" fill-opacity="1"><g transform="translate(92.770304, 304.54785)"><g/></g></g><g fill="#094c60" fill-opacity="1"><g transform="translate(98.841158, 304.54785)"><g><path d="M 1.09375 -8.46875 C 1.375 -8.5 1.722656 -8.523438 2.140625 -8.546875 C 2.554688 -8.578125 3.039062 -8.59375 3.59375 -8.59375 C 4.632812 -8.59375 5.429688 -8.398438 5.984375 -8.015625 C 6.546875 -7.628906 6.828125 -7.09375 6.828125 -6.40625 C 6.828125 -5.957031 6.707031 -5.578125 6.46875 -5.265625 C 6.238281 -4.960938 5.890625 -4.707031 5.421875 -4.5 C 5.972656 -4.3125 6.390625 -4.046875 6.671875 -3.703125 C 6.960938 -3.359375 7.109375 -2.929688 7.109375 -2.421875 C 7.109375 -1.648438 6.804688 -1.035156 6.203125 -0.578125 C 5.597656 -0.128906 4.710938 0.09375 3.546875 0.09375 C 3.046875 0.09375 2.578125 0.0820312 2.140625 0.0625 C 1.703125 0.0390625 1.351562 0.0078125 1.09375 -0.03125 Z M 3.625 -0.859375 C 4.351562 -0.859375 4.914062 -0.988281 5.3125 -1.25 C 5.71875 -1.507812 5.921875 -1.882812 5.921875 -2.375 C 5.921875 -2.863281 5.722656 -3.242188 5.328125 -3.515625 C 4.929688 -3.796875 4.363281 -3.9375 3.625 -3.9375 L 2.25 -3.9375 L 2.25 -0.9375 C 2.664062 -0.882812 3.125 -0.859375 3.625 -0.859375 Z M 3.578125 -4.828125 C 4.222656 -4.828125 4.734375 -4.957031 5.109375 -5.21875 C 5.484375 -5.488281 5.671875 -5.835938 5.671875 -6.265625 C 5.671875 -6.722656 5.484375 -7.066406 5.109375 -7.296875 C 4.734375 -7.535156 4.222656 -7.65625 3.578125 -7.65625 C 3.316406 -7.65625 3.078125 -7.648438 2.859375 -7.640625 C 2.640625 -7.628906 2.4375 -7.613281 2.25 -7.59375 L 2.25 -4.828125 Z M 3.578125 -4.828125 "/></g></g></g><g fill="#094c60" fill-opacity="1"><g transform="translate(108.918394, 304.54785)"><g><path d="M 0.609375 -4.265625 C 0.609375 -4.890625 0.695312 -5.46875 0.875 -6 C 1.0625 -6.53125 1.328125 -6.988281 1.671875 -7.375 C 2.015625 -7.769531 2.429688 -8.078125 2.921875 -8.296875 C 3.421875 -8.523438 3.984375 -8.640625 4.609375 -8.640625 C 5.234375 -8.640625 5.796875 -8.523438 6.296875 -8.296875 C 6.796875 -8.066406 7.21875 -7.753906 7.5625 -7.359375 C 7.90625 -6.960938 8.164062 -6.5 8.34375 -5.96875 C 8.53125 -5.4375 8.625 -4.867188 8.625 -4.265625 C 8.625 -3.648438 8.53125 -3.078125 8.34375 -2.546875 C 8.164062 -2.015625 7.90625 -1.546875 7.5625 -1.140625 C 7.21875 -0.742188 6.796875 -0.429688 6.296875 -0.203125 C 5.804688 0.0234375 5.242188 0.140625 4.609375 0.140625 C 3.984375 0.140625 3.421875 0.0234375 2.921875 -0.203125 C 2.429688 -0.429688 2.015625 -0.742188 1.671875 -1.140625 C 1.328125 -1.546875 1.0625 -2.015625 0.875 -2.546875 C 0.695312 -3.078125 0.609375 -3.648438 0.609375 -4.265625 Z M 1.78125 -4.265625 C 1.78125 -3.828125 1.84375 -3.398438 1.96875 -2.984375 C 2.09375 -2.578125 2.273438 -2.210938 2.515625 -1.890625 C 2.765625 -1.578125 3.066406 -1.320312 3.421875 -1.125 C 3.773438 -0.9375 4.171875 -0.84375 4.609375 -0.84375 C 5.078125 -0.84375 5.488281 -0.929688 5.84375 -1.109375 C 6.195312 -1.285156 6.492188 -1.523438 6.734375 -1.828125 C 6.972656 -2.128906 7.148438 -2.488281 7.265625 -2.90625 C 7.390625 -3.320312 7.453125 -3.773438 7.453125 -4.265625 C 7.453125 -4.703125 7.382812 -5.117188 7.25 -5.515625 C 7.125 -5.921875 6.941406 -6.28125 6.703125 -6.59375 C 6.460938 -6.914062 6.164062 -7.171875 5.8125 -7.359375 C 5.457031 -7.554688 5.054688 -7.65625 4.609375 -7.65625 C 4.171875 -7.65625 3.773438 -7.566406 3.421875 -7.390625 C 3.066406 -7.210938 2.765625 -6.972656 2.515625 -6.671875 C 2.273438 -6.367188 2.09375 -6.007812 1.96875 -5.59375 C 1.84375 -5.1875 1.78125 -4.742188 1.78125 -4.265625 Z M 1.78125 -4.265625 "/></g></g></g><g fill="#094c60" fill-opacity="1"><g transform="translate(120.586048, 304.54785)"><g><path d="M 6.046875 0.140625 L 4.984375 -2.15625 C 4.722656 -2.726562 4.390625 -3.132812 3.984375 -3.375 C 3.578125 -3.625 3.054688 -3.75 2.421875 -3.75 L 2.25 -3.75 L 2.25 0 L 1.09375 0 L 1.09375 -8.46875 C 1.53125 -8.507812 1.941406 -8.539062 2.328125 -8.5625 C 2.710938 -8.582031 3.128906 -8.59375 3.578125 -8.59375 C 4.097656 -8.59375 4.550781 -8.535156 4.9375 -8.421875 C 5.332031 -8.316406 5.65625 -8.160156 5.90625 -7.953125 C 6.164062 -7.753906 6.363281 -7.515625 6.5 -7.234375 C 6.632812 -6.960938 6.703125 -6.664062 6.703125 -6.34375 C 6.703125 -5.75 6.523438 -5.269531 6.171875 -4.90625 C 5.816406 -4.550781 5.3125 -4.285156 4.65625 -4.109375 C 4.8125 -4.035156 4.957031 -3.953125 5.09375 -3.859375 C 5.238281 -3.765625 5.367188 -3.648438 5.484375 -3.515625 C 5.609375 -3.378906 5.726562 -3.21875 5.84375 -3.03125 C 5.957031 -2.84375 6.078125 -2.617188 6.203125 -2.359375 L 7.125 -0.359375 Z M 3.578125 -7.625 C 3.304688 -7.625 3.0625 -7.617188 2.84375 -7.609375 C 2.625 -7.597656 2.425781 -7.585938 2.25 -7.578125 L 2.25 -4.71875 L 3.578125 -4.71875 C 4.160156 -4.71875 4.632812 -4.847656 5 -5.109375 C 5.363281 -5.367188 5.546875 -5.742188 5.546875 -6.234375 C 5.546875 -6.628906 5.375 -6.957031 5.03125 -7.21875 C 4.695312 -7.488281 4.210938 -7.625 3.578125 -7.625 Z M 3.578125 -7.625 "/></g></g></g><g fill="#094c60" fill-opacity="1"><g transform="translate(130.505457, 304.54785)"><g><path d="M 6.046875 0.140625 L 4.984375 -2.15625 C 4.722656 -2.726562 4.390625 -3.132812 3.984375 -3.375 C 3.578125 -3.625 3.054688 -3.75 2.421875 -3.75 L 2.25 -3.75 L 2.25 0 L 1.09375 0 L 1.09375 -8.46875 C 1.53125 -8.507812 1.941406 -8.539062 2.328125 -8.5625 C 2.710938 -8.582031 3.128906 -8.59375 3.578125 -8.59375 C 4.097656 -8.59375 4.550781 -8.535156 4.9375 -8.421875 C 5.332031 -8.316406 5.65625 -8.160156 5.90625 -7.953125 C 6.164062 -7.753906 6.363281 -7.515625 6.5 -7.234375 C 6.632812 -6.960938 6.703125 -6.664062 6.703125 -6.34375 C 6.703125 -5.75 6.523438 -5.269531 6.171875 -4.90625 C 5.816406 -4.550781 5.3125 -4.285156 4.65625 -4.109375 C 4.8125 -4.035156 4.957031 -3.953125 5.09375 -3.859375 C 5.238281 -3.765625 5.367188 -3.648438 5.484375 -3.515625 C 5.609375 -3.378906 5.726562 -3.21875 5.84375 -3.03125 C 5.957031 -2.84375 6.078125 -2.617188 6.203125 -2.359375 L 7.125 -0.359375 Z M 3.578125 -7.625 C 3.304688 -7.625 3.0625 -7.617188 2.84375 -7.609375 C 2.625 -7.597656 2.425781 -7.585938 2.25 -7.578125 L 2.25 -4.71875 L 3.578125 -4.71875 C 4.160156 -4.71875 4.632812 -4.847656 5 -5.109375 C 5.363281 -5.367188 5.546875 -5.742188 5.546875 -6.234375 C 5.546875 -6.628906 5.375 -6.957031 5.03125 -7.21875 C 4.695312 -7.488281 4.210938 -7.625 3.578125 -7.625 Z M 3.578125 -7.625 "/></g></g></g><g fill="#094c60" fill-opacity="1"><g transform="translate(140.424869, 304.54785)"><g><path d="M 0.609375 -4.265625 C 0.609375 -4.890625 0.695312 -5.46875 0.875 -6 C 1.0625 -6.53125 1.328125 -6.988281 1.671875 -7.375 C 2.015625 -7.769531 2.429688 -8.078125 2.921875 -8.296875 C 3.421875 -8.523438 3.984375 -8.640625 4.609375 -8.640625 C 5.234375 -8.640625 5.796875 -8.523438 6.296875 -8.296875 C 6.796875 -8.066406 7.21875 -7.753906 7.5625 -7.359375 C 7.90625 -6.960938 8.164062 -6.5 8.34375 -5.96875 C 8.53125 -5.4375 8.625 -4.867188 8.625 -4.265625 C 8.625 -3.648438 8.53125 -3.078125 8.34375 -2.546875 C 8.164062 -2.015625 7.90625 -1.546875 7.5625 -1.140625 C 7.21875 -0.742188 6.796875 -0.429688 6.296875 -0.203125 C 5.804688 0.0234375 5.242188 0.140625 4.609375 0.140625 C 3.984375 0.140625 3.421875 0.0234375 2.921875 -0.203125 C 2.429688 -0.429688 2.015625 -0.742188 1.671875 -1.140625 C 1.328125 -1.546875 1.0625 -2.015625 0.875 -2.546875 C 0.695312 -3.078125 0.609375 -3.648438 0.609375 -4.265625 Z M 1.78125 -4.265625 C 1.78125 -3.828125 1.84375 -3.398438 1.96875 -2.984375 C 2.09375 -2.578125 2.273438 -2.210938 2.515625 -1.890625 C 2.765625 -1.578125 3.066406 -1.320312 3.421875 -1.125 C 3.773438 -0.9375 4.171875 -0.84375 4.609375 -0.84375 C 5.078125 -0.84375 5.488281 -0.929688 5.84375 -1.109375 C 6.195312 -1.285156 6.492188 -1.523438 6.734375 -1.828125 C 6.972656 -2.128906 7.148438 -2.488281 7.265625 -2.90625 C 7.390625 -3.320312 7.453125 -3.773438 7.453125 -4.265625 C 7.453125 -4.703125 7.382812 -5.117188 7.25 -5.515625 C 7.125 -5.921875 6.941406 -6.28125 6.703125 -6.59375 C 6.460938 -6.914062 6.164062 -7.171875 5.8125 -7.359375 C 5.457031 -7.554688 5.054688 -7.65625 4.609375 -7.65625 C 4.171875 -7.65625 3.773438 -7.566406 3.421875 -7.390625 C 3.066406 -7.210938 2.765625 -6.972656 2.515625 -6.671875 C 2.273438 -6.367188 2.09375 -6.007812 1.96875 -5.59375 C 1.84375 -5.1875 1.78125 -4.742188 1.78125 -4.265625 Z M 1.78125 -4.265625 "/></g></g></g><g fill="#094c60" fill-opacity="1"><g transform="translate(152.092526, 304.54785)"><g><path d="M 0.1875 -8.21875 L 1.328125 -8.578125 L 3.234375 -1.21875 L 5.046875 -7.609375 L 6.5 -7.609375 L 8.296875 -1.21875 L 10.203125 -8.546875 L 11.265625 -8.21875 L 8.96875 0 L 7.546875 0 L 5.75 -6.390625 L 3.921875 0 L 2.484375 0 Z M 0.1875 -8.21875 "/></g></g></g><g fill="#094c60" fill-opacity="1"><g transform="translate(165.969762, 304.54785)"><g><path d="M 1.09375 0 L 1.09375 -8.5 L 2.25 -8.5 L 2.25 0 Z M 1.09375 0 "/></g></g></g><g fill="#094c60" fill-opacity="1"><g transform="translate(171.737098, 304.54785)"><g><path d="M 2.1875 -7.015625 L 2.1875 0 L 1.09375 0 L 1.09375 -8.5 L 2.625 -8.5 L 6.375 -1.4375 L 6.375 -8.5 L 7.46875 -8.5 L 7.46875 0 L 5.96875 0 Z M 2.1875 -7.015625 "/></g></g></g><g fill="#094c60" fill-opacity="1"><g transform="translate(182.724885, 304.54785)"><g><path d="M 4.546875 -4.5 L 7.390625 -4.5 L 7.390625 0 L 6.375 0 L 6.375 -0.84375 C 6.09375 -0.59375 5.75 -0.363281 5.34375 -0.15625 C 4.9375 0.0390625 4.488281 0.140625 4 0.140625 C 3.5 0.140625 3.039062 0.046875 2.625 -0.140625 C 2.21875 -0.335938 1.863281 -0.617188 1.5625 -0.984375 C 1.257812 -1.347656 1.023438 -1.785156 0.859375 -2.296875 C 0.691406 -2.816406 0.609375 -3.394531 0.609375 -4.03125 C 0.609375 -4.707031 0.691406 -5.328125 0.859375 -5.890625 C 1.035156 -6.453125 1.289062 -6.9375 1.625 -7.34375 C 1.957031 -7.757812 2.363281 -8.078125 2.84375 -8.296875 C 3.320312 -8.523438 3.867188 -8.640625 4.484375 -8.640625 C 5.023438 -8.640625 5.5 -8.570312 5.90625 -8.4375 C 6.3125 -8.3125 6.695312 -8.148438 7.0625 -7.953125 L 6.640625 -7 C 6.296875 -7.175781 5.953125 -7.328125 5.609375 -7.453125 C 5.265625 -7.578125 4.875 -7.640625 4.4375 -7.640625 C 4.050781 -7.640625 3.695312 -7.5625 3.375 -7.40625 C 3.050781 -7.25 2.769531 -7.019531 2.53125 -6.71875 C 2.300781 -6.425781 2.117188 -6.054688 1.984375 -5.609375 C 1.847656 -5.171875 1.78125 -4.671875 1.78125 -4.109375 C 1.78125 -3.597656 1.84375 -3.140625 1.96875 -2.734375 C 2.09375 -2.335938 2.257812 -2 2.46875 -1.71875 C 2.6875 -1.4375 2.945312 -1.222656 3.25 -1.078125 C 3.5625 -0.929688 3.898438 -0.859375 4.265625 -0.859375 C 4.484375 -0.859375 4.691406 -0.882812 4.890625 -0.9375 C 5.097656 -0.988281 5.285156 -1.054688 5.453125 -1.140625 C 5.628906 -1.234375 5.785156 -1.328125 5.921875 -1.421875 C 6.066406 -1.523438 6.191406 -1.628906 6.296875 -1.734375 L 6.296875 -3.59375 L 4.546875 -3.59375 Z M 4.546875 -4.5 "/></g></g></g><g fill="#094c60" fill-opacity="1"><g transform="translate(193.336304, 304.54785)"><g/></g></g><g fill="#094c60" fill-opacity="1"><g transform="translate(199.407154, 304.54785)"><g><path d="M 1.09375 -8.46875 C 1.4375 -8.507812 1.800781 -8.539062 2.1875 -8.5625 C 2.582031 -8.582031 3 -8.59375 3.4375 -8.59375 C 3.957031 -8.59375 4.425781 -8.523438 4.84375 -8.390625 C 5.257812 -8.265625 5.609375 -8.085938 5.890625 -7.859375 C 6.171875 -7.640625 6.382812 -7.367188 6.53125 -7.046875 C 6.675781 -6.722656 6.75 -6.378906 6.75 -6.015625 C 6.75 -5.554688 6.660156 -5.148438 6.484375 -4.796875 C 6.316406 -4.453125 6.078125 -4.15625 5.765625 -3.90625 C 5.453125 -3.664062 5.078125 -3.484375 4.640625 -3.359375 C 4.203125 -3.234375 3.71875 -3.171875 3.1875 -3.171875 C 2.851562 -3.171875 2.539062 -3.179688 2.25 -3.203125 L 2.25 0 L 1.09375 0 Z M 3.34375 -4.125 C 4.070312 -4.125 4.628906 -4.285156 5.015625 -4.609375 C 5.410156 -4.929688 5.609375 -5.363281 5.609375 -5.90625 C 5.609375 -6.4375 5.421875 -6.851562 5.046875 -7.15625 C 4.671875 -7.46875 4.125 -7.625 3.40625 -7.625 C 3.1875 -7.625 2.976562 -7.617188 2.78125 -7.609375 C 2.59375 -7.597656 2.414062 -7.585938 2.25 -7.578125 L 2.25 -4.1875 C 2.375 -4.175781 2.523438 -4.160156 2.703125 -4.140625 C 2.890625 -4.128906 3.101562 -4.125 3.34375 -4.125 Z M 3.34375 -4.125 "/></g></g></g><g fill="#094c60" fill-opacity="1"><g transform="translate(208.889498, 304.54785)"><g><path d="M 6.140625 0 L 1.09375 0 L 1.09375 -8.5 L 2.25 -8.5 L 2.25 -1.03125 L 6.140625 -1.03125 Z M 6.140625 0 "/></g></g></g><g fill="#094c60" fill-opacity="1"><g transform="translate(217.522005, 304.54785)"><g><path d="M 0.125 -0.296875 L 3.453125 -8.5 L 4.703125 -8.5 L 7.984375 -0.296875 L 6.9375 0.125 L 5.984375 -2.3125 L 2.046875 -2.3125 L 1.109375 0.09375 Z M 2.421875 -3.28125 L 5.609375 -3.28125 L 4.015625 -7.359375 Z M 2.421875 -3.28125 "/></g></g></g><g fill="#094c60" fill-opacity="1"><g transform="translate(228.060583, 304.54785)"><g><path d="M 0.125 -8.5 L 6.5 -8.5 L 6.5 -7.484375 L 3.890625 -7.484375 L 3.890625 0 L 2.734375 0 L 2.734375 -7.484375 L 0.125 -7.484375 Z M 0.125 -8.5 "/></g></g></g><g fill="#094c60" fill-opacity="1"><g transform="translate(237.105866, 304.54785)"><g><path d="M 1.09375 -8.5 L 6.125 -8.5 L 6.125 -7.5 L 2.25 -7.5 L 2.25 -4.90625 L 5.484375 -4.90625 L 5.484375 -3.953125 L 2.25 -3.953125 L 2.25 0 L 1.09375 0 Z M 1.09375 -8.5 "/></g></g></g><g fill="#094c60" fill-opacity="1"><g transform="translate(246.029751, 304.54785)"><g><path d="M 0.609375 -4.265625 C 0.609375 -4.890625 0.695312 -5.46875 0.875 -6 C 1.0625 -6.53125 1.328125 -6.988281 1.671875 -7.375 C 2.015625 -7.769531 2.429688 -8.078125 2.921875 -8.296875 C 3.421875 -8.523438 3.984375 -8.640625 4.609375 -8.640625 C 5.234375 -8.640625 5.796875 -8.523438 6.296875 -8.296875 C 6.796875 -8.066406 7.21875 -7.753906 7.5625 -7.359375 C 7.90625 -6.960938 8.164062 -6.5 8.34375 -5.96875 C 8.53125 -5.4375 8.625 -4.867188 8.625 -4.265625 C 8.625 -3.648438 8.53125 -3.078125 8.34375 -2.546875 C 8.164062 -2.015625 7.90625 -1.546875 7.5625 -1.140625 C 7.21875 -0.742188 6.796875 -0.429688 6.296875 -0.203125 C 5.804688 0.0234375 5.242188 0.140625 4.609375 0.140625 C 3.984375 0.140625 3.421875 0.0234375 2.921875 -0.203125 C 2.429688 -0.429688 2.015625 -0.742188 1.671875 -1.140625 C 1.328125 -1.546875 1.0625 -2.015625 0.875 -2.546875 C 0.695312 -3.078125 0.609375 -3.648438 0.609375 -4.265625 Z M 1.78125 -4.265625 C 1.78125 -3.828125 1.84375 -3.398438 1.96875 -2.984375 C 2.09375 -2.578125 2.273438 -2.210938 2.515625 -1.890625 C 2.765625 -1.578125 3.066406 -1.320312 3.421875 -1.125 C 3.773438 -0.9375 4.171875 -0.84375 4.609375 -0.84375 C 5.078125 -0.84375 5.488281 -0.929688 5.84375 -1.109375 C 6.195312 -1.285156 6.492188 -1.523438 6.734375 -1.828125 C 6.972656 -2.128906 7.148438 -2.488281 7.265625 -2.90625 C 7.390625 -3.320312 7.453125 -3.773438 7.453125 -4.265625 C 7.453125 -4.703125 7.382812 -5.117188 7.25 -5.515625 C 7.125 -5.921875 6.941406 -6.28125 6.703125 -6.59375 C 6.460938 -6.914062 6.164062 -7.171875 5.8125 -7.359375 C 5.457031 -7.554688 5.054688 -7.65625 4.609375 -7.65625 C 4.171875 -7.65625 3.773438 -7.566406 3.421875 -7.390625 C 3.066406 -7.210938 2.765625 -6.972656 2.515625 -6.671875 C 2.273438 -6.367188 2.09375 -6.007812 1.96875 -5.59375 C 1.84375 -5.1875 1.78125 -4.742188 1.78125 -4.265625 Z M 1.78125 -4.265625 "/></g></g></g><g fill="#094c60" fill-opacity="1"><g transform="translate(257.697402, 304.54785)"><g><path d="M 6.046875 0.140625 L 4.984375 -2.15625 C 4.722656 -2.726562 4.390625 -3.132812 3.984375 -3.375 C 3.578125 -3.625 3.054688 -3.75 2.421875 -3.75 L 2.25 -3.75 L 2.25 0 L 1.09375 0 L 1.09375 -8.46875 C 1.53125 -8.507812 1.941406 -8.539062 2.328125 -8.5625 C 2.710938 -8.582031 3.128906 -8.59375 3.578125 -8.59375 C 4.097656 -8.59375 4.550781 -8.535156 4.9375 -8.421875 C 5.332031 -8.316406 5.65625 -8.160156 5.90625 -7.953125 C 6.164062 -7.753906 6.363281 -7.515625 6.5 -7.234375 C 6.632812 -6.960938 6.703125 -6.664062 6.703125 -6.34375 C 6.703125 -5.75 6.523438 -5.269531 6.171875 -4.90625 C 5.816406 -4.550781 5.3125 -4.285156 4.65625 -4.109375 C 4.8125 -4.035156 4.957031 -3.953125 5.09375 -3.859375 C 5.238281 -3.765625 5.367188 -3.648438 5.484375 -3.515625 C 5.609375 -3.378906 5.726562 -3.21875 5.84375 -3.03125 C 5.957031 -2.84375 6.078125 -2.617188 6.203125 -2.359375 L 7.125 -0.359375 Z M 3.578125 -7.625 C 3.304688 -7.625 3.0625 -7.617188 2.84375 -7.609375 C 2.625 -7.597656 2.425781 -7.585938 2.25 -7.578125 L 2.25 -4.71875 L 3.578125 -4.71875 C 4.160156 -4.71875 4.632812 -4.847656 5 -5.109375 C 5.363281 -5.367188 5.546875 -5.742188 5.546875 -6.234375 C 5.546875 -6.628906 5.375 -6.957031 5.03125 -7.21875 C 4.695312 -7.488281 4.210938 -7.625 3.578125 -7.625 Z M 3.578125 -7.625 "/></g></g></g><g fill="#094c60" fill-opacity="1"><g transform="translate(267.616809, 304.54785)"><g><path d="M 7.875 -7.03125 L 5.609375 -1.921875 L 4.46875 -1.921875 L 2.1875 -7.03125 L 2.1875 0 L 1.09375 0 L 1.09375 -8.5 L 2.703125 -8.5 L 5.0625 -3.125 L 7.375 -8.5 L 9.03125 -8.5 L 9.03125 0 L 7.875 0 Z M 7.875 -7.03125 "/></g></g></g></svg>