<svg xmlns="http://www.w3.org/2000/svg" xmlns:xlink="http://www.w3.org/1999/xlink" width="500" zoomAndPan="magnify" viewBox="0 0 375 374.999991" height="500" preserveAspectRatio="xMidYMid meet" version="1.0"><defs><g/><clipPath id="id1"><path d="M 11.019531 11.019531 L 364.269531 11.019531 L 364.269531 364.269531 L 11.019531 364.269531 Z M 11.019531 11.019531 " clip-rule="nonzero"/></clipPath></defs><rect x="-37.5" width="450" fill="#ffffff" y="-37.499999" height="449.999989" fill-opacity="1"/><rect x="-37.5" width="450" fill="#def4ff" y="-37.499999" height="449.999989" fill-opacity="1"/><rect x="-37.5" width="450" fill="#ffffff" y="-37.499999" height="449.999989" fill-opacity="1"/><rect x="-37.5" width="450" fill="#def4ff" y="-37.499999" height="449.999989" fill-opacity="1"/><g clip-path="url(#id1)"><path fill="#ffffff" d="M 368.667969 227.148438 L 201.722656 89.628906 C 213.023438 79.675781 223.734375 69.125 233.851562 57.96875 C 235.234375 56.152344 236.398438 54.203125 237.339844 52.121094 C 238.285156 50.039062 238.980469 47.878906 239.433594 45.640625 C 239.886719 43.402344 240.085938 41.140625 240.027344 38.855469 C 239.964844 36.570312 239.652344 34.320312 239.082031 32.109375 C 238.449219 29.617188 237.546875 27.230469 236.375 24.945312 C 235.199219 22.660156 233.785156 20.53125 232.132812 18.566406 C 230.476562 16.601562 228.621094 14.847656 226.570312 13.300781 C 224.515625 11.757812 222.316406 10.460938 219.96875 9.414062 C 218.683594 8.871094 217.363281 8.417969 216.015625 8.058594 C 214.664062 7.699219 213.296875 7.433594 211.90625 7.265625 C 210.519531 7.09375 209.128906 7.023438 207.730469 7.050781 C 206.335938 7.074219 204.945312 7.199219 203.566406 7.417969 C 202.1875 7.636719 200.828125 7.953125 199.492188 8.363281 C 198.15625 8.773438 196.855469 9.273438 195.589844 9.863281 C 194.324219 10.457031 193.105469 11.132812 191.933594 11.894531 C 190.761719 12.65625 189.648438 13.496094 188.59375 14.414062 C 187.539062 13.5 186.425781 12.660156 185.253906 11.898438 C 184.082031 11.140625 182.863281 10.464844 181.59375 9.875 C 180.328125 9.285156 179.027344 8.785156 177.691406 8.375 C 176.355469 7.96875 175 7.652344 173.621094 7.433594 C 172.238281 7.214844 170.851562 7.089844 169.457031 7.0625 C 168.058594 7.039062 166.667969 7.109375 165.28125 7.273438 C 163.894531 7.441406 162.523438 7.707031 161.175781 8.0625 C 159.824219 8.421875 158.503906 8.871094 157.21875 9.414062 C 154.871094 10.460938 152.671875 11.757812 150.617188 13.300781 C 148.566406 14.847656 146.710938 16.601562 145.054688 18.566406 C 143.402344 20.53125 141.988281 22.660156 140.8125 24.945312 C 139.640625 27.230469 138.738281 29.617188 138.105469 32.109375 C 137.535156 34.320312 137.222656 36.570312 137.164062 38.855469 C 137.101562 41.140625 137.300781 43.402344 137.753906 45.640625 C 138.207031 47.878906 138.902344 50.039062 139.847656 52.121094 C 140.789062 54.203125 141.953125 56.152344 143.335938 57.96875 C 153.453125 69.125 164.164062 79.675781 175.464844 89.628906 L 8.519531 227.148438 C 8.082031 227.507812 7.683594 227.90625 7.324219 228.34375 C 6.964844 228.78125 6.652344 229.25 6.382812 229.746094 C 6.117188 230.246094 5.902344 230.765625 5.738281 231.308594 C 5.574219 231.847656 5.464844 232.402344 5.40625 232.964844 C 5.351562 233.527344 5.351562 234.089844 5.40625 234.652344 C 5.460938 235.21875 5.574219 235.769531 5.738281 236.3125 C 5.902344 236.851562 6.117188 237.375 6.382812 237.871094 C 6.648438 238.371094 6.960938 238.839844 7.320312 239.277344 C 7.679688 239.714844 8.078125 240.113281 8.515625 240.472656 C 8.953125 240.832031 9.417969 241.144531 9.917969 241.410156 C 10.417969 241.679688 10.9375 241.894531 11.480469 242.058594 C 12.019531 242.222656 12.574219 242.332031 13.136719 242.390625 C 13.699219 242.445312 14.261719 242.445312 14.824219 242.390625 C 15.386719 242.335938 15.941406 242.226562 16.480469 242.0625 C 17.023438 241.898438 17.542969 241.683594 18.042969 241.417969 C 18.542969 241.148438 19.011719 240.835938 19.449219 240.480469 L 51.191406 214.316406 L 51.191406 364.734375 C 51.1875 365.300781 51.238281 365.863281 51.34375 366.421875 C 51.453125 366.976562 51.613281 367.519531 51.828125 368.042969 C 52.039062 368.570312 52.304688 369.070312 52.617188 369.542969 C 52.929688 370.015625 53.285156 370.453125 53.6875 370.855469 C 54.085938 371.257812 54.519531 371.621094 54.992188 371.9375 C 55.460938 372.253906 55.960938 372.519531 56.484375 372.738281 C 57.007812 372.957031 57.546875 373.121094 58.105469 373.230469 C 58.660156 373.34375 59.222656 373.398438 59.789062 373.398438 L 143.253906 373.398438 C 143.816406 373.398438 144.375 373.34375 144.925781 373.230469 C 145.480469 373.121094 146.015625 372.957031 146.535156 372.742188 C 147.054688 372.523438 147.550781 372.261719 148.019531 371.949219 C 148.484375 371.632812 148.917969 371.277344 149.316406 370.878906 C 149.714844 370.480469 150.070312 370.050781 150.382812 369.582031 C 150.695312 369.113281 150.960938 368.617188 151.179688 368.097656 C 151.394531 367.578125 151.558594 367.042969 151.667969 366.492188 C 151.777344 365.9375 151.835938 365.378906 151.835938 364.816406 L 151.835938 292 C 151.835938 290.796875 151.894531 289.59375 152.011719 288.398438 C 152.128906 287.199219 152.308594 286.011719 152.542969 284.828125 C 152.777344 283.648438 153.070312 282.480469 153.417969 281.332031 C 153.769531 280.179688 154.171875 279.046875 154.632812 277.933594 C 155.09375 276.820312 155.609375 275.734375 156.175781 274.671875 C 156.742188 273.609375 157.363281 272.578125 158.03125 271.578125 C 158.699219 270.578125 159.414062 269.613281 160.179688 268.679688 C 160.941406 267.75 161.75 266.859375 162.601562 266.007812 C 163.453125 265.15625 164.34375 264.351562 165.273438 263.585938 C 166.207031 262.820312 167.171875 262.105469 168.171875 261.4375 C 169.171875 260.769531 170.203125 260.148438 171.265625 259.582031 C 172.328125 259.015625 173.414062 258.5 174.527344 258.039062 C 175.640625 257.578125 176.769531 257.175781 177.921875 256.824219 C 179.074219 256.476562 180.242188 256.183594 181.421875 255.949219 C 182.601562 255.714844 183.792969 255.539062 184.992188 255.417969 C 186.1875 255.300781 187.390625 255.242188 188.59375 255.242188 C 189.796875 255.242188 191 255.300781 192.195312 255.417969 C 193.394531 255.539062 194.585938 255.714844 195.765625 255.949219 C 196.945312 256.183594 198.113281 256.476562 199.265625 256.824219 C 200.417969 257.175781 201.546875 257.578125 202.660156 258.039062 C 203.773438 258.5 204.859375 259.015625 205.921875 259.582031 C 206.984375 260.148438 208.015625 260.769531 209.015625 261.4375 C 210.015625 262.105469 210.984375 262.820312 211.914062 263.585938 C 212.84375 264.351562 213.734375 265.15625 214.585938 266.007812 C 215.4375 266.859375 216.246094 267.75 217.007812 268.679688 C 217.773438 269.613281 218.488281 270.578125 219.15625 271.578125 C 219.824219 272.578125 220.445312 273.609375 221.011719 274.671875 C 221.578125 275.734375 222.09375 276.820312 222.554688 277.933594 C 223.015625 279.046875 223.417969 280.179688 223.769531 281.332031 C 224.117188 282.480469 224.410156 283.648438 224.644531 284.828125 C 224.878906 286.011719 225.058594 287.199219 225.175781 288.398438 C 225.292969 289.59375 225.351562 290.796875 225.351562 292 L 225.351562 364.734375 C 225.351562 365.296875 225.410156 365.855469 225.519531 366.40625 C 225.628906 366.960938 225.792969 367.496094 226.011719 368.015625 C 226.226562 368.535156 226.492188 369.03125 226.804688 369.496094 C 227.117188 369.964844 227.472656 370.398438 227.871094 370.796875 C 228.269531 371.195312 228.703125 371.550781 229.171875 371.863281 C 229.636719 372.175781 230.132812 372.441406 230.652344 372.65625 C 231.171875 372.875 231.707031 373.039062 232.261719 373.148438 C 232.8125 373.257812 233.371094 373.3125 233.933594 373.316406 L 317.398438 373.316406 C 317.960938 373.316406 318.519531 373.261719 319.074219 373.152344 C 319.625 373.039062 320.164062 372.878906 320.683594 372.664062 C 321.207031 372.445312 321.699219 372.183594 322.167969 371.871094 C 322.640625 371.558594 323.074219 371.203125 323.472656 370.804688 C 323.871094 370.40625 324.226562 369.972656 324.542969 369.503906 C 324.855469 369.035156 325.121094 368.539062 325.335938 368.019531 C 325.554688 367.5 325.71875 366.960938 325.828125 366.410156 C 325.9375 365.855469 325.996094 365.296875 325.996094 364.734375 L 325.996094 214.25 L 357.738281 240.414062 C 358.175781 240.769531 358.644531 241.082031 359.144531 241.347656 C 359.644531 241.613281 360.164062 241.828125 360.707031 241.992188 C 361.246094 242.15625 361.796875 242.265625 362.363281 242.320312 C 362.925781 242.375 363.488281 242.375 364.050781 242.320312 C 364.613281 242.261719 365.164062 242.152344 365.707031 241.988281 C 366.246094 241.824219 366.769531 241.609375 367.265625 241.339844 C 367.765625 241.074219 368.234375 240.761719 368.667969 240.402344 C 369.105469 240.042969 369.503906 239.644531 369.863281 239.207031 C 370.222656 238.769531 370.535156 238.300781 370.800781 237.804688 C 371.066406 237.304688 371.28125 236.785156 371.445312 236.242188 C 371.609375 235.703125 371.722656 235.148438 371.777344 234.585938 C 371.832031 234.023438 371.832031 233.460938 371.777344 232.898438 C 371.722656 232.335938 371.609375 231.78125 371.445312 231.242188 C 371.28125 230.699219 371.066406 230.179688 370.800781 229.679688 C 370.535156 229.183594 370.222656 228.714844 369.863281 228.277344 C 369.503906 227.839844 369.105469 227.441406 368.667969 227.082031 Z M 156.933594 47.472656 C 156.339844 46.675781 155.839844 45.824219 155.441406 44.914062 C 155.039062 44.007812 154.742188 43.066406 154.554688 42.089844 C 154.367188 41.113281 154.292969 40.128906 154.328125 39.136719 C 154.363281 38.144531 154.511719 37.167969 154.769531 36.207031 C 155.09375 34.972656 155.550781 33.792969 156.144531 32.664062 C 156.738281 31.53125 157.453125 30.484375 158.28125 29.515625 C 159.113281 28.546875 160.042969 27.683594 161.070312 26.925781 C 162.097656 26.167969 163.195312 25.535156 164.367188 25.027344 C 173.082031 21.027344 180.277344 30.894531 181.945312 31.691406 C 182.347656 32.175781 182.800781 32.613281 183.300781 32.996094 C 183.800781 33.382812 184.335938 33.710938 184.910156 33.976562 C 185.480469 34.246094 186.074219 34.445312 186.691406 34.582031 C 187.304688 34.71875 187.929688 34.789062 188.558594 34.789062 C 189.191406 34.789062 189.816406 34.71875 190.429688 34.582031 C 191.046875 34.445312 191.640625 34.246094 192.210938 33.976562 C 192.785156 33.710938 193.320312 33.382812 193.820312 32.996094 C 194.320312 32.613281 194.769531 32.175781 195.175781 31.691406 C 195.277344 31.59375 204.222656 21.113281 212.789062 25.027344 C 213.957031 25.535156 215.058594 26.167969 216.085938 26.925781 C 217.113281 27.683594 218.039062 28.546875 218.871094 29.515625 C 219.703125 30.484375 220.414062 31.53125 221.007812 32.664062 C 221.601562 33.792969 222.0625 34.972656 222.386719 36.207031 C 222.644531 37.167969 222.789062 38.144531 222.824219 39.136719 C 222.863281 40.128906 222.785156 41.109375 222.601562 42.085938 C 222.414062 43.0625 222.121094 44.003906 221.722656 44.914062 C 221.324219 45.820312 220.828125 46.675781 220.238281 47.472656 C 210.214844 58.308594 199.664062 68.605469 188.59375 78.367188 C 177.511719 68.609375 166.957031 58.3125 156.933594 47.472656 Z M 308.800781 356.136719 L 242.53125 356.136719 L 242.53125 292 C 242.53125 290.234375 242.441406 288.472656 242.269531 286.714844 C 242.09375 284.957031 241.835938 283.214844 241.492188 281.480469 C 241.144531 279.75 240.714844 278.039062 240.203125 276.347656 C 239.691406 274.660156 239.09375 273 238.417969 271.367188 C 237.742188 269.734375 236.988281 268.140625 236.152344 266.585938 C 235.320312 265.027344 234.414062 263.515625 233.433594 262.046875 C 232.449219 260.578125 231.398438 259.164062 230.277344 257.796875 C 229.15625 256.433594 227.972656 255.125 226.722656 253.878906 C 225.476562 252.628906 224.167969 251.445312 222.800781 250.324219 C 221.4375 249.203125 220.019531 248.15625 218.550781 247.171875 C 217.082031 246.191406 215.570312 245.285156 214.011719 244.453125 C 212.453125 243.621094 210.859375 242.867188 209.230469 242.191406 C 207.597656 241.515625 205.9375 240.921875 204.246094 240.410156 C 202.554688 239.898438 200.84375 239.46875 199.113281 239.125 C 197.382812 238.78125 195.636719 238.523438 193.878906 238.347656 C 192.121094 238.175781 190.359375 238.089844 188.59375 238.089844 C 186.828125 238.089844 185.066406 238.175781 183.308594 238.347656 C 181.550781 238.523438 179.804688 238.78125 178.074219 239.125 C 176.34375 239.46875 174.632812 239.898438 172.941406 240.410156 C 171.25 240.921875 169.589844 241.515625 167.957031 242.191406 C 166.328125 242.867188 164.734375 243.621094 163.175781 244.453125 C 161.617188 245.285156 160.105469 246.191406 158.636719 247.171875 C 157.167969 248.15625 155.75 249.203125 154.386719 250.324219 C 153.019531 251.445312 151.710938 252.628906 150.464844 253.878906 C 149.214844 255.125 148.03125 256.433594 146.910156 257.796875 C 145.789062 259.164062 144.738281 260.578125 143.753906 262.046875 C 142.773438 263.515625 141.867188 265.027344 141.035156 266.585938 C 140.199219 268.140625 139.445312 269.734375 138.769531 271.367188 C 138.09375 273 137.5 274.660156 136.984375 276.347656 C 136.472656 278.039062 136.042969 279.75 135.695312 281.480469 C 135.351562 283.214844 135.09375 284.957031 134.917969 286.714844 C 134.746094 288.472656 134.65625 290.234375 134.65625 292 L 134.65625 356.136719 L 68.371094 356.136719 L 68.371094 200.105469 L 188.59375 101.058594 L 308.816406 200.105469 Z M 308.800781 356.136719 " fill-opacity="1" fill-rule="nonzero"/></g><g fill="#094c60" fill-opacity="1"><g transform="translate(67.837867, 330.719496)"><g><path d="M 9.8125 -19.8125 C 6.476562 -23.914062 4.8125 -27.601562 4.8125 -30.875 C 4.8125 -34.144531 7.566406 -38.472656 13.078125 -43.859375 C 16.285156 -46.941406 19.679688 -48.484375 23.265625 -48.484375 C 26.859375 -48.484375 31.863281 -45.273438 38.28125 -38.859375 C 40.070312 -36.679688 42.632812 -34.597656 45.96875 -32.609375 C 49.3125 -30.617188 52.394531 -29.625 55.21875 -29.625 C 67.144531 -29.625 73.109375 -34.5 73.109375 -44.25 C 73.109375 -47.195312 71.472656 -49.664062 68.203125 -51.65625 C 64.929688 -53.644531 60.859375 -55.085938 55.984375 -55.984375 C 51.109375 -56.878906 45.847656 -58.320312 40.203125 -60.3125 C 34.554688 -62.300781 29.296875 -64.640625 24.421875 -67.328125 C 19.554688 -70.023438 15.488281 -74.289062 12.21875 -80.125 C 8.945312 -85.957031 7.3125 -92.976562 7.3125 -101.1875 C 7.3125 -112.476562 11.507812 -122.320312 19.90625 -130.71875 C 28.3125 -139.113281 39.757812 -143.3125 54.25 -143.3125 C 61.945312 -143.3125 68.96875 -142.316406 75.3125 -140.328125 C 81.664062 -138.347656 86.0625 -136.332031 88.5 -134.28125 L 93.296875 -130.625 C 97.273438 -126.90625 99.265625 -123.757812 99.265625 -121.1875 C 99.265625 -118.625 97.726562 -115.097656 94.65625 -110.609375 C 90.289062 -104.203125 85.800781 -101 81.1875 -101 C 78.488281 -101 75.148438 -102.28125 71.171875 -104.84375 C 70.796875 -105.101562 70.0625 -105.742188 68.96875 -106.765625 C 67.875 -107.796875 66.878906 -108.628906 65.984375 -109.265625 C 63.285156 -110.929688 59.851562 -111.765625 55.6875 -111.765625 C 51.519531 -111.765625 48.054688 -110.769531 45.296875 -108.78125 C 42.546875 -106.800781 41.171875 -104.046875 41.171875 -100.515625 C 41.171875 -96.984375 42.804688 -94.128906 46.078125 -91.953125 C 49.347656 -89.773438 53.414062 -88.300781 58.28125 -87.53125 C 63.15625 -86.757812 68.476562 -85.570312 74.25 -83.96875 C 80.019531 -82.363281 85.34375 -80.40625 90.21875 -78.09375 C 95.09375 -75.789062 99.164062 -71.785156 102.4375 -66.078125 C 105.707031 -60.367188 107.34375 -53.347656 107.34375 -45.015625 C 107.34375 -36.679688 105.675781 -29.335938 102.34375 -22.984375 C 99.007812 -16.640625 94.648438 -11.734375 89.265625 -8.265625 C 78.867188 -1.472656 67.773438 1.921875 55.984375 1.921875 C 49.953125 1.921875 44.242188 1.1875 38.859375 -0.28125 C 33.472656 -1.757812 29.113281 -3.585938 25.78125 -5.765625 C 18.976562 -9.867188 14.234375 -13.847656 11.546875 -17.703125 Z M 9.8125 -19.8125 "/></g></g></g><g fill="#094c60" fill-opacity="1"><g transform="translate(182.877967, 330.719496)"><g><path d="M 108.109375 -75.609375 C 115.679688 -66.628906 119.46875 -56.5625 119.46875 -45.40625 C 119.207031 -32.570312 114.8125 -21.828125 106.28125 -13.171875 C 97.757812 -4.515625 87.40625 -0.1875 75.21875 -0.1875 L 24.625 -0.1875 C 15.644531 -0.1875 10.382812 -2.625 8.84375 -7.5 C 8.070312 -9.675781 7.6875 -13.007812 7.6875 -17.5 L 7.6875 -124.28125 C 7.6875 -127.351562 7.78125 -129.59375 7.96875 -131 C 8.164062 -132.414062 8.78125 -134.085938 9.8125 -136.015625 C 11.601562 -139.472656 16.601562 -141.203125 24.8125 -141.203125 L 73.296875 -141.203125 C 85.097656 -141.203125 94.972656 -137.097656 102.921875 -128.890625 C 111.253906 -120.554688 115.421875 -110.550781 115.421875 -98.875 C 115.421875 -90.414062 112.984375 -82.660156 108.109375 -75.609375 Z M 85.421875 -47.328125 C 85.421875 -50.398438 85.066406 -52.832031 84.359375 -54.625 C 83.648438 -56.425781 82.460938 -57.710938 80.796875 -58.484375 C 78.234375 -59.503906 74.640625 -60.015625 70.015625 -60.015625 C 65.398438 -60.015625 61.9375 -60.910156 59.625 -62.703125 C 57.320312 -64.503906 56.171875 -68.191406 56.171875 -73.765625 C 56.171875 -79.347656 57.359375 -83.035156 59.734375 -84.828125 C 62.109375 -86.628906 66.050781 -87.53125 71.5625 -87.53125 C 76.695312 -87.53125 79.773438 -88.878906 80.796875 -91.578125 C 81.179688 -92.984375 81.375 -95.289062 81.375 -98.5 C 81.375 -101.707031 80.316406 -103.953125 78.203125 -105.234375 C 76.085938 -106.515625 72.910156 -107.15625 68.671875 -107.15625 L 41.75 -107.15625 L 41.75 -34.25 L 73.296875 -34.25 C 81.378906 -34.25 85.421875 -38.609375 85.421875 -47.328125 Z M 85.421875 -47.328125 "/></g></g></g></svg>