<svg xmlns="http://www.w3.org/2000/svg" xmlns:xlink="http://www.w3.org/1999/xlink" width="500" zoomAndPan="magnify" viewBox="0 0 375 374.999991" height="500" preserveAspectRatio="xMidYMid meet" version="1.0"><defs><clipPath id="id1"><path d="M 4 7 L 371.839844 7 L 371.839844 374.679688 L 4 374.679688 Z M 4 7 " clip-rule="nonzero"/></clipPath></defs><rect x="-37.5" width="450" fill="#ffffff" y="-37.499999" height="449.999989" fill-opacity="1"/><rect x="-37.5" width="450" fill="#def4ff" y="-37.499999" height="449.999989" fill-opacity="1"/><rect x="-37.5" width="450" fill="#ffffff" y="-37.499999" height="449.999989" fill-opacity="1"/><rect x="-37.5" width="450" fill="#def4ff" y="-37.499999" height="449.999989" fill-opacity="1"/><g clip-path="url(#id1)"><path fill="#094c60" d="M 368.617188 228.132812 L 201.332031 90.332031 C 212.65625 80.359375 223.386719 69.785156 233.523438 58.609375 C 234.910156 56.789062 236.078125 54.835938 237.023438 52.75 C 237.964844 50.664062 238.664062 48.5 239.121094 46.253906 C 239.574219 44.011719 239.769531 41.742188 239.710938 39.457031 C 239.652344 37.167969 239.335938 34.914062 238.765625 32.695312 C 238.132812 30.199219 237.230469 27.808594 236.054688 25.515625 C 234.878906 23.226562 233.460938 21.097656 231.800781 19.125 C 230.144531 17.15625 228.285156 15.398438 226.226562 13.851562 C 224.171875 12.300781 221.964844 11.003906 219.613281 9.953125 C 218.324219 9.410156 217.003906 8.957031 215.652344 8.59375 C 214.296875 8.234375 212.925781 7.96875 211.535156 7.800781 C 210.148438 7.632812 208.75 7.558594 207.351562 7.585938 C 205.953125 7.609375 204.558594 7.734375 203.175781 7.953125 C 201.792969 8.175781 200.433594 8.488281 199.09375 8.902344 C 197.757812 9.3125 196.453125 9.8125 195.183594 10.40625 C 193.914062 11 192.695312 11.675781 191.519531 12.441406 C 190.347656 13.203125 189.230469 14.042969 188.175781 14.964844 C 187.117188 14.046875 186 13.207031 184.828125 12.445312 C 183.652344 11.683594 182.429688 11.007812 181.164062 10.417969 C 179.894531 9.824219 178.589844 9.324219 177.25 8.914062 C 175.914062 8.503906 174.554688 8.1875 173.171875 7.96875 C 171.789062 7.75 170.398438 7.625 168.996094 7.597656 C 167.597656 7.574219 166.203125 7.644531 164.8125 7.8125 C 163.425781 7.980469 162.050781 8.242188 160.699219 8.601562 C 159.347656 8.960938 158.023438 9.410156 156.734375 9.953125 C 154.382812 11.003906 152.179688 12.300781 150.121094 13.851562 C 148.066406 15.398438 146.207031 17.15625 144.546875 19.125 C 142.890625 21.097656 141.472656 23.226562 140.296875 25.515625 C 139.121094 27.808594 138.21875 30.199219 137.582031 32.695312 C 137.011719 34.914062 136.699219 37.167969 136.636719 39.457031 C 136.578125 41.742188 136.777344 44.011719 137.230469 46.253906 C 137.683594 48.5 138.382812 50.664062 139.328125 52.75 C 140.273438 54.835938 141.4375 56.789062 142.828125 58.609375 C 152.964844 69.785156 163.695312 80.359375 175.019531 90.332031 L 7.730469 228.132812 C 7.292969 228.492188 6.894531 228.890625 6.535156 229.328125 C 6.175781 229.765625 5.863281 230.238281 5.59375 230.738281 C 5.328125 231.238281 5.113281 231.757812 4.945312 232.300781 C 4.78125 232.84375 4.671875 233.394531 4.617188 233.960938 C 4.558594 234.523438 4.558594 235.089844 4.617188 235.652344 C 4.671875 236.21875 4.78125 236.769531 4.945312 237.3125 C 5.109375 237.855469 5.324219 238.378906 5.59375 238.878906 C 5.859375 239.378906 6.171875 239.847656 6.53125 240.285156 C 6.890625 240.722656 7.289062 241.125 7.730469 241.484375 C 8.167969 241.84375 8.636719 242.15625 9.136719 242.425781 C 9.636719 242.691406 10.15625 242.90625 10.699219 243.074219 C 11.242188 243.238281 11.796875 243.347656 12.359375 243.402344 C 12.925781 243.460938 13.488281 243.460938 14.050781 243.40625 C 14.617188 243.351562 15.171875 243.238281 15.714844 243.074219 C 16.253906 242.910156 16.777344 242.695312 17.277344 242.429688 C 17.777344 242.164062 18.246094 241.847656 18.683594 241.488281 L 50.492188 215.277344 L 50.492188 366 C 50.488281 366.566406 50.539062 367.128906 50.648438 367.6875 C 50.753906 368.246094 50.914062 368.789062 51.128906 369.316406 C 51.34375 369.84375 51.609375 370.34375 51.921875 370.816406 C 52.234375 371.289062 52.59375 371.730469 52.992188 372.132812 C 53.394531 372.535156 53.828125 372.898438 54.300781 373.214844 C 54.773438 373.53125 55.269531 373.800781 55.796875 374.019531 C 56.320312 374.238281 56.863281 374.402344 57.417969 374.511719 C 57.976562 374.625 58.539062 374.679688 59.109375 374.679688 L 142.742188 374.679688 C 143.308594 374.679688 143.867188 374.625 144.417969 374.511719 C 144.972656 374.402344 145.511719 374.238281 146.03125 374.019531 C 146.550781 373.804688 147.046875 373.539062 147.515625 373.226562 C 147.984375 372.914062 148.417969 372.554688 148.820312 372.15625 C 149.21875 371.757812 149.574219 371.324219 149.886719 370.855469 C 150.203125 370.386719 150.464844 369.890625 150.683594 369.371094 C 150.898438 368.847656 151.0625 368.3125 151.175781 367.757812 C 151.285156 367.203125 151.339844 366.644531 151.34375 366.082031 L 151.34375 293.117188 C 151.34375 291.910156 151.402344 290.707031 151.519531 289.507812 C 151.636719 288.304688 151.8125 287.113281 152.050781 285.929688 C 152.285156 284.746094 152.578125 283.578125 152.929688 282.425781 C 153.277344 281.269531 153.683594 280.136719 154.144531 279.019531 C 154.605469 277.90625 155.121094 276.816406 155.691406 275.753906 C 156.257812 274.6875 156.878906 273.65625 157.550781 272.652344 C 158.21875 271.648438 158.9375 270.683594 159.703125 269.75 C 160.46875 268.816406 161.277344 267.925781 162.128906 267.070312 C 162.984375 266.21875 163.875 265.410156 164.808594 264.644531 C 165.742188 263.878906 166.707031 263.160156 167.710938 262.492188 C 168.714844 261.820312 169.75 261.199219 170.8125 260.632812 C 171.875 260.0625 172.964844 259.546875 174.078125 259.085938 C 175.195312 258.625 176.328125 258.21875 177.484375 257.871094 C 178.636719 257.519531 179.804688 257.226562 180.988281 256.992188 C 182.171875 256.753906 183.363281 256.578125 184.566406 256.460938 C 185.765625 256.34375 186.96875 256.285156 188.175781 256.28125 C 189.382812 256.285156 190.585938 256.34375 191.785156 256.460938 C 192.984375 256.578125 194.175781 256.753906 195.359375 256.992188 C 196.542969 257.226562 197.710938 257.519531 198.867188 257.871094 C 200.023438 258.21875 201.15625 258.625 202.269531 259.085938 C 203.386719 259.546875 204.472656 260.0625 205.539062 260.632812 C 206.601562 261.199219 207.636719 261.820312 208.636719 262.492188 C 209.640625 263.160156 210.609375 263.878906 211.542969 264.644531 C 212.472656 265.410156 213.367188 266.21875 214.21875 267.070312 C 215.074219 267.925781 215.882812 268.816406 216.648438 269.75 C 217.414062 270.683594 218.128906 271.648438 218.800781 272.652344 C 219.472656 273.65625 220.089844 274.6875 220.660156 275.753906 C 221.226562 276.816406 221.742188 277.90625 222.203125 279.019531 C 222.667969 280.136719 223.070312 281.269531 223.421875 282.425781 C 223.773438 283.578125 224.066406 284.746094 224.300781 285.929688 C 224.535156 287.113281 224.710938 288.304688 224.832031 289.507812 C 224.949219 290.707031 225.007812 291.910156 225.007812 293.117188 L 225.007812 366 C 225.007812 366.5625 225.066406 367.121094 225.175781 367.675781 C 225.289062 368.226562 225.449219 368.765625 225.667969 369.285156 C 225.882812 369.808594 226.148438 370.300781 226.460938 370.769531 C 226.777344 371.242188 227.132812 371.675781 227.53125 372.074219 C 227.929688 372.472656 228.363281 372.828125 228.832031 373.144531 C 229.304688 373.457031 229.796875 373.722656 230.320312 373.9375 C 230.839844 374.15625 231.378906 374.316406 231.929688 374.429688 C 232.484375 374.539062 233.042969 374.597656 233.605469 374.597656 L 317.242188 374.597656 C 317.804688 374.597656 318.367188 374.542969 318.921875 374.433594 C 319.472656 374.320312 320.011719 374.160156 320.535156 373.941406 C 321.058594 373.726562 321.554688 373.460938 322.023438 373.148438 C 322.492188 372.835938 322.929688 372.480469 323.328125 372.078125 C 323.726562 371.679688 324.085938 371.246094 324.398438 370.777344 C 324.714844 370.308594 324.980469 369.8125 325.195312 369.289062 C 325.414062 368.769531 325.578125 368.230469 325.6875 367.675781 C 325.800781 367.121094 325.855469 366.5625 325.855469 366 L 325.855469 215.210938 L 357.664062 241.421875 C 358.101562 241.78125 358.574219 242.09375 359.074219 242.363281 C 359.574219 242.628906 360.09375 242.84375 360.636719 243.007812 C 361.179688 243.171875 361.734375 243.28125 362.296875 243.335938 C 362.859375 243.390625 363.425781 243.390625 363.988281 243.335938 C 364.554688 243.277344 365.105469 243.167969 365.648438 243.003906 C 366.191406 242.835938 366.710938 242.621094 367.210938 242.355469 C 367.710938 242.085938 368.179688 241.773438 368.617188 241.414062 C 369.054688 241.054688 369.453125 240.652344 369.8125 240.214844 C 370.171875 239.777344 370.488281 239.308594 370.753906 238.808594 C 371.019531 238.308594 371.234375 237.789062 371.402344 237.246094 C 371.566406 236.703125 371.675781 236.148438 371.730469 235.585938 C 371.785156 235.019531 371.785156 234.457031 371.730469 233.894531 C 371.675781 233.328125 371.566406 232.777344 371.402344 232.234375 C 371.234375 231.691406 371.019531 231.167969 370.753906 230.671875 C 370.488281 230.171875 370.171875 229.699219 369.8125 229.261719 C 369.453125 228.824219 369.054688 228.425781 368.617188 228.066406 Z M 156.449219 48.089844 C 155.855469 47.292969 155.355469 46.4375 154.953125 45.527344 C 154.550781 44.617188 154.257812 43.675781 154.066406 42.695312 C 153.878906 41.71875 153.804688 40.734375 153.839844 39.738281 C 153.875 38.742188 154.023438 37.765625 154.28125 36.804688 C 154.605469 35.566406 155.066406 34.382812 155.660156 33.25 C 156.253906 32.117188 156.96875 31.066406 157.800781 30.097656 C 158.636719 29.125 159.566406 28.261719 160.59375 27.503906 C 161.625 26.742188 162.726562 26.109375 163.898438 25.601562 C 172.628906 21.59375 179.84375 31.476562 181.511719 32.277344 C 181.917969 32.765625 182.371094 33.199219 182.871094 33.585938 C 183.371094 33.972656 183.910156 34.300781 184.480469 34.566406 C 185.054688 34.835938 185.648438 35.039062 186.265625 35.175781 C 186.882812 35.3125 187.507812 35.382812 188.140625 35.382812 C 188.773438 35.382812 189.398438 35.3125 190.015625 35.175781 C 190.632812 35.039062 191.226562 34.835938 191.800781 34.566406 C 192.375 34.300781 192.910156 33.972656 193.410156 33.585938 C 193.914062 33.199219 194.367188 32.765625 194.769531 32.277344 C 194.871094 32.179688 203.835938 21.675781 212.417969 25.601562 C 213.589844 26.109375 214.691406 26.742188 215.722656 27.503906 C 216.75 28.261719 217.683594 29.125 218.515625 30.097656 C 219.347656 31.066406 220.0625 32.117188 220.65625 33.25 C 221.25 34.382812 221.710938 35.566406 222.035156 36.804688 C 222.292969 37.765625 222.441406 38.742188 222.476562 39.734375 C 222.511719 40.730469 222.4375 41.714844 222.25 42.695312 C 222.066406 43.671875 221.773438 44.613281 221.371094 45.527344 C 220.972656 46.4375 220.476562 47.292969 219.882812 48.089844 C 209.839844 58.949219 199.269531 69.265625 188.175781 79.046875 C 177.070312 69.273438 166.496094 58.953125 156.449219 48.089844 Z M 308.625 357.382812 L 242.222656 357.382812 L 242.222656 293.117188 C 242.222656 291.347656 242.132812 289.582031 241.960938 287.820312 C 241.785156 286.058594 241.527344 284.3125 241.179688 282.574219 C 240.832031 280.839844 240.402344 279.125 239.890625 277.433594 C 239.375 275.738281 238.777344 274.074219 238.101562 272.441406 C 237.421875 270.808594 236.667969 269.210938 235.832031 267.648438 C 234.996094 266.089844 234.089844 264.574219 233.105469 263.101562 C 232.121094 261.628906 231.066406 260.210938 229.945312 258.84375 C 228.820312 257.476562 227.636719 256.167969 226.382812 254.917969 C 225.132812 253.664062 223.820312 252.476562 222.453125 251.355469 C 221.085938 250.234375 219.664062 249.179688 218.195312 248.199219 C 216.722656 247.214844 215.207031 246.308594 213.644531 245.472656 C 212.085938 244.640625 210.488281 243.882812 208.851562 243.207031 C 207.21875 242.53125 205.554688 241.933594 203.859375 241.421875 C 202.167969 240.90625 200.453125 240.476562 198.714844 240.132812 C 196.980469 239.789062 195.230469 239.527344 193.472656 239.355469 C 191.710938 239.183594 189.945312 239.09375 188.175781 239.09375 C 186.40625 239.09375 184.640625 239.183594 182.878906 239.355469 C 181.117188 239.527344 179.371094 239.789062 177.632812 240.132812 C 175.898438 240.476562 174.183594 240.90625 172.492188 241.421875 C 170.796875 241.933594 169.132812 242.53125 167.496094 243.207031 C 165.863281 243.882812 164.265625 244.640625 162.703125 245.472656 C 161.144531 246.308594 159.628906 247.214844 158.15625 248.199219 C 156.683594 249.179688 155.265625 250.234375 153.898438 251.355469 C 152.527344 252.476562 151.21875 253.664062 149.96875 254.914062 C 148.714844 256.167969 147.527344 257.476562 146.40625 258.84375 C 145.28125 260.210938 144.230469 261.628906 143.246094 263.101562 C 142.261719 264.574219 141.351562 266.089844 140.519531 267.648438 C 139.683594 269.210938 138.925781 270.808594 138.25 272.441406 C 137.570312 274.074219 136.976562 275.738281 136.460938 277.433594 C 135.945312 279.125 135.515625 280.839844 135.171875 282.574219 C 134.824219 284.3125 134.5625 286.058594 134.390625 287.820312 C 134.214844 289.582031 134.128906 291.347656 134.128906 293.117188 L 134.128906 357.382812 L 67.707031 357.382812 L 67.707031 201.035156 L 188.175781 101.789062 L 308.644531 201.035156 Z M 308.625 357.382812 " fill-opacity="1" fill-rule="nonzero"/></g></svg>